<svg id="_007-secure-data" data-name="007-secure-data" xmlns="http://www.w3.org/2000/svg" width="512" height="512" viewBox="0 0 512 512">
  <g id="Group_2" data-name="Group 2">
    <g id="Group_1" data-name="Group 1">
      <path id="Path_1" data-name="Path 1" d="M59.733,34.133H51.2a8.534,8.534,0,0,0,0,17.067h8.533a8.534,8.534,0,0,0,0-17.067Z" fill="var(--mainColor)"/>
      <path id="Path_2" data-name="Path 2" d="M102.4,34.133H93.867a8.533,8.533,0,0,0,0,17.066H102.4a8.533,8.533,0,0,0,0-17.066Z" fill="var(--mainColor)"/>
      <path id="Path_3" data-name="Path 3" d="M145.067,34.133h-8.533a8.533,8.533,0,1,0,0,17.066h8.533a8.533,8.533,0,1,0,0-17.066Z" fill="var(--mainColor)"/>
      <path id="Path_4" data-name="Path 4" d="M409.6,34.133H179.2a8.533,8.533,0,1,0,0,17.066H409.6a8.533,8.533,0,0,0,0-17.066Z" fill="var(--mainColor)"/>
      <path id="Path_5" data-name="Path 5" d="M494.933,307.2H486.4V264.533a93.424,93.424,0,0,0-25.6-64.222V42.667A42.717,42.717,0,0,0,418.133,0H42.667A42.717,42.717,0,0,0,0,42.667V384a42.719,42.719,0,0,0,42.667,42.667h230.4v25.6A59.8,59.8,0,0,0,332.8,512H452.267A59.8,59.8,0,0,0,512,452.267v-128A17.067,17.067,0,0,0,494.933,307.2Zm-25.6-42.667V307.2h-153.6V264.533a76.8,76.8,0,0,1,153.6,0ZM17.067,42.667a25.6,25.6,0,0,1,25.6-25.6H418.134a25.6,25.6,0,0,1,25.6,25.6v25.6H17.067Zm256,281.6V409.6H42.667a25.6,25.6,0,0,1-25.6-25.6V85.333H443.734V185.958a93.747,93.747,0,0,0-145.067,78.575V307.2h-8.533A17.067,17.067,0,0,0,273.067,324.267Zm221.866,17.066h-25.6a8.533,8.533,0,0,0,0,17.066h25.6v17.067h-25.6a8.533,8.533,0,0,0,0,17.066h25.6V409.6h-25.6a8.533,8.533,0,0,0,0,17.066h25.6v17.067h-25.6a8.533,8.533,0,0,0,0,17.066H494.08a42.743,42.743,0,0,1-41.813,34.133H332.8A42.743,42.743,0,0,1,290.987,460.8h24.747a8.533,8.533,0,0,0,0-17.066h-25.6V426.666h25.6a8.533,8.533,0,0,0,0-17.066h-25.6V392.533h25.6a8.533,8.533,0,1,0,0-17.066h-25.6V358.4h25.6a8.533,8.533,0,1,0,0-17.066h-25.6V324.267h204.8v17.066Z" fill="var(--mainColor)"/>
      <path id="Path_6" data-name="Path 6" d="M384,416.563V435.2a8.533,8.533,0,0,0,17.066,0V416.563a25.583,25.583,0,1,0-17.066,0ZM392.533,384A8.533,8.533,0,1,1,384,392.533,8.533,8.533,0,0,1,392.533,384Z" fill="var(--mainColor)"/>
      <path id="Path_7" data-name="Path 7" d="M145.067,170.667a8.533,8.533,0,0,0-8.533,8.533v25.6H68.267V136.533H102.4a8.533,8.533,0,0,0,0-17.066H68.267A17.067,17.067,0,0,0,51.2,136.534V204.8a17.067,17.067,0,0,0,17.067,17.067h68.267A17.067,17.067,0,0,0,153.6,204.8V179.2A8.535,8.535,0,0,0,145.067,170.667Z" fill="var(--mainColor)"/>
      <path id="Path_8" data-name="Path 8" d="M91.366,156.1A8.533,8.533,0,0,0,79.3,168.166l17.067,17.067a8.533,8.533,0,0,0,6.033,2.5h.384a8.535,8.535,0,0,0,6.17-3.055l42.667-51.2a8.537,8.537,0,1,0-13.108-10.94L101.82,166.57Z" fill="var(--mainColor)"/>
      <path id="Path_9" data-name="Path 9" d="M145.067,315.733a8.533,8.533,0,0,0-8.533,8.533v25.6H68.267V281.6H102.4a8.533,8.533,0,1,0,0-17.066H68.267A17.067,17.067,0,0,0,51.2,281.6v68.267a17.067,17.067,0,0,0,17.067,17.067h68.267A17.067,17.067,0,0,0,153.6,349.868v-25.6A8.536,8.536,0,0,0,145.067,315.733Z" fill="var(--mainColor)"/>
      <path id="Path_10" data-name="Path 10" d="M91.366,301.167A8.533,8.533,0,0,0,79.3,313.233L96.367,330.3a8.533,8.533,0,0,0,6.033,2.5h.384a8.535,8.535,0,0,0,6.17-3.055l42.667-51.2a8.536,8.536,0,0,0-13.108-10.939L101.82,311.638Z" fill="var(--mainColor)"/>
      <path id="Path_11" data-name="Path 11" d="M187.733,145.067H256A8.534,8.534,0,0,0,256,128H187.733a8.534,8.534,0,0,0,0,17.067Z" fill="var(--mainColor)"/>
      <path id="Path_12" data-name="Path 12" d="M307.2,179.2a8.533,8.533,0,0,0-8.533-8.533H187.733a8.533,8.533,0,1,0,0,17.066H298.666A8.533,8.533,0,0,0,307.2,179.2Z" fill="var(--mainColor)"/>
      <path id="Path_13" data-name="Path 13" d="M256,273.067H187.733a8.533,8.533,0,1,0,0,17.066H256a8.533,8.533,0,0,0,0-17.066Z" fill="var(--mainColor)"/>
      <path id="Path_14" data-name="Path 14" d="M247.467,315.733H187.734a8.533,8.533,0,1,0,0,17.066h59.733a8.533,8.533,0,1,0,0-17.066Z" fill="var(--mainColor)"/>
    </g>
  </g>
</svg>
