<svg xmlns="http://www.w3.org/2000/svg" width="38.018" height="38.018" viewBox="0 0 38.018 38.018">
  <defs>
    <style>
      .cls-1, .cls-2 {
        fill: none;
        stroke-linecap: round;
        stroke-linejoin: round;
        stroke-miterlimit: 10;
        stroke-width: 1.2px;
      }

      .cls-1 {
        stroke: #800202;
      }

      .cls-2 {
        stroke: #e35f59;
      }
    </style>
  </defs>
  <g id="marketing" transform="translate(-2.4 0.6)">
    <g id="Group_40097" data-name="Group 40097" transform="translate(0 0)">
      <g id="Group_40096" data-name="Group 40096" transform="translate(0 0)">
        <g id="Group_40095" data-name="Group 40095" transform="translate(3)">
          <path id="Path_38198" data-name="Path 38198" class="cls-1" d="M99.537,259.447a1.674,1.674,0,1,1,0-3.347h2.231" transform="translate(-92.169 -237.684)"/>
          <path id="Path_38199" data-name="Path 38199" class="cls-1" d="M150.576,235l2.364-1.478a1.372,1.372,0,0,1,2.1,1.163v3.976a1.372,1.372,0,0,1-2.1,1.163l-2.364-1.478Z" transform="translate(-140.977 -216.582)"/>
          <path id="Path_38200" data-name="Path 38200" class="cls-1" d="M120.454,301.282v2.789a1.116,1.116,0,1,0,2.231,0v-2.789Z" transform="translate(-113.086 -279.519)"/>
          <path id="Path_38201" data-name="Path 38201" class="cls-2" d="M20.692,44.318h16.56a7.065,7.065,0,0,0,7.066-7.066V14.566A7.065,7.065,0,0,0,37.252,7.5H14.566A7.065,7.065,0,0,0,7.5,14.566V37.252a7.065,7.065,0,0,0,7.066,7.066H21.2" transform="translate(-7.5 -7.5)"/>
          <line id="Line_323" data-name="Line 323" class="cls-2" x2="36.818" transform="translate(0 7.81)"/>
          <circle id="Ellipse_42" data-name="Ellipse 42" class="cls-2" cx="1.116" cy="1.116" r="1.116" transform="translate(29.566 2.789)"/>
          <circle id="Ellipse_43" data-name="Ellipse 43" class="cls-2" cx="1.116" cy="1.116" r="1.116" transform="translate(24.545 2.789)"/>
          <circle id="Ellipse_44" data-name="Ellipse 44" class="cls-2" cx="1.116" cy="1.116" r="1.116" transform="translate(19.524 2.789)"/>
          <path id="Path_38202" data-name="Path 38202" class="cls-1" d="M82.327,165.64h3.408a3.484,3.484,0,0,1,3.483,3.483v12a3.484,3.484,0,0,1-3.483,3.483H78.7a3.576,3.576,0,0,0-2.528,1.047l-1.455,1.455-1.455-1.455a3.576,3.576,0,0,0-2.528-1.047H63.693a3.484,3.484,0,0,1-3.483-3.483v-12a3.484,3.484,0,0,1,3.483-3.483H82.327" transform="translate(-56.305 -153.925)"/>
          <path id="Path_38203" data-name="Path 38203" class="cls-1" d="M258.418,223.091h-7.624a2.324,2.324,0,0,1-2.324-2.324v-7.624a2.324,2.324,0,0,1,2.324-2.324h7.624a2.324,2.324,0,0,1,2.324,2.324v7.624A2.324,2.324,0,0,1,258.418,223.091Z" transform="translate(-231.619 -195.756)"/>
          <path id="Path_38204" data-name="Path 38204" class="cls-1" d="M278.591,252.375l1.674-3.9,1.674,3.9" transform="translate(-259.509 -230.619)"/>
          <path id="Path_38205" data-name="Path 38205" class="cls-1" d="M354.173,252.375h-.279v-3.9h.279a1.952,1.952,0,0,1,0,3.9Z" transform="translate(-329.233 -230.619)"/>
          <line id="Line_324" data-name="Line 324" class="cls-1" x1="2.391" transform="translate(19.561 20.64)"/>
          <line id="Line_325" data-name="Line 325" class="cls-1" x2="7.81" transform="translate(19.082 24.545)"/>
        </g>
      </g>
    </g>
  </g>
</svg>
