<svg id="_017-development" data-name="017-development" xmlns="http://www.w3.org/2000/svg" width="512" height="512" viewBox="0 0 512 512">
  <g id="Group_2" data-name="Group 2">
    <g id="Group_1" data-name="Group 1">
      <path id="Path_11" data-name="Path 11" d="M502,0H343.13a10,10,0,0,0-7.071,17.071l37.42,37.42L247.533,180.437,131.215,64.119a10,10,0,0,0-14.143,0L2.955,178.236A10,10,0,1,0,17.1,192.379L124.144,85.333,263.453,224.642A10,10,0,1,0,277.6,210.5L261.676,194.58,387.621,68.634l55.839,55.839L341.967,225.967a10,10,0,1,0,14.142,14.143L457.6,138.616l37.326,37.326A10,10,0,0,0,512,168.871V10A10,10,0,0,0,502,0ZM492,144.728,367.272,20H492Z" fill="var(--mainColor)"/>
    </g>
  </g>
  <g id="Group_4" data-name="Group 4">
    <g id="Group_3" data-name="Group 3">
      <path id="Path_12" data-name="Path 12" d="M331.359,250.72a9.991,9.991,0,1,0,2.931,7.07A10.029,10.029,0,0,0,331.359,250.72Z" fill="var(--mainColor)"/>
    </g>
  </g>
  <g id="Group_6" data-name="Group 6">
    <g id="Group_5" data-name="Group 5">
      <path id="Path_13" data-name="Path 13" d="M192.487,265.355l-54.2-54.2,16.139-16.139a10,10,0,1,0-14.142-14.142L2.951,318.2a10,10,0,1,0,14.142,14.143L124.143,225.3l54.2,54.2a10,10,0,0,0,14.142-14.143Z" fill="var(--mainColor)"/>
    </g>
  </g>
  <g id="Group_8" data-name="Group 8">
    <g id="Group_7" data-name="Group 7">
      <path id="Path_14" data-name="Path 14" d="M256.467,366.9H256a10,10,0,0,0,0,20h.395a10,10,0,0,0,.072-20Z" fill="var(--mainColor)"/>
    </g>
  </g>
  <g id="Group_10" data-name="Group 10">
    <g id="Group_9" data-name="Group 9">
      <path id="Path_15" data-name="Path 15" d="M502,492H484.46V447.187a10,10,0,0,0-7.583-9.7L430.4,425.9l-16.662-40.2,24.674-41.047a10,10,0,0,0-1.5-12.224l-38.754-38.754a10,10,0,0,0-12.224-1.5L344.885,316.85l-40.2-16.661L293.1,253.71a10,10,0,0,0-9.7-7.583H228.6a10,10,0,0,0-9.7,7.583l-11.58,46.479-40.2,16.661-41.048-24.674a10,10,0,0,0-12.224,1.5L75.089,332.43a10,10,0,0,0-1.5,12.224L98.264,385.7,81.6,425.9l-46.479,11.58a10,10,0,0,0-7.583,9.7V492H10a10,10,0,0,0,0,20H502a10,10,0,0,0,0-20Zm-37.542,0h-102.2a107.754,107.754,0,0,0-67.836-118.036,10,10,0,0,0-7.125,18.687A87.757,87.757,0,0,1,341.931,492H170.061a87.759,87.759,0,0,1,54.968-99.474,10,10,0,0,0-7.049-18.717A107.753,107.753,0,0,0,149.735,492H47.54V455l43.788-10.909a10,10,0,0,0,6.821-5.875L118.67,388.7a10,10,0,0,0-.668-8.98L94.756,341.047l27.7-27.7,38.672,23.246a9.994,9.994,0,0,0,8.98.668l49.519-20.521a10,10,0,0,0,5.875-6.821l10.909-43.788h39.17l10.909,43.788a10,10,0,0,0,5.875,6.821l49.519,20.521a9.991,9.991,0,0,0,8.98-.668l38.672-23.246,27.7,27.7L394,379.718a10,10,0,0,0-.668,8.98l20.521,49.52a10,10,0,0,0,6.821,5.875L464.458,455Z" fill="var(--mainColor)"/>
    </g>
  </g>
</svg>
