<svg id="_019-financial" data-name="019-financial" xmlns="http://www.w3.org/2000/svg" width="128" height="128" viewBox="0 0 128 128">
  <path id="Path_1" data-name="Path 1" d="M57.6,19.2h14v4h-14Z" fill="var(--mainColor)"/>
  <path id="Path_2" data-name="Path 2" d="M31,101.5a3.631,3.631,0,0,0-1.2-2.8l-.7-.7,3.6-3.6a25,25,0,0,0,33.9-1.3A25.032,25.032,0,0,0,31.2,57.7a24.882,24.882,0,0,0-7.3,17.7,24.593,24.593,0,0,0,6,16.2l-3.6,3.6-.7-.7a3.984,3.984,0,0,0-5.7,0L1.6,112.8a3.949,3.949,0,0,0-1.2,2.8,3.631,3.631,0,0,0,1.2,2.8l4.2,4.2a3.867,3.867,0,0,0,5.6,0l18.4-18.4.1-.1c.1-.1.2-.3.3-.4a3.008,3.008,0,0,0,.8-2.2Zm3.1-41.1a20.9,20.9,0,0,1,14.8-6.1,20.561,20.561,0,0,1,14.8,6.1,21,21,0,1,1-29.6,0ZM8.7,119.8l-4.2-4.2L22.9,97.2l4.2,4.2Z" fill="var(--mainColor)"/>
  <path id="Path_3" data-name="Path 3" d="M122,56H86a6.018,6.018,0,0,0-6,6v60a6.018,6.018,0,0,0,6,6h36a6.018,6.018,0,0,0,6-6V62A6.018,6.018,0,0,0,122,56Zm2,66a2.006,2.006,0,0,1-2,2H86a2.006,2.006,0,0,1-2-2V62a2.006,2.006,0,0,1,2-2h36a2.006,2.006,0,0,1,2,2Z" fill="var(--mainColor)"/>
  <path id="Path_4" data-name="Path 4" d="M116,64H92a4.012,4.012,0,0,0-4,4V78a4.012,4.012,0,0,0,4,4h24a4.012,4.012,0,0,0,4-4V68A4.012,4.012,0,0,0,116,64Zm0,14H92V68h24Z" fill="var(--mainColor)"/>
  <path id="Path_5" data-name="Path 5" d="M116,86H92a4.012,4.012,0,0,0-4,4v26a4.012,4.012,0,0,0,4,4h24a4.012,4.012,0,0,0,4-4V90A4.012,4.012,0,0,0,116,86Zm0,10H106V90h10Zm-14,4v6H92v-6Zm4,6v-6h10v6Zm-4-16v6H92V90ZM92,110h10v6H92Zm14,6v-6h10v6Z" fill="var(--mainColor)"/>
  <path id="Path_6" data-name="Path 6" d="M21,42A21,21,0,1,0,0,21,21,21,0,0,0,21,42ZM21,4A17,17,0,1,1,4,21,16.986,16.986,0,0,1,21,4Z" fill="var(--mainColor)"/>
  <path id="Path_7" data-name="Path 7" d="M16.5,26a2,2,0,0,0,0,4h2v2a2,2,0,0,0,4,0V30h1a4.012,4.012,0,0,0,4-4V23a4.012,4.012,0,0,0-4-4h-5V16h7a2,2,0,0,0,0-4h-2V10a2,2,0,0,0-4,0v2h-1a4.012,4.012,0,0,0-4,4v3a4.012,4.012,0,0,0,4,4h5v3Z" fill="var(--mainColor)"/>
  <path id="Path_8" data-name="Path 8" d="M97.6,51.2h6V52h4V49.2a2.006,2.006,0,0,0-2-2h-10a2.006,2.006,0,0,0-2,2V52h4Z" fill="var(--mainColor)"/>
  <path id="Path_9" data-name="Path 9" d="M49,104.3a30.873,30.873,0,0,1-8-1.1H34.8a7.649,7.649,0,0,1-2.2,3.9l-.1.1H76v-4H57A30.873,30.873,0,0,1,49,104.3Z" fill="var(--mainColor)"/>
  <path id="Path_10" data-name="Path 10" d="M6,97.2h5.5l4-4H6a2.006,2.006,0,0,1-2-2V39.3a23.2,23.2,0,0,1-4-4.8V91.1a6.04,6.04,0,0,0,6,6.1Z" fill="var(--mainColor)"/>
  <path id="Path_11" data-name="Path 11" d="M122,19.2H93.6v4H122a2.006,2.006,0,0,1,2,2v27a9.694,9.694,0,0,1,4,1.8V25.2A6.018,6.018,0,0,0,122,19.2Z" fill="var(--mainColor)"/>
  <path id="Path_12" data-name="Path 12" d="M69.5,95.8c-.5.5-1,.9-1.5,1.4h8v-4H71.8A28.48,28.48,0,0,1,69.5,95.8Z" fill="var(--mainColor)"/>
  <path id="Path_13" data-name="Path 13" d="M51.6,79.2H65.5a17.373,17.373,0,0,0,.5-3.9v-.1H61.6V63.9c-.2-.2-.4-.5-.6-.7a17.04,17.04,0,0,0-3.4-2.6V75.1h-4V58.9a13.858,13.858,0,0,0-4-.6V75.1h-6v-16a20.883,20.883,0,0,0-4,1.9V75.1h-4V64.8A17.106,17.106,0,0,0,32,75.3a17.373,17.373,0,0,0,.5,3.9H51.6Z" fill="var(--mainColor)"/>
  <path id="Path_14" data-name="Path 14" d="M35.6,49.6v-.4a2.006,2.006,0,0,0-2-2h-10a2.006,2.006,0,0,0-2,2V65.7a29.162,29.162,0,0,1,4-7.6v-7h6V52A32.575,32.575,0,0,1,35.6,49.6Z" fill="var(--mainColor)"/>
  <path id="Path_15" data-name="Path 15" d="M15.6,75.2a2,2,0,1,0,0,4h4.6a25.612,25.612,0,0,1-.3-3.9v-.1Z" fill="var(--mainColor)"/>
  <path id="Path_16" data-name="Path 16" d="M39.6,47.8a26,26,0,0,1,4-1V31.7a24.172,24.172,0,0,1-4,6Z" fill="var(--mainColor)"/>
  <path id="Path_17" data-name="Path 17" d="M49.6,11.2V46.4a17.518,17.518,0,0,1,4,.4V9.2a2.006,2.006,0,0,0-2-2H41.8a31.133,31.133,0,0,1,2.2,4Z" fill="var(--mainColor)"/>
  <path id="Path_18" data-name="Path 18" d="M61.6,31.2h6V53.1c.6.5,1.3,1.1,1.9,1.7a22.528,22.528,0,0,1,2.1,2.4v-28a2.006,2.006,0,0,0-2-2h-10a2.006,2.006,0,0,0-2,2V47.6a27.805,27.805,0,0,1,4,1.6Z" fill="var(--mainColor)"/>
  <path id="Path_19" data-name="Path 19" d="M85.6,52h4V9.2a2.006,2.006,0,0,0-2-2h-10a2.006,2.006,0,0,0-2,2V63.9c.1.3.3.7.4,1V62a10.1,10.1,0,0,1,3.6-7.7V11.2h6Z" fill="var(--mainColor)"/>
</svg>
