<svg id="branding" xmlns="http://www.w3.org/2000/svg" width="34.955" height="34.955" viewBox="0 0 34.955 34.955">
  <defs>
    <style>
      .cls-1 {
        fill: #30c578;
      }

      .cls-2 {
        fill: #217950;
      }
    </style>
  </defs>
  <path id="Path_38206" data-name="Path 38206" class="cls-1" d="M33.033,22.549H23.409V19.525h2.514a.512.512,0,0,0,.512-.512v-7a.512.512,0,0,0-.512-.512H23.409V7.023a.512.512,0,0,0-.137-.349L17.676.663A.512.512,0,0,0,17.3.5H.512A.512.512,0,0,0,0,1.012V29.846a.512.512,0,0,0,1.024,0V1.524H16.737V6.956a.512.512,0,0,0,.512.512h5.135V11.5h-8.1a.512.512,0,0,0-.512.512v7a.512.512,0,0,0,.512.512h8.1v3.024H18.567a.512.512,0,0,0,0,1.024H32.8l-9.769,4.52a.682.682,0,0,1-.592-.006l-9.314-4.514h6.337a.512.512,0,0,0,0-1.024H12.91a1.925,1.925,0,0,0-1.922,1.922v7.293H1.024v-2.25a.512.512,0,0,0-1.024,0v2.762a.512.512,0,0,0,.512.512H10.988v.744a1.924,1.924,0,0,0,1.922,1.922H33.033a1.924,1.924,0,0,0,1.922-1.922V24.472A1.925,1.925,0,0,0,33.033,22.549ZM17.762,2.259l3.9,4.185h-3.9ZM14.8,12.524H25.411V18.5H14.8ZM33.931,33.533a.9.9,0,0,1-.9.9H12.91a.9.9,0,0,1-.9-.9V32.459a.506.506,0,0,0,0-.365V24.472a.892.892,0,0,1,.056-.31.5.5,0,0,0,.15.111L21.99,29.01a1.709,1.709,0,0,0,1.469.013l10.258-4.745a.506.506,0,0,0,.159-.115.889.889,0,0,1,.056.309v9.061Zm0,0" transform="translate(0 -0.5)"/>
  <path id="Path_38207" data-name="Path 38207" class="cls-1" d="M418.875,10.274a.512.512,0,0,0,.512-.512V6.256h.769V18.282a1.662,1.662,0,0,0,3.32,0V12.366a.512.512,0,0,0-1.024,0v5.916a.639.639,0,0,1-1.272,0V6.256h1.272v7.1a.512.512,0,0,0,1.024,0v-7.1a.512.512,0,0,0,0-1.024V2.46a1.662,1.662,0,0,0-3.32,0V5.232h-1.281a.512.512,0,0,0-.512.512V9.761A.512.512,0,0,0,418.875,10.274Zm2.306-7.813a.639.639,0,0,1,1.271,0V5.232h-1.271Zm0,0" transform="translate(-389.801 -0.862)"/>
  <path id="Path_38208" data-name="Path 38208" class="cls-2" d="M206.275,418.379h-3.092a.512.512,0,0,0-.443.768l1.546,2.677a.512.512,0,0,0,.887,0l1.546-2.677a.512.512,0,0,0-.443-.768Zm-1.546,2.165-.659-1.141h1.317Zm0,0" transform="translate(-188.834 -389.85)"/>
  <path id="Path_38209" data-name="Path 38209" class="cls-2" d="M50.725,51.018a.512.512,0,0,0,.444-.256l1.546-2.677a.516.516,0,0,0-.443-.768H49.179a.516.516,0,0,0-.443.768l1.546,2.677A.512.512,0,0,0,50.725,51.018Zm.659-2.677-.659,1.141-.659-1.141Zm0,0" transform="translate(-45.346 -44.12)"/>
  <path id="Path_38210" data-name="Path 38210" class="cls-2" d="M269.569,194.934h-2.831a.512.512,0,0,0-.444.768l1.416,2.452a.512.512,0,0,0,.887,0l1.416-2.452a.512.512,0,0,0-.443-.768Zm-1.416,1.94-.528-.916h1.057Zm0,0" transform="translate(-248.05 -181.659)"/>
  <path id="Path_38211" data-name="Path 38211" class="cls-2" d="M125.672,52.442h3.346a.512.512,0,0,0,0-1.024h-3.346A.512.512,0,0,0,125.672,52.442Zm0,0" transform="translate(-116.631 -47.942)"/>
  <path id="Path_38212" data-name="Path 38212" class="cls-2" d="M125.672,83.45h4.848a.512.512,0,0,0,0-1.024h-4.848A.512.512,0,0,0,125.672,83.45Zm0,0" transform="translate(-116.631 -76.833)"/>
  <path id="Path_38213" data-name="Path 38213" class="cls-2" d="M387.719,423.508h3.346a.512.512,0,0,0,0-1.024h-3.346A.512.512,0,0,0,387.719,423.508Zm0,0" transform="translate(-360.787 -393.675)"/>
  <path id="Path_38214" data-name="Path 38214" class="cls-2" d="M392.567,453.488h-4.848a.512.512,0,0,0,0,1.024h4.848A.512.512,0,0,0,392.567,453.488Zm0,0" transform="translate(-360.787 -422.562)"/>
</svg>
