<svg xmlns="http://www.w3.org/2000/svg" width="36.339" height="32.062" viewBox="0 0 36.339 32.062">
  <defs>
    <style>
      .cls-1 {
        fill: var(--mainColor);
      }

      .cls-2 {
        fill: #0c44a8;
      }
    </style>
  </defs>
  <g id="web-programming" transform="translate(0)">
    <path id="Path_38186" data-name="Path 38186" class="cls-1" d="M119.482,188.8a.6.6,0,0,1-.388-.143l-3.882-3.306a.6.6,0,0,1,0-.914l3.882-3.306a.6.6,0,1,1,.778.913l-3.346,2.849,3.346,2.849a.6.6,0,0,1-.389,1.057Zm0,0" transform="translate(-105.144 -165.477)"/>
    <path id="Path_38187" data-name="Path 38187" class="cls-1" d="M250.308,188.8a.6.6,0,0,1-.389-1.057l3.346-2.849-3.346-2.849a.6.6,0,0,1,.778-.913l3.882,3.306a.6.6,0,0,1,0,.914l-3.882,3.306A.6.6,0,0,1,250.308,188.8Zm0,0" transform="translate(-228.306 -165.477)"/>
    <path id="Path_38188" data-name="Path 38188" class="cls-1" d="M189.555,165.712a.61.61,0,0,1-.125-.013.6.6,0,0,1-.463-.711l2.42-11.488a.6.6,0,0,1,1.174.247l-2.42,11.488A.6.6,0,0,1,189.555,165.712Zm0,0" transform="translate(-172.759 -139.909)"/>
    <path id="Path_38189" data-name="Path 38189" class="cls-2" d="M32.311,32.062H4.028A4.033,4.033,0,0,1,0,28.033V4.028A4.033,4.033,0,0,1,4.028,0H32.311A4.033,4.033,0,0,1,36.34,4.028V28.033A4.033,4.033,0,0,1,32.311,32.062ZM4.028,1.2A2.832,2.832,0,0,0,1.2,4.028V28.033a2.832,2.832,0,0,0,2.828,2.828H32.311a2.832,2.832,0,0,0,2.828-2.828V4.028A2.832,2.832,0,0,0,32.311,1.2Zm0,0" transform="translate(0)"/>
    <path id="Path_38190" data-name="Path 38190" class="cls-2" d="M35.74,99.29H.6a.6.6,0,0,1,0-1.2H35.74a.6.6,0,0,1,0,1.2Zm0,0" transform="translate(0 -89.683)"/>
    <path id="Path_38191" data-name="Path 38191" class="cls-2" d="M99.348,38.086a1.9,1.9,0,1,1,1.9-1.9A1.9,1.9,0,0,1,99.348,38.086Zm0-2.6a.7.7,0,1,0,.7.7A.7.7,0,0,0,99.348,35.489Zm0,0" transform="translate(-89.097 -31.35)"/>
    <path id="Path_38192" data-name="Path 38192" class="cls-2" d="M31.285,37.871a1.9,1.9,0,1,1,1.9-1.9A1.9,1.9,0,0,1,31.285,37.871Zm0-2.6a.7.7,0,1,0,.7.7A.7.7,0,0,0,31.285,35.274Zm0,0" transform="translate(-26.868 -31.154)"/>
    <path id="Path_38193" data-name="Path 38193" class="cls-2" d="M167.414,38.3a1.9,1.9,0,1,1,1.9-1.9A1.9,1.9,0,0,1,167.414,38.3Zm0-2.6a.7.7,0,1,0,.7.7A.7.7,0,0,0,167.414,35.7Zm0,0" transform="translate(-151.33 -31.547)"/>
  </g>
</svg>
