<svg xmlns="http://www.w3.org/2000/svg" width="54.678" height="55.46" viewBox="0 0 54.678 55.46">
  <g id="developing" transform="translate(-1 -0.113)">
    <circle id="Ellipse_102" data-name="Ellipse 102" cx="0.882" cy="0.882" r="0.882" transform="translate(27.457 25.588)" fill="#1aa1ed"/>
    <path id="Path_38414" data-name="Path 38414" d="M30.465,32.638A4.4,4.4,0,0,0,34.139,25.8l2.716-2.716a4.423,4.423,0,1,0-1.247-1.247l-2.716,2.716a4.4,4.4,0,0,0-6.748,2.793H24.129a2.646,2.646,0,1,0,0,1.764h2.015a4.418,4.418,0,0,0,4.32,3.528Zm8.819-15.874a2.646,2.646,0,1,1-2.646,2.646A2.649,2.649,0,0,1,39.284,16.764Zm-8.819,8.819a2.646,2.646,0,1,1-2.646,2.646A2.649,2.649,0,0,1,30.465,25.583ZM21.646,29.11a.882.882,0,1,1,.882-.882A.883.883,0,0,1,21.646,29.11Z" transform="translate(-2.126 -1.758)" fill="#1aa1ed"/>
    <circle id="Ellipse_103" data-name="Ellipse 103" cx="0.882" cy="0.882" r="0.882" transform="translate(36.276 16.769)" fill="#1aa1ed"/>
    <path id="Path_38415" data-name="Path 38415" d="M2.195,45.714H4.669v7.055H6.433V43.95H5.379L8.2,39.441l2.818,4.509H9.96V59.824h1.764V45.714H14.2l-6-9.6Z" transform="translate(-0.141 -4.252)" fill="#1aa1ed"/>
    <path id="Path_38416" data-name="Path 38416" d="M5,57H6.764v5.291H5Z" transform="translate(-0.472 -6.719)" fill="#1aa1ed"/>
    <path id="Path_38417" data-name="Path 38417" d="M50.669,11.478h1.764V7.95H51.379L54.2,3.441,57.014,7.95H55.96V23.824h1.764V9.714H60.2l-6-9.6-6,9.6h2.474Z" transform="translate(-5.574 0)" fill="#1aa1ed"/>
    <path id="Path_38418" data-name="Path 38418" d="M54.809,37.148A2.519,2.519,0,0,1,53.174,33.2l.512-.716-4.8-4.8-.717.512a2.489,2.489,0,0,1-2.065.376,17.334,17.334,0,0,0,.739-4.644h.014V13.347H45.095v2.632A17.236,17.236,0,0,0,29.625,6.291H27.052a17.277,17.277,0,0,0-3.018.281L19.583,2.122,18.3,3.408a.824.824,0,0,1-.913.162.81.81,0,0,1-.51-.75V1H9.819V2.819A.842.842,0,0,1,8.4,3.408L7.111,2.122,2.122,7.11,3.408,8.4a.823.823,0,0,1,.163.913.813.813,0,0,1-.751.509H1v7.055H2.819a.822.822,0,0,1,.76.533.813.813,0,0,1-.173.89L2.122,19.583,7.11,24.571,8.4,23.285a.824.824,0,0,1,.913-.162.81.81,0,0,1,.51.75h.012a17.131,17.131,0,0,0,9.514,15.065l1.057.528v2.1a1.766,1.766,0,0,0,1.764,1.764h3.528v.748l.872.145a2.487,2.487,0,0,1,1.5.871h-5.9A1.766,1.766,0,0,0,20.4,46.859v.882a7.931,7.931,0,0,0,14.114,4.973,2.529,2.529,0,0,1,1.117.184A2.491,2.491,0,0,1,37.147,54.8l.146.873H44.08l.142-.868a2.52,2.52,0,0,1,3.949-1.635l.717.512,4.8-4.8-.511-.714a2.519,2.519,0,0,1,1.629-3.95l.873-.145V37.293Zm-20.3,7.947H34.1a7.867,7.867,0,0,1-.89-1.764h1.3a1.736,1.736,0,0,0,.556-.1,6.171,6.171,0,1,0,7.573-8.405,17.172,17.172,0,0,0,1.138-1.452,7.936,7.936,0,1,1-7.5,13.9v-.421A1.766,1.766,0,0,0,34.512,45.095Zm3.528-8.6a15.7,15.7,0,0,1-1.5.863l-.268.134v-11.8H38.04Zm-1.764,2.969,1.057-.528a17.394,17.394,0,0,0,3.841-2.616,4.4,4.4,0,1,1-4.9,4.363ZM7.15,22.037l-.04.04L4.617,19.582l.039-.039A2.606,2.606,0,0,0,2.819,15.11H2.764V11.583h.056A2.606,2.606,0,0,0,4.655,7.15l-.039-.04L7.111,4.616l.04.039a2.606,2.606,0,0,0,4.432-1.835V2.764H15.11v.056a2.607,2.607,0,0,0,4.433,1.837l.04-.04,2.431,2.431a17.105,17.105,0,0,0-3.484,1.52,7.047,7.047,0,1,0-8.262,11.108,16.886,16.886,0,0,0-.316,1.805,2.573,2.573,0,0,0-2.8.556Zm5.114-7.315a1.752,1.752,0,0,1,1.082-3.139,1.745,1.745,0,0,1,1.007.332A17.282,17.282,0,0,0,12.264,14.721Zm3.36-4.061a3.52,3.52,0,1,0-4.2,5.635,17.229,17.229,0,0,0-.67,1.661,5.285,5.285,0,1,1,6.253-8.41,17.38,17.38,0,0,0-1.387,1.114Zm4.509,26.7a15.778,15.778,0,0,1-1.5-.863V32.748H20.4v4.746Zm-3.259-6.376v4.188A15.468,15.468,0,0,1,27.052,8.055h2.573A15.468,15.468,0,0,1,39.8,35.173V23.929H34.512V41.567H30.984V32.748H25.693v8.819H22.165V30.984ZM29.221,41.567H27.457V34.512h1.764Zm.882,3.5a4.24,4.24,0,0,0-1.352-1.735h2.613a9.68,9.68,0,0,0,.7,1.764H30.111c0-.01-.005-.019-.009-.029Zm-1.764,8.848a6.181,6.181,0,0,1-6.173-6.173v-.882H34.512v.882A6.181,6.181,0,0,1,28.339,53.914ZM53.914,42.628a4.285,4.285,0,0,0-2.5,6.037l-2.75,2.749a4.285,4.285,0,0,0-6.036,2.5H38.742a4.192,4.192,0,0,0-3.2-2.871,7.876,7.876,0,0,0,.581-1.794,9.6,9.6,0,0,0,4.558,1.139,9.7,9.7,0,0,0,4.029-18.521,16.972,16.972,0,0,0,.783-1.611,4.25,4.25,0,0,0,3.167-.3l2.749,2.749a4.285,4.285,0,0,0,2.5,6.037Z" transform="translate(0 -0.105)" fill="#1aa1ed"/>
  </g>
</svg>
