<svg xmlns="http://www.w3.org/2000/svg" width="57.742" height="63.377" viewBox="0 0 57.742 63.377">
  <path id="customer-review" d="M80.6,48.234h0a10.149,10.149,0,0,0,2.315-6.646,6.794,6.794,0,1,0-13.588,0,11.042,11.042,0,0,0,1.516,5.565,7.834,7.834,0,0,0,.8,1.08h0a7.493,7.493,0,0,0-4.4,1.42,10.737,10.737,0,0,0-1.746-.145H64.342a10.243,10.243,0,0,0,1.825-2.172,15.243,15.243,0,0,0,2.218-7.99,9.442,9.442,0,1,0-18.884,0,15.617,15.617,0,0,0,2.141,7.871,10.232,10.232,0,0,0,1.891,2.292H52.4a10.735,10.735,0,0,0-1.746.145,7.493,7.493,0,0,0-4.4-1.42h0a7.835,7.835,0,0,0,.8-1.08,11.043,11.043,0,0,0,1.516-5.565,6.792,6.792,0,0,0-13.585,0,10.156,10.156,0,0,0,2.314,6.646h-.006A7.006,7.006,0,0,0,30.073,55v7.846A1.022,1.022,0,0,0,31.1,63.869H42.352v6.486a1.022,1.022,0,0,0,1.022,1.022H74.51a1.022,1.022,0,0,0,1.022-1.022V63.869H86.792a1.022,1.022,0,0,0,1.022-1.022V55A7.008,7.008,0,0,0,80.6,48.234ZM71.37,41.589a4.75,4.75,0,1,1,9.5,0c0,2.569-1.291,6.646-4.752,6.646S71.37,44.158,71.37,41.589ZM58.941,31.947a7.408,7.408,0,0,1,7.4,7.4c0,.053,0,.107,0,.16a15.28,15.28,0,0,1-8.627-3.562,1.022,1.022,0,0,0-1.16-.07L51.561,38.9a7.406,7.406,0,0,1,7.381-6.949Zm-5.558,14.2a13.08,13.08,0,0,1-1.7-4.932l5.333-3.229a17.058,17.058,0,0,0,9.143,3.559,12.736,12.736,0,0,1-1.714,4.7,6.46,6.46,0,0,1-5.5,3.271,6.316,6.316,0,0,1-5.558-3.364ZM37.017,41.589a4.748,4.748,0,1,1,9.5,0c0,2.569-1.289,6.646-4.748,6.646S37.017,44.158,37.017,41.589Zm-4.9,20.236V55a4.964,4.964,0,0,1,5.164-4.723h8.968a5.554,5.554,0,0,1,1.625.243,9.369,9.369,0,0,0-5.523,8.392v2.911Zm41.37,7.509H68.305v-6.3a1.022,1.022,0,0,0-2.044,0v6.3H51.625v-6.3a1.022,1.022,0,0,0-2.044,0v6.3H44.4V58.913c0-4.058,3.591-7.359,8-7.359H65.483c4.413,0,8,3.3,8,7.359Zm12.283-7.509H75.531V58.913a9.37,9.37,0,0,0-5.523-8.392,5.553,5.553,0,0,1,1.625-.243H80.6A4.966,4.966,0,0,1,85.769,55ZM53.261,20.172l-.8,5.533a1.022,1.022,0,0,0,1.463,1.063L58.941,24.3l5.018,2.469A1.022,1.022,0,0,0,65.422,25.7l-.8-5.533,3.9-4.008a1.022,1.022,0,0,0-.558-1.72l-5.51-.954L59.845,8.545a1.022,1.022,0,0,0-1.808,0l-2.605,4.945-5.51.954a1.022,1.022,0,0,0-.558,1.72Zm3.015-4.753a1.022,1.022,0,0,0,.73-.531l1.935-3.674,1.939,3.675a1.022,1.022,0,0,0,.73.53l4.1.709-2.9,2.979a1.022,1.022,0,0,0-.279.859l.593,4.112-3.73-1.835a1.022,1.022,0,0,0-.9,0l-3.726,1.834.593-4.111a1.022,1.022,0,0,0-.279-.859l-2.9-2.979ZM34.289,21.9l-.548,3.809A1.022,1.022,0,0,0,35.2,26.768l3.453-1.7,3.449,1.7a1.022,1.022,0,0,0,1.464-1.062L43.023,21.9l2.684-2.758a1.022,1.022,0,0,0-.558-1.72l-3.793-.657-1.794-3.4a1.022,1.022,0,0,0-1.808,0l-1.8,3.4-3.79.657a1.022,1.022,0,0,0-.559,1.72ZM36.8,18.69a1.022,1.022,0,0,0,.729-.53l1.127-2.134,1.124,2.134a1.022,1.022,0,0,0,.73.531l2.378.412-1.683,1.729a1.022,1.022,0,0,0-.279.858l.343,2.386-2.161-1.065a1.022,1.022,0,0,0-.9,0L36.04,24.078l.343-2.387a1.022,1.022,0,0,0-.279-.858L34.424,19.1ZM74.86,21.9l-.547,3.809a1.022,1.022,0,0,0,1.464,1.062l3.453-1.7,3.453,1.7A1.022,1.022,0,0,0,84.146,25.7L83.595,21.9l2.684-2.758a1.022,1.022,0,0,0-.558-1.72l-3.793-.657-1.795-3.4a1.022,1.022,0,0,0-1.808,0l-1.8,3.4-3.79.657a1.022,1.022,0,0,0-.559,1.72Zm2.511-3.206a1.022,1.022,0,0,0,.729-.53l1.127-2.134,1.124,2.134a1.022,1.022,0,0,0,.73.531l2.378.412-1.683,1.729a1.022,1.022,0,0,0-.279.859l.345,2.386L79.68,23.011a1.023,1.023,0,0,0-.9,0l-2.165,1.066.343-2.387a1.022,1.022,0,0,0-.279-.858L74.995,19.1Z" transform="translate(-30.072 -8)" fill="#6455a5"/>
</svg>
