<svg xmlns="http://www.w3.org/2000/svg" xmlns:xlink="http://www.w3.org/1999/xlink" width="37.073" height="37.665" viewBox="0 0 37.073 37.665">
  <defs>
    <style>
      .cls-1 {
        fill: none;
      }

      .cls-2 {
        clip-path: url(#clip-path);
      }

      .cls-3 {
        fill: #b93164;
      }

      .cls-4 {
        fill: #e7598d;
      }
    </style>
    <clipPath id="clip-path">
      <rect class="cls-1" width="37.073" height="37.665"/>
    </clipPath>
  </defs>
  <g id="design" class="cls-2">
    <g id="design-2" data-name="design" transform="translate(-1 0.01)">
      <path id="Path_38305" data-name="Path 38305" class="cls-3" d="M48.775,24.356A.588.588,0,0,0,48.234,24H45.88a.588.588,0,0,0-.541.356l-5.3,12.358a.588.588,0,0,0,0,.471l2.266,5.087L41.2,45.588a.588.588,0,0,0,.559.774H52.353a.588.588,0,0,0,.559-.774l-1.106-3.316,2.263-5.087a.588.588,0,0,0,0-.471ZM47.057,34.887a1.765,1.765,0,1,1-1.765,1.765A1.765,1.765,0,0,1,47.057,34.887Zm-4.481,10.3.786-2.354h7.391l.786,2.354Zm8.218-3.531H43.32l-2.095-4.708,5.043-11.769h.2v8.592a2.942,2.942,0,1,0,1.177,0V25.177h.2l5.043,11.769Z" transform="translate(-27.52 -16.946)"/>
      <path id="Path_38306" data-name="Path 38306" class="cls-4" d="M37.485,16.764H36.14A16.792,16.792,0,0,0,25.715,3.524h4.522a1.765,1.765,0,1,0,0-1.177H22.42a2.942,2.942,0,0,0-5.767,0H8.841a1.765,1.765,0,1,0,0,1.177h4.516A16.792,16.792,0,0,0,2.933,16.764H1.588A.588.588,0,0,0,1,17.353v3.531a.588.588,0,0,0,.588.588H2.933a16.686,16.686,0,0,0,14.25,14.25v1.345a.588.588,0,0,0,.588.588H21.3a.588.588,0,0,0,.588-.588V35.722a16.686,16.686,0,0,0,14.25-14.25h1.345a.588.588,0,0,0,.588-.588V17.353A.588.588,0,0,0,37.485,16.764ZM31.894,2.347a.588.588,0,1,1-.588.588A.588.588,0,0,1,31.894,2.347ZM19.537,1.17a1.765,1.765,0,1,1-1.765,1.765A1.765,1.765,0,0,1,19.537,1.17ZM7.179,3.524a.588.588,0,1,1,.588-.588A.588.588,0,0,1,7.179,3.524Zm-5,14.417H4.531v2.354H2.177ZM20.714,36.478H18.36V34.124h2.354Zm1.177-1.945v-1a.588.588,0,0,0-.588-.588H17.771a.588.588,0,0,0-.588.588v1A15.512,15.512,0,0,1,4.122,21.472h1a.588.588,0,0,0,.588-.588V17.353a.588.588,0,0,0-.588-.588h-1A15.609,15.609,0,0,1,16.718,3.78a2.942,2.942,0,0,0,5.637,0,15.609,15.609,0,0,1,12.6,12.984h-1a.588.588,0,0,0-.588.588v3.531a.588.588,0,0,0,.588.588h1A15.509,15.509,0,0,1,21.89,34.533ZM36.9,20.295H34.542V17.941H36.9Z"/>
    </g>
  </g>
</svg>
