<svg xmlns="http://www.w3.org/2000/svg" width="394.949" height="480.09" viewBox="0 0 394.949 480.09">
  <path id="_005-productivity" data-name="005-productivity" d="M197.091,213.71a69.965,69.965,0,1,0,69.964,69.964,69.965,69.965,0,0,0-69.964-69.964Zm0,124.751a54.787,54.787,0,1,1,54.787-54.787,54.787,54.787,0,0,1-54.787,54.787ZM393.173,426.3a7.585,7.585,0,0,1-10.366,2.777l-38.665-22.323V348.629a7.589,7.589,0,0,1,15.178,0V398l31.08,17.936a7.589,7.589,0,0,1,2.773,10.364ZM452.46,206.879l-51.236-88.743a7.588,7.588,0,0,0-13.144,0l-51.236,88.743a7.589,7.589,0,0,0,6.572,11.383h28.32v92.649A93.512,93.512,0,0,0,297.2,326.317a107.625,107.625,0,0,0,4.693-13.336l27.213-3.748a7.59,7.59,0,0,0,6.553-7.518V265.633a7.589,7.589,0,0,0-6.553-7.518l-27.213-3.748a107.854,107.854,0,0,0-9.978-24.069l16.6-21.9a7.59,7.59,0,0,0-.682-9.949l-4.274-4.274a7.646,7.646,0,0,0,.118-1.292V119.921H332a7.589,7.589,0,0,0,6.573-11.383L287.33,19.794a7.589,7.589,0,0,0-13.144,0L222.95,108.538a7.589,7.589,0,0,0,6.572,11.383h28.32v63.341l-7.376,5.59A107.9,107.9,0,0,0,226.4,178.87l-3.747-27.21a7.59,7.59,0,0,0-7.518-6.554H179.051a7.589,7.589,0,0,0-7.518,6.553l-3.748,27.215a107.872,107.872,0,0,0-24.068,9.978l-21.9-16.6a7.59,7.59,0,0,0-9.95.682L86.352,198.449a7.587,7.587,0,0,0-.682,9.949l16.6,21.9a107.9,107.9,0,0,0-9.979,24.068l-27.213,3.749a7.589,7.589,0,0,0-6.553,7.518v36.081a7.59,7.59,0,0,0,6.552,7.518l27.214,3.748a107.943,107.943,0,0,0,9.978,24.07l-16.6,21.9a7.591,7.591,0,0,0,.682,9.95l25.513,25.513a7.588,7.588,0,0,0,9.95.682l21.9-16.6a107.87,107.87,0,0,0,24.069,9.981l3.748,27.211a7.588,7.588,0,0,0,7.518,6.553H215.13a7.589,7.589,0,0,0,7.518-6.553l3.748-27.214a107.89,107.89,0,0,0,24.052-9.97l9.182,7.006a93.634,93.634,0,1,0,157.936-49.633V218.262h28.32a7.589,7.589,0,0,0,6.572-11.383ZM242.666,104.743l38.092-65.976,38.092,65.976H296.085a7.589,7.589,0,0,0-7.589,7.589v66.783l-6.179-6.179a7.587,7.587,0,0,0-9.3-1.122V112.332a7.589,7.589,0,0,0-7.589-7.589Zm12.91,258.582a7.592,7.592,0,0,0-8.649-.387A92.834,92.834,0,0,1,217.9,374.972a7.588,7.588,0,0,0-5.839,6.365l-3.544,25.727h-22.85l-3.543-25.723a7.59,7.59,0,0,0-5.838-6.365,92.861,92.861,0,0,1-29.029-12.038,7.59,7.59,0,0,0-8.63.372L117.92,379l-16.157-16.157,15.691-20.7a7.59,7.59,0,0,0,.372-8.629,92.862,92.862,0,0,1-12.034-29.03,7.59,7.59,0,0,0-6.365-5.839L73.7,295.1V272.25l25.726-3.543a7.592,7.592,0,0,0,6.365-5.839,92.877,92.877,0,0,1,12.034-29.029,7.588,7.588,0,0,0-.371-8.629L101.762,204.5l16.158-16.157,20.706,15.692a7.59,7.59,0,0,0,8.63.372,92.844,92.844,0,0,1,29.028-12.034,7.591,7.591,0,0,0,5.839-6.365l3.543-25.727h22.85L212.059,186a7.589,7.589,0,0,0,5.838,6.365,92.9,92.9,0,0,1,29.029,12.038,7.592,7.592,0,0,0,8.631-.372l20.705-15.692L292.419,204.5l-15.69,20.7a7.589,7.589,0,0,0-.373,8.629,92.873,92.873,0,0,1,12.034,29.03,7.591,7.591,0,0,0,6.366,5.84l25.725,3.543V295.1l-25.726,3.544a7.588,7.588,0,0,0-6.365,5.839,92.83,92.83,0,0,1-12.034,29.028,7.588,7.588,0,0,0,.434,8.71l1.59,2.042a93.65,93.65,0,0,0-14.4,25.475Zm174.6,39.051a78.447,78.447,0,1,1-78.447-78.446,78.447,78.447,0,0,1,78.447,78.446Zm-20.2-199.292a7.589,7.589,0,0,0-7.589,7.589v113a93.509,93.509,0,0,0-15.476-8.056V210.673a7.589,7.589,0,0,0-7.589-7.589H356.56l38.092-65.976,38.091,65.976Z" transform="translate(-58.525 -16)" fill="var(--mainColor)"/>
</svg>
