<svg xmlns="http://www.w3.org/2000/svg" width="60" height="61" viewBox="0 0 60 61">
  <g id="_013-bullhorn" data-name="013-bullhorn" transform="translate(-2 -1)">
    <path id="Path_1" data-name="Path 1" d="M37,54H35V44.2a1,1,0,0,0-2,0V54H7V34h8.32a1,1,0,0,0,0-2H6a1,1,0,0,0-1,1V54H3a1,1,0,0,0-1,1v2a5,5,0,0,0,5,5H33a5,5,0,0,0,5-5V55A1,1,0,0,0,37,54Zm-1,3a3,3,0,0,1-3,3H31V59a1,1,0,0,0-2,0v1H11V59a1,1,0,0,0-2,0v1H7a3,3,0,0,1-3-3V56H36Z" fill="var(--mainColor)"/>
    <path id="Path_2" data-name="Path 2" d="M54,8h2a1,1,0,0,0,0-2H54a3,3,0,0,0-3,3v1H50a1,1,0,0,0,0,2h1v3a1,1,0,0,0,2,0V12h1a1,1,0,0,0,0-2H53V9A1,1,0,0,1,54,8Z" fill="var(--mainColor)"/>
    <path id="Path_3" data-name="Path 3" d="M59,2H47a3,3,0,0,0-3,3V7a1,1,0,0,0,2,0V5a1,1,0,0,1,1-1H59a1,1,0,0,1,1,1V17a1,1,0,0,1-1,1H47a1,1,0,0,1-1-1V11a1,1,0,0,0-2,0v6a3,3,0,0,0,3,3H59a3,3,0,0,0,3-3V5a3,3,0,0,0-3-3Z" fill="var(--mainColor)"/>
    <path id="Path_4" data-name="Path 4" d="M49,42a4,4,0,1,0,4-4A4,4,0,0,0,49,42Zm6,0a2,2,0,1,1-2-2A2,2,0,0,1,55,42Z" fill="var(--mainColor)"/>
    <path id="Path_5" data-name="Path 5" d="M59,33H47a3,3,0,0,0-3,3V48a3,3,0,0,0,3,3H59a3,3,0,0,0,3-3V46a1,1,0,0,0-2,0v2a1,1,0,0,1-1,1H47a1,1,0,0,1-1-1V36a1,1,0,0,1,1-1H59a1,1,0,0,1,1,1v6a1,1,0,0,0,2,0V36a3,3,0,0,0-3-3Z" fill="var(--mainColor)"/>
    <path id="Path_6" data-name="Path 6" d="M24.47,13.85a.995.995,0,0,0,.98.04l6-3a1,1,0,0,0,0-1.78l-6-3A1,1,0,0,0,24,7v6A1,1,0,0,0,24.47,13.85ZM26,8.62,28.76,10,26,11.38Z" fill="var(--mainColor)"/>
    <path id="Path_7" data-name="Path 7" d="M27,19a9,9,0,1,0-9-9A9,9,0,0,0,27,19ZM27,3a7,7,0,1,1-7,7,7,7,0,0,1,7-7Z" fill="var(--mainColor)"/>
    <path id="Path_8" data-name="Path 8" d="M37,23a1,1,0,0,0,.8-.4l3-4a1,1,0,1,0-1.6-1.2l-3,4A1,1,0,0,0,37,23Z" fill="var(--mainColor)"/>
    <path id="Path_9" data-name="Path 9" d="M39.2,26.6a1,1,0,0,0,1.4.2l4-3a1,1,0,1,0-1.2-1.6l-4,3a1,1,0,0,0-.2,1.4Z" fill="var(--mainColor)"/>
    <path id="Path_10" data-name="Path 10" d="M49,28.8a1,1,0,0,0-1.2-.8l-5,1a1,1,0,0,0,.2,2h.2l5-1a1,1,0,0,0,.8-1.2Z" fill="var(--mainColor)"/>
    <path id="Path_11" data-name="Path 11" d="M3,29H15a1,1,0,0,0,1-1V12a1,1,0,0,0-1-1H3a1,1,0,0,0-1,1V28A1,1,0,0,0,3,29ZM4,13H14V27H4Z" fill="var(--mainColor)"/>
    <path id="Path_12" data-name="Path 12" d="M11,15H9a1,1,0,0,0,0,2h2a1,1,0,0,0,0-2Z" fill="var(--mainColor)"/>
    <path id="Path_13" data-name="Path 13" d="M11,19H7a1,1,0,0,0,0,2h4a1,1,0,0,0,0-2Z" fill="var(--mainColor)"/>
    <path id="Path_14" data-name="Path 14" d="M11,23H7a1,1,0,0,0,0,2h4a1,1,0,0,0,0-2Z" fill="var(--mainColor)"/>
    <path id="Path_15" data-name="Path 15" d="M36.12,28.7a1,1,0,1,0-1.74,1l4.41,7.63-16,6h-.15l-2.6,1.5-1.73,1a2,2,0,0,1-2.73-.73l-2-3.46A2,2,0,0,1,14.33,39l3.46-2,2.5,4.33a1,1,0,1,0,1.74-1l-2.58-4.46L32,25.52l.41.71a1,1,0,0,0,1.74-1l-1-1.73a1.013,1.013,0,0,0-1.51-.27l-14,11.54-4.26,2.46a4,4,0,0,0-1.84,4.53l-1,.57a3,3,0,0,0,1.5,5.6,3.06,3.06,0,0,0,1.5-.4l1-.57A3.88,3.88,0,0,0,16.29,48a3.79,3.79,0,0,0,1.05.14,3.94,3.94,0,0,0,2-.54l.87-.5,2,3.47a3,3,0,1,0,5.19-3L25.58,44.4l15-5.63a1,1,0,0,0,.52-1.43ZM12.5,45.79a1,1,0,1,1-1-1.73l.87-.5,1,1.73Zm13.16,2.8a1,1,0,0,1-1.73,1l-2-3.47,1.66-.95h.08Z" fill="var(--mainColor)"/>
  </g>
</svg>
