<svg xmlns="http://www.w3.org/2000/svg" width="273.169" height="260.798" viewBox="0 0 273.169 260.798">
  <g id="_016-professional-development" data-name="016-professional-development" transform="translate(-13.873 -19.997)">
    <path id="Path_1" data-name="Path 1" d="M169.082,165.069a2.333,2.333,0,0,0-2.837,0l-22.9,17.446a2.339,2.339,0,0,0,1.419,4.2h7.669v91.74a2.34,2.34,0,0,0,2.341,2.34h25.774a2.34,2.34,0,0,0,2.341-2.34v-91.74h7.67a2.339,2.339,0,0,0,1.419-4.2Zm11.468,16.967a2.34,2.34,0,0,0-2.341,2.34v91.74H157.116v-91.74a2.34,2.34,0,0,0-2.341-2.34H151.7l15.963-12.163,15.964,12.163Z" fill="var(--mainColor)"/>
    <path id="Path_2" data-name="Path 2" d="M216.152,133.178a2.333,2.333,0,0,0-2.837,0l-22.9,17.444a2.339,2.339,0,0,0,1.419,4.2h7.669V278.454a2.34,2.34,0,0,0,2.341,2.34h25.775a2.34,2.34,0,0,0,2.341-2.34V154.823h7.669a2.339,2.339,0,0,0,1.419-4.2Zm11.47,16.965a2.34,2.34,0,0,0-2.341,2.34V276.115H204.187V152.483a2.34,2.34,0,0,0-2.341-2.34h-3.075l15.962-12.163L230.7,150.143Z" fill="var(--mainColor)"/>
    <path id="Path_3" data-name="Path 3" d="M286.12,111.353l-22.9-17.446a2.333,2.333,0,0,0-2.837,0l-22.9,17.446a2.339,2.339,0,0,0,1.419,4.2h7.669v162.9a2.34,2.34,0,0,0,2.341,2.34h25.774a2.34,2.34,0,0,0,2.341-2.34v-162.9h7.67a2.339,2.339,0,0,0,1.418-4.2Zm-11.429-.479a2.34,2.34,0,0,0-2.341,2.34v162.9H251.257v-162.9a2.34,2.34,0,0,0-2.341-2.34H245.84L261.8,98.711l15.963,12.163Z" fill="var(--mainColor)"/>
    <path id="Path_4" data-name="Path 4" d="M193.763,91.43l.055,3c0,.012.007.021.007.033s-.007.022-.007.033v10.635a8.661,8.661,0,0,0,6.72,8.421,9.663,9.663,0,0,0,9.486,9.722c.055,0,.111,0,.167,0a9.682,9.682,0,0,0,9.661-9.532v-.43a9.509,9.509,0,0,0,6.712-9.054V94.492c0-.009-.006-.018-.006-.027s0-.011,0-.017l.057-2.059a33.533,33.533,0,0,1,7.451-21.511,31.058,31.058,0,1,0-47.992-.282,33.262,33.262,0,0,1,7.685,20.834ZM210.1,118.593a4.958,4.958,0,0,1-4.87-4.807h9.927A4.943,4.943,0,0,1,210.1,118.593Zm11.779-14.334a4.854,4.854,0,0,1-4.849,4.848H202.475a3.981,3.981,0,0,1-3.975-3.978v-8.4h23.383ZM208.5,24.736h0a26.352,26.352,0,0,1,21.973,43.147,38.127,38.127,0,0,0-8.535,24.161H198.454l-.011-.658a37.912,37.912,0,0,0-8.734-23.743A26.315,26.315,0,0,1,183.84,49.85,26.591,26.591,0,0,1,208.5,24.736Z" fill="var(--mainColor)"/>
    <path id="Path_5" data-name="Path 5" d="M131.205,99.061a12.5,12.5,0,0,0-6.25-7.458,11.959,11.959,0,0,0-1.768-.678l.207-10.553a10.274,10.274,0,0,0-3-7.363,13.172,13.172,0,0,0-9.294-3.855c-.055,0-.11,0-.165,0A12.6,12.6,0,0,0,99.245,76.3c-.158-.152-.308-.31-.476-.455a14.041,14.041,0,0,0-17.637-.236,10.681,10.681,0,0,0-3.67,5.609,12.263,12.263,0,0,0-7.515-2.676,12.007,12.007,0,0,0-11.93,9.394,11.771,11.771,0,0,0-7.291-2.656l-.588-.01c-.052,0-.1,0-.154,0a11.88,11.88,0,0,0-11.862,11.7l-.45,33.041a11.864,11.864,0,0,0,7.337,11.11c0,.015-.009.028-.009.043l-.049,5.57a41.777,41.777,0,0,0,13.4,33.657v57.97A7.674,7.674,0,0,0,66.047,246h41.474a7.494,7.494,0,0,0,7.5-7.383l.515-57.169,5.317-1.611a2.451,2.451,0,0,0,.231-.083c.276-.117,27.5-12.107,18.774-52.889ZM111.049,73.834a8.482,8.482,0,0,1,5.988,2.431,5.607,5.607,0,0,1,1.678,4.015l-.2,10.174a11.5,11.5,0,0,0-2.591.565,12.851,12.851,0,0,0-7.688,15.749l3.039,21.991c-.08,0-.173,0-.312-.014-.273-.017-.6-.037-1.032-.042a8.49,8.49,0,0,1-5.991-2.433,5.6,5.6,0,0,1-1.678-4.013l.83-42.125c.067-3.461,3.712-6.3,7.956-6.3ZM84.1,79.226a8.949,8.949,0,0,1,5.692-1.936h.137A8.963,8.963,0,0,1,95.7,79.38a5.756,5.756,0,0,1,2.149,4.409l-.575,42.223h0c-.048,3.43-3.683,6.286-7.969,6.286h-.128a8.965,8.965,0,0,1-5.771-2.092,6.119,6.119,0,0,1-1.947-3c.032-.331.059-.664.064-1l.483-35.429a12.108,12.108,0,0,0-.238-2.534l.063-4.666a5.756,5.756,0,0,1,2.268-4.35Zm-14.172,4h.106a7.386,7.386,0,0,1,7.046,5.609l-.5,36.9a9.847,9.847,0,0,0,.127,1.624,7.3,7.3,0,0,1-7.348,6.076l-.153,0a7.376,7.376,0,0,1-7.2-6.359l.4-29.774a11.83,11.83,0,0,0-.092-1.548l.071-5.238a7.435,7.435,0,0,1,7.536-7.289ZM42.35,130.073l.45-33.041a7.189,7.189,0,0,1,7.171-7.084h.092l.587.01a7.175,7.175,0,0,1,6.987,6.162l-.4,29.756c-.005.386.066.758.1,1.138l-.044,3.263a7.282,7.282,0,0,1-7.274,7.082l-.579-.008a7.208,7.208,0,0,1-7.082-7.278ZM119.361,175.4,113,177.325a3.011,3.011,0,0,0-2.138,2.881l-.527,58.372a2.8,2.8,0,0,1-2.82,2.744H66.045a2.99,2.99,0,0,1-3.012-2.96v-58.3a3.791,3.791,0,0,0-1.342-2.973,36.956,36.956,0,0,1-12.064-30.2l.045-4.858.274,0h0c.053,0,.1,0,.158,0a11.878,11.878,0,0,0,10.929-7.273,11.948,11.948,0,0,0,8.107,3.343l.153,0h0c.055,0,.108,0,.162,0a12.074,12.074,0,0,0,9.96-5.265,12.035,12.035,0,0,0,.923.894,13.643,13.643,0,0,0,8.776,3.235c.066,0,.13,0,.195,0,5.33,0,9.9-2.9,11.755-6.995a13.269,13.269,0,0,0,8.807,3.4c.333,0,.582.021.79.033.234.017.451.027.666.027a5.393,5.393,0,0,0,.587-.037l.782,5.658c-6.625,1.124-24.365,5.966-29,25.822a2.341,2.341,0,0,0,4.559,1.066c4.9-20.98,26.309-22.485,27.214-22.537a2.341,2.341,0,0,0,2.19-2.658l-4.811-34.811a2.418,2.418,0,0,0-.084-.375,8.142,8.142,0,0,1,4.719-10.139,6.843,6.843,0,0,1,5.374.354,7.689,7.689,0,0,1,3.88,4.665l8.6,27.6c7.66,35.837-14.093,46.5-15.973,47.346Z" fill="var(--mainColor)"/>
    <path id="Path_6" data-name="Path 6" d="M123.281,62.429a2.317,2.317,0,0,0,1.1.279,2.341,2.341,0,0,0,2.066-1.239L134.612,46.2A2.34,2.34,0,0,0,130.484,44L122.32,59.263a2.337,2.337,0,0,0,.961,3.166Z" fill="var(--mainColor)"/>
    <path id="Path_7" data-name="Path 7" d="M159.678,79.96a2.344,2.344,0,0,0-2.954-1.493L140.16,83.908a2.341,2.341,0,0,0,.73,4.565,2.369,2.369,0,0,0,.731-.119l16.564-5.441a2.338,2.338,0,0,0,1.493-2.953Z" fill="var(--mainColor)"/>
    <path id="Path_8" data-name="Path 8" d="M33.509,83.909,16.945,78.468a2.34,2.34,0,0,0-1.461,4.447l16.564,5.441a2.34,2.34,0,1,0,1.461-4.447Z" fill="var(--mainColor)"/>
    <path id="Path_9" data-name="Path 9" d="M51.127,64.078a2.341,2.341,0,0,0,3.99-2.448L46.058,46.867a2.341,2.341,0,0,0-3.99,2.448Z" fill="var(--mainColor)"/>
    <path id="Path_10" data-name="Path 10" d="M87.277,55.314h.055a2.34,2.34,0,0,0,2.286-2.394l-.4-17.267a2.37,2.37,0,0,0-2.394-2.286,2.34,2.34,0,0,0-2.286,2.394l.4,17.267A2.34,2.34,0,0,0,87.277,55.314Z" fill="var(--mainColor)"/>
  </g>
</svg>
