<svg id="_008-technical-support" data-name="008-technical-support" xmlns="http://www.w3.org/2000/svg" width="62" height="62" viewBox="0 0 62 62">
  <path id="Path_1" data-name="Path 1" d="M30,34V33a3,3,0,0,0-6,0v1h2V33a1,1,0,0,1,2,0v1Z" fill="var(--mainColor)"/>
  <path id="Path_2" data-name="Path 2" d="M37,30a3,3,0,0,0-3,3v1h2V33a1,1,0,0,1,2,0v1h2V33A3,3,0,0,0,37,30Z" fill="var(--mainColor)"/>
  <path id="Path_3" data-name="Path 3" d="M32.764,40H29v2h3.764a4.594,4.594,0,0,0,4.13-2.553l-1.789-.9A2.6,2.6,0,0,1,32.764,40Z" fill="var(--mainColor)"/>
  <path id="Path_4" data-name="Path 4" d="M8,55h2v2H8Z" fill="var(--mainColor)"/>
  <path id="Path_5" data-name="Path 5" d="M12,55h2v2H12Z" fill="var(--mainColor)"/>
  <path id="Path_6" data-name="Path 6" d="M16,55h2v2H16Z" fill="var(--mainColor)"/>
  <path id="Path_7" data-name="Path 7" d="M50,28h2v2H50Z" fill="var(--mainColor)"/>
  <path id="Path_8" data-name="Path 8" d="M54,28h6v2H54Z" fill="var(--mainColor)"/>
  <path id="Path_9" data-name="Path 9" d="M50,32H60v2H50Z" fill="var(--mainColor)"/>
  <path id="Path_10" data-name="Path 10" d="M50,36h2v2H50Z" fill="var(--mainColor)"/>
  <path id="Path_11" data-name="Path 11" d="M54,36h2v2H54Z" fill="var(--mainColor)"/>
  <path id="Path_12" data-name="Path 12" d="M59.586,15H55a1,1,0,0,1-1-1V8a1,1,0,0,1,1-1h4.586a2.414,2.414,0,0,0,1.707-4.121A9.762,9.762,0,0,0,54.343,0H51.472a8.188,8.188,0,0,0-7.064,4H7A5.006,5.006,0,0,0,2,9v4a5.006,5.006,0,0,0,5,5H17.659a13.607,13.607,0,0,0-1.339,9.445,12.993,12.993,0,1,0,8.433,18.1,11.945,11.945,0,0,0,4.681,2.175A5.292,5.292,0,0,0,28,51.326V62H53.438a3,3,0,0,0,2.911-2.272l3.568-14.273A2.781,2.781,0,0,0,57.219,42h-.876a2.794,2.794,0,0,0-2.674,2.018L50.246,56H49.9A5.009,5.009,0,0,0,45,52H39.618L38.09,48.944A5.316,5.316,0,0,0,36.554,47.1,12.027,12.027,0,0,0,43.819,38H44a3.983,3.983,0,0,0,2.512-7.087l.5-1.257a13.725,13.725,0,0,0,.515-8.673A8.223,8.223,0,0,0,51.472,22H55a8.182,8.182,0,0,0,5.824-2.413l.466-.466A2.414,2.414,0,0,0,59.586,15ZM4,13V9A3,3,0,0,1,7,6H44v8.882l-1.7.851-3.191-4.255L36.083,14.5,32,9.4l-4.083,5.1-3.025-3.025L21.7,15.733l-2.082-1.041L18.834,16H7A3,3,0,0,1,4,13Zm9,36.764-1.316-2.633A15.778,15.778,0,0,1,10.827,45h4.346a15.83,15.83,0,0,1-.857,2.131ZM10.312,43a14.579,14.579,0,0,1,0-6h5.376a14.579,14.579,0,0,1,0,6ZM2,40a10.966,10.966,0,0,1,.426-3H8.257a17.6,17.6,0,0,0,0,6H2.426A10.966,10.966,0,0,1,2,40Zm11-9.764,1.316,2.633A15.778,15.778,0,0,1,15.173,35H10.827a15.83,15.83,0,0,1,.857-2.131Zm4.791,7.094A3.972,3.972,0,0,0,20,38h.181a11.924,11.924,0,0,0,2.092,5H17.742A17.863,17.863,0,0,0,18,40a17.828,17.828,0,0,0-.209-2.67ZM20,36a2,2,0,0,1,0-4Zm-3.681-3.564c-.071-.154-.138-.31-.214-.461l-1.416-2.832a10.854,10.854,0,0,1,2.344.634l.454,1.136A4.008,4.008,0,0,0,16.319,32.436ZM11.31,29.144,9.9,31.975A17.816,17.816,0,0,0,8.717,35h-5.5a11.013,11.013,0,0,1,8.1-5.856ZM3.214,45h5.5a17.985,17.985,0,0,0,1.178,3.025l1.415,2.831A11.013,11.013,0,0,1,3.214,45Zm11.47,5.869,1.422-2.844A17.985,17.985,0,0,0,17.284,45H22.8a11.006,11.006,0,0,1-8.112,5.869ZM30,60V57.523A10.764,10.764,0,0,0,32.477,60ZM55.592,44.567A.786.786,0,0,1,56.343,44h.876a.782.782,0,0,1,.781.781.808.808,0,0,1-.023.189L55.219,56H52.325ZM54.719,58l-.311,1.242a1,1,0,0,1-.97.758H42V58Zm-6.9-2H44V54h1a3,3,0,0,1,2.816,2Zm-9.934-3-.776,1.553,1.789.9L39.618,54H42v2a2,2,0,0,0-2,2v2H38.674A8.684,8.684,0,0,1,30,51.326a3.326,3.326,0,0,1,6.3-1.487ZM32,46A10.011,10.011,0,0,1,22,36V29.079a2.009,2.009,0,0,1,1.3-1.873l4.6-1.725A17.934,17.934,0,0,0,37.071,28H42v8A10.011,10.011,0,0,1,32,46ZM44,36V32a2,2,0,1,1,0,4Zm0-6V27a5.9,5.9,0,0,0-4.727-5.765l-1.078-.215L37.8,22.981l1.077.215A3.892,3.892,0,0,1,41.867,26h-4.8a15.966,15.966,0,0,1-11.364-4.707l-1.414,1.414a18.276,18.276,0,0,0,1.585,1.4l-3.282,1.231A4.018,4.018,0,0,0,20,29.079V30a3.984,3.984,0,0,0-.695.07l-.463-1.157a11.78,11.78,0,0,1,.836-10.433l.7-1.171,1.918.959,2.809-3.745L28.083,17.5,32,12.6l3.917,4.9,2.975-2.975L41.7,18.267l1.918-.959.7,1.171a11.779,11.779,0,0,1,.835,10.435l-.463,1.157A3.869,3.869,0,0,0,44,30ZM59.879,17.707l-.466.466A6.2,6.2,0,0,1,55,20H51.472A6.2,6.2,0,0,1,46,16.755V5.245A6.2,6.2,0,0,1,51.472,2h2.871a7.777,7.777,0,0,1,5.536,2.293A.414.414,0,0,1,59.586,5H55a3,3,0,0,0-3,3v6a3,3,0,0,0,3,3h4.586a.414.414,0,0,1,.293.707Z" fill="var(--mainColor)"/>
</svg>
