<svg xmlns="http://www.w3.org/2000/svg" width="37.08" height="34.596" viewBox="0 0 37.08 34.596">
  <defs>
    <style>
      .cls-1 {
        fill: #2abfbb;
      }

      .cls-2 {
        fill: #3c8098;
      }
    </style>
  </defs>
  <g id="video-production" transform="translate(0 -0.5)">
    <path id="Path_38314" data-name="Path 38314" class="cls-1" d="M93.282,61.069A2.628,2.628,0,1,0,90.655,63.7,2.631,2.631,0,0,0,93.282,61.069Zm-4.169,0a1.541,1.541,0,1,1,1.541,1.541A1.543,1.543,0,0,1,89.114,61.069Zm0,0" transform="translate(-81.652 -53.745)"/>
    <path id="Path_38315" data-name="Path 38315" class="cls-1" d="M264.1,63.7a2.628,2.628,0,1,0-2.628-2.628A2.63,2.63,0,0,0,264.1,63.7Zm0-4.169a1.541,1.541,0,1,1-1.541,1.541A1.543,1.543,0,0,1,264.1,59.528Zm0,0" transform="translate(-242.537 -53.745)"/>
    <path id="Path_38316" data-name="Path 38316" class="cls-2" d="M59.1,332.758a.543.543,0,0,0-.543.543v5.879a.285.285,0,0,1-.285.285h-22.9a.285.285,0,0,1-.285-.285V333.3a.543.543,0,0,0-1.086,0v5.879a1.373,1.373,0,0,0,1.371,1.371h22.9a1.373,1.373,0,0,0,1.371-1.371V333.3A.543.543,0,0,0,59.1,332.758Zm0,0" transform="translate(-31.541 -308.195)"/>
    <path id="Path_38317" data-name="Path 38317" class="cls-2" d="M58.274,209.766h-22.9A1.372,1.372,0,0,0,34,211.137v5.879a.543.543,0,1,0,1.086,0v-5.879a.285.285,0,0,1,.285-.285h22.9a.285.285,0,0,1,.285.285v5.879a.543.543,0,1,0,1.086,0v-5.879A1.372,1.372,0,0,0,58.274,209.766Zm0,0" transform="translate(-31.541 -194.11)"/>
    <path id="Path_38318" data-name="Path 38318" class="cls-2" d="M135.434,243.8a6.4,6.4,0,1,0-6.4,6.4A6.41,6.41,0,0,0,135.434,243.8Zm-11.719,0a5.316,5.316,0,1,1,5.316,5.316A5.322,5.322,0,0,1,123.715,243.8Zm0,0" transform="translate(-113.748 -219.742)"/>
    <path id="Path_38319" data-name="Path 38319" class="cls-2" d="M185.844,281.278a.852.852,0,0,0-.381-.711l-3.939-2.621a.854.854,0,0,0-1.328.711V283.9a.854.854,0,0,0,1.328.711l3.939-2.62A.853.853,0,0,0,185.844,281.278Zm-4.562,2.188v-4.376l3.289,2.188Zm0,0" transform="translate(-167.145 -257.221)"/>
    <path id="Path_38320" data-name="Path 38320" class="cls-1" d="M36.242,14.67a1.5,1.5,0,0,0-1.584.147l-4.093,3.089V14.7a1.784,1.784,0,0,0-1.782-1.782H25.472A6.823,6.823,0,1,0,15.283,4.656,6.824,6.824,0,1,0,5.094,12.914H1.782A1.784,1.784,0,0,0,0,14.7V33.315A1.784,1.784,0,0,0,1.782,35.1h27a1.784,1.784,0,0,0,1.782-1.782V30.1l4.093,3.089a1.511,1.511,0,0,0,2.421-1.206V16.023A1.5,1.5,0,0,0,36.242,14.67ZM21.564,1.586a5.737,5.737,0,0,1,1.288,11.328H20.275A5.737,5.737,0,0,1,21.564,1.586Zm-6.281,8.4a6.8,6.8,0,0,0,2.372,2.925H12.911a6.795,6.795,0,0,0,2.372-2.925Zm-10.732.954a5.736,5.736,0,1,1,5.739,1.971H7.714A5.759,5.759,0,0,1,4.551,10.943ZM29.48,33.315a.7.7,0,0,1-.7.7h-27a.7.7,0,0,1-.7-.7V14.7a.7.7,0,0,1,.7-.7h27a.7.7,0,0,1,.7.7V33.315Zm6.513-1.327a.425.425,0,0,1-.68.339l-4.747-3.583V19.267l4.747-3.583a.425.425,0,0,1,.68.339Zm0,0"/>
  </g>
</svg>
