<svg xmlns="http://www.w3.org/2000/svg" width="36.12" height="36.13" viewBox="0 0 36.12 36.13">
  <defs>
    <style>
      .cls-1 {
        fill: #7167d6;
      }

      .cls-2 {
        fill: #3e37a6;
      }
    </style>
  </defs>
  <g id="social-media" transform="translate(-0.5)">
    <path id="Path_38307" data-name="Path 38307" class="cls-1" d="M32.031,22.424a14.214,14.214,0,0,0,0-8.715A7.082,7.082,0,0,0,29.337,0a7.094,7.094,0,0,0-6.426,4.581,14.218,14.218,0,0,0-8.7,0A7.08,7.08,0,1,0,5.085,13.7a14.217,14.217,0,0,0,0,8.719A7.092,7.092,0,0,0,.5,29.051,7.015,7.015,0,0,0,1.187,32.1a.529.529,0,0,0,.955-.456,5.964,5.964,0,0,1-.584-2.589A6.022,6.022,0,1,1,3.5,33.483a.529.529,0,0,0-.717.779A7.08,7.08,0,0,0,14.21,31.534a14.22,14.22,0,0,0,8.7,0,7.08,7.08,0,1,0,9.122-9.11ZM25.162,2.946a5.983,5.983,0,0,1,4.206-1.885l.175,0a6.021,6.021,0,0,1,.17,12.04l-.175,0A6.021,6.021,0,0,1,25.162,2.946ZM22.613,30.518a13.161,13.161,0,0,1-8.105,0,7.082,7.082,0,0,0-8.4-8.392A13.156,13.156,0,0,1,6.1,14a7.09,7.09,0,0,0,4.94-.746.529.529,0,1,0-.518-.923A6.025,6.025,0,1,1,12.238,10.9a.529.529,0,0,0,.818.671A7.082,7.082,0,0,0,14.5,5.6a13.159,13.159,0,0,1,8.109,0,7.089,7.089,0,0,0,6.924,8.56c.068,0,.137,0,.205,0A7.158,7.158,0,0,0,31.019,14a13.155,13.155,0,0,1,0,8.121,7.082,7.082,0,0,0-8.4,8.392Zm6.927,4.554a6.021,6.021,0,1,1,6.022-6.021A6.028,6.028,0,0,1,29.54,35.072Zm0,0"/>
    <path id="Path_38308" data-name="Path 38308" class="cls-1" d="M47.993,54.817a.529.529,0,0,0-.6.005,2.977,2.977,0,0,1-.576.317,1.968,1.968,0,0,0-3.167,1.33,2.885,2.885,0,0,1-1.939-1.2.529.529,0,0,0-.917.089,4.479,4.479,0,0,0-.326,1.844,3.232,3.232,0,0,0,1.3,2.5,3.213,3.213,0,0,1-1.113.154.529.529,0,0,0-.278.992,5.338,5.338,0,0,0,2.589.692,4.667,4.667,0,0,0,2.377-.64,4.424,4.424,0,0,0,1.931-2.357.549.549,0,0,0,.028-.079,5.5,5.5,0,0,0,.281-1.771c0-.028,0-.055,0-.083a3.011,3.011,0,0,0,.629-1.234A.53.53,0,0,0,47.993,54.817Zm-1.485,1.715a.9.9,0,0,1,.016.167,4.459,4.459,0,0,1-.224,1.433.507.507,0,0,0-.02.062,3.352,3.352,0,0,1-1.474,1.8,3.639,3.639,0,0,1-2.123.483,4.215,4.215,0,0,0,.5-.289.529.529,0,0,0-.082-.922,2.35,2.35,0,0,1-1.57-2.076,3.059,3.059,0,0,1,.019-.546,3.945,3.945,0,0,0,2.634.915.529.529,0,0,0,.516-.529V56.7a.909.909,0,0,1,1.594-.608.528.528,0,0,0,.243.158A.531.531,0,0,0,46.508,56.532Zm0,0" transform="translate(-36.809 -50.862)"/>
    <path id="Path_38309" data-name="Path 38309" class="cls-1" d="M380.369,46.711h.75v3.156a.529.529,0,0,0,1.059,0V46.711H383a.529.529,0,1,0,0-1.059h-.817V44.172a.923.923,0,0,1,.922-.922h.685a.529.529,0,1,0,0-1.059H383.1a1.983,1.983,0,0,0-1.981,1.981v1.481h-.75a.529.529,0,0,0,0,1.059Zm0,0" transform="translate(-352.571 -39.214)"/>
    <path id="Path_38310" data-name="Path 38310" class="cls-1" d="M74.224,376.472a.728.728,0,0,0,.364-.1l3.6-2.081a.728.728,0,0,0,0-1.261l-3.6-2.081a.728.728,0,0,0-1.092.631v4.162a.728.728,0,0,0,.728.728Zm.33-4.317,2.612,1.509-2.612,1.509Zm0,0" transform="translate(-67.845 -344.684)"/>
    <path id="Path_38311" data-name="Path 38311" class="cls-1" d="M364.947,358.555h-4.6A1.451,1.451,0,0,0,358.9,360v4.6a1.451,1.451,0,0,0,1.449,1.449h4.6A1.451,1.451,0,0,0,366.4,364.6V360A1.451,1.451,0,0,0,364.947,358.555Zm.39,6.048a.391.391,0,0,1-.39.391h-4.6a.391.391,0,0,1-.39-.391V360a.391.391,0,0,1,.39-.391h4.6a.391.391,0,0,1,.39.391Zm0,0" transform="translate(-333.107 -333.252)"/>
    <path id="Path_38312" data-name="Path 38312" class="cls-1" d="M390.948,389a1.6,1.6,0,1,0,1.6,1.6A1.6,1.6,0,0,0,390.948,389Zm0,2.141a.541.541,0,1,1,.541-.541A.542.542,0,0,1,390.948,391.145Zm0,0" transform="translate(-361.408 -361.553)"/>
    <path id="Path_38313" data-name="Path 38313" class="cls-2" d="M195.976,178.094a.529.529,0,0,0-.529.529v.237a15.678,15.678,0,0,1-4.323,1.747.61.61,0,0,0-.373-.128h-2.423a1.063,1.063,0,0,0-1.062,1.062v2.779a1.063,1.063,0,0,0,1.062,1.062h.484l.184,3.529a.529.529,0,0,0,.528.5h.028a.529.529,0,0,0,.5-.556l-.181-3.474h.879a.609.609,0,0,0,.373-.128c.429.1.857.225,1.274.364a.529.529,0,0,0,.333-1c-.449-.149-.907-.28-1.369-.391v-2.584a16.784,16.784,0,0,0,4.084-1.563v5.71q-.349-.189-.7-.359a.529.529,0,0,0-.459.954c.394.19.784.4,1.163.621v.236a.529.529,0,1,0,1.058,0v-8.616A.529.529,0,0,0,195.976,178.094Zm-5.672,6.229-1.98,0,0-2.782H190.3Zm0,0" transform="translate(-173.586 -165.526)"/>
  </g>
</svg>
