<svg id="Layer_2" data-name="Layer 2" xmlns="http://www.w3.org/2000/svg" width="22.589" height="22.593" viewBox="0 0 22.589 22.593">
  <g id="Layer_1" data-name="Layer 1">
    <path id="e-business" d="M20.876,0H1.716A1.721,1.721,0,0,0,0,1.716V16.823a1.712,1.712,0,0,0,1.716,1.706H8.773v1.819a2,2,0,0,0-2.383,1.9.343.343,0,0,0,.346.345h9.122a.342.342,0,0,0,.345-.345,2,2,0,0,0-2.382-1.9V18.529h7.055a1.708,1.708,0,0,0,1.713-1.706V1.716A1.717,1.717,0,0,0,20.876,0ZM.686,1.716A1.026,1.026,0,0,1,1.716.691h19.16a1.027,1.027,0,0,1,1.032,1.025V15.279H20.044V7.294a.338.338,0,0,0-.345-.336.333.333,0,0,0-.341.336v7.985H17.641V8.32a.343.343,0,0,0-.685,0v6.959H15.238V10.372a.34.34,0,1,0-.68,0v4.907H12.841V9.691a.343.343,0,0,0-.685,0v5.588H10.438V11.063a.343.343,0,1,0-.685,0v4.216H8.036V11.744a.341.341,0,1,0-.681,0v3.535H5.638V10.372a.343.343,0,0,0-.685,0v4.907H3.235V12.434a.341.341,0,0,0-.34-.345.346.346,0,0,0-.345.345v2.845H.686Zm14.781,20.2H7.122a1.222,1.222,0,0,1,1.168-.873H14.3a1.212,1.212,0,0,1,1.167.869Zm-2.331-1.564H9.458V18.529h3.678Zm8.772-3.525a1.035,1.035,0,0,1-1.032,1.026H1.716a1.033,1.033,0,0,1-1.03-1.026v-.854H21.908ZM12.593,7.314l2.219.631L17.077,6c.012-.03.81-.352.858-.375L17.666,5l2.033.244-1.23,1.635-.264-.62-.721.3-2.362,2.02a.364.364,0,0,1-.32.071l-2.26-.65-2.277,1.3c-.024.011-.05.021-.075.03l-2.4.691a.343.343,0,0,1-.265-.04L5.334,8.736l-2.215,1.9a.343.343,0,0,1-.448-.518l2.4-2.052a.346.346,0,0,1,.392-.04l2.275,1.3,2.22-.641,2.367-1.341a.309.309,0,0,1,.268-.03ZM10.082,2.3H12.5a.34.34,0,1,1,0,.68H10.082a.34.34,0,1,1,0-.68ZM2.9,2.3H8.4a.34.34,0,1,1,0,.68H2.9a.34.34,0,0,1,0-.68ZM8.371,5.069a.34.34,0,0,1,0-.68H12.5a.34.34,0,1,1,0,.68ZM2.9,4.389H6.68a.34.34,0,0,1,0,.68H2.9a.34.34,0,0,1,0-.68ZM6.141,6.481H9.418a.341.341,0,0,1,0,.681H6.141a.341.341,0,0,1,0-.681Zm-3.246,0H4.449a.342.342,0,0,1,.341.345.333.333,0,0,1-.341.336H2.9a.341.341,0,0,1,0-.681Z" fill="var(--mainColor)"/>
  </g>
</svg>
