<?xml version="1.0" encoding="UTF-8"?>
<svg width="79.75" height="79.75" 
viewBox="0 0 79.75 79.75" 
preserveAspectRatio="xMinYMin"
xmlns:xlink="http://www.w3.org/1999/xlink"
xmlns="http://www.w3.org/2000/svg">
<!-- Generated by PQINA - https://pqina.nl/ -->
<title></title>
<g transform="rotate(0 39.875 39.875) translate(39.875 39.875) scale(1) translate(-39.875 -39.875) translate(0 -4.4345)">
<g transform="scale(1 1) translate(0 0)">
<svg xmlns="http://www.w3.org/2000/svg" width="79.75" height="88.619" viewBox="0 0 79.75 88.619" style="overflow: visible;">
  <defs>
    <style>
      .cls-1 {
        fill: #fff;
      }
    </style>
  </defs>
  <path id="goal" class="cls-1" d="M79.114,11.913,75.327,8.578l3.787-3.334a1.869,1.869,0,0,0-1.235-3.272H62.208V1.3a1.3,1.3,0,0,0-2.6,0V18.815L48.943,24.608a4.109,4.109,0,0,0-.422-1.364l-1.5-2.934a4.109,4.109,0,0,0-5.524-1.782l-1.162.595a4.1,4.1,0,0,0-1.782,5.524l1.5,2.935a4.079,4.079,0,0,0,1.479,1.607,11.378,11.378,0,0,0-1.566,3.768l-.28.991a1.3,1.3,0,0,0,.9,1.6,1.279,1.279,0,0,0,.354.049,1.3,1.3,0,0,0,1.249-.946l.28-.989c.569-2.007.919-3.082,2.032-3.687l2-1.084.246-.126c.082-.042.158-.089.236-.136L61.2,20.911a5.5,5.5,0,0,1-2.622,4.414l-9.247,5.618-.032.019L46.416,32.71a1.3,1.3,0,0,0,1.241,2.278l-2.184,6.6-1.6.654-4.341,1.779L40.787,39.6a1.3,1.3,0,0,0-2.5-.707l-1.976,6.989a1.247,1.247,0,0,0-.047.283l-.517,9.5a4.347,4.347,0,0,1-.106,1.4L29.9,69.152H25.722a4.439,4.439,0,0,0-4.435,4.434v3.749a4.4,4.4,0,0,0-1.836-.4H8.851a4.439,4.439,0,0,0-4.434,4.434v4.652H1.3a1.3,1.3,0,0,0,0,2.6H77.877a1.3,1.3,0,1,0,0-2.6H74.5V52.544a4.439,4.439,0,0,0-4.434-4.434H62.208V25.451a8.1,8.1,0,0,0,1.3-6.942,1.3,1.3,0,0,0-1.3-.953V15.185h15.67a1.869,1.869,0,0,0,1.236-3.272Zm-38.345,10.4a1.5,1.5,0,0,1,.747-.879l1.162-.595a1.507,1.507,0,0,1,2.028.654l1.5,2.935a1.509,1.509,0,0,1-.5,1.936l-.423.229-.893.458a1.508,1.508,0,0,1-2.028-.654l-1.5-2.934A1.5,1.5,0,0,1,40.769,22.313Zm-2.61,47.239a4.408,4.408,0,0,0-1.426-.38l1.426-1.894Zm6.167-10.465a4.894,4.894,0,0,0,.936-2.327c.035-.168.676-3.669.676-3.669s.606.378.67.4a.138.138,0,0,1,.08.114l.707,7.182H43.042Zm7.681-7.169-1.1,8.868H50l-.731-7.43a2.736,2.736,0,0,0-1.53-2.2l-1.306-.828.87-4.823s3.666,4.355,3.751,4.466C51.817,50.96,52.077,51.355,52.007,51.918ZM37.978,58.2a7.041,7.041,0,0,0,.364-2.411l.472-8.665,6.007-2.462-1.092,6.048c0,.016-.007.033-.009.049l-.9,5a4.948,4.948,0,0,1-.544,1.73L33.5,69.152h-.723ZM7.015,81.369a1.838,1.838,0,0,1,1.836-1.836h10.6a1.838,1.838,0,0,1,1.837,1.836v4.652H7.015Zm16.871,0V73.586a1.839,1.839,0,0,1,1.837-1.836h10.6a1.838,1.838,0,0,1,1.836,1.836V86.021H23.886V81.369ZM71.9,52.544V86.021H57.629V78.234a1.3,1.3,0,0,0-2.6,0v7.787H40.757v-20.8a1.838,1.838,0,0,1,1.836-1.836h10.6a1.838,1.838,0,0,1,1.836,1.836v6.511a1.3,1.3,0,0,0,2.6,0V52.544a1.839,1.839,0,0,1,1.837-1.836h10.6A1.839,1.839,0,0,1,71.9,52.544ZM59.465,48.11a4.439,4.439,0,0,0-4.434,4.434v8.647a4.4,4.4,0,0,0-1.506-.386l1.059-8.568c.208-1.67-.644-2.777-1.467-3.848-.087-.114-5.136-6.108-5.136-6.108l3.1-9.364,8.531-5.183V48.11Zm2.743-35.523V4.57H75.948L72.989,7.176a1.869,1.869,0,0,0,0,2.806l2.959,2.606H62.208Zm0,0"></path>
</svg>
</g>
</g>
</svg>