<svg xmlns="http://www.w3.org/2000/svg" width="103.733" height="117.951" viewBox="0 0 103.733 117.951">
  <g id="people-search" transform="translate(-12 -5.088)">
    <path id="Path_1" data-name="Path 1" d="M32,23a6.722,6.722,0,0,0,6.714-6.714c-.336-8.894-13.091-8.9-13.429,0A6.722,6.722,0,0,0,32,23Zm0-11.429c6.228.2,6.231,9.231,0,9.429C25.771,20.8,25.77,11.769,32,11.571Z" fill="var(--mainColor)"/>
    <path id="Path_2" data-name="Path 2" d="M20.94,34.835A16.807,16.807,0,0,0,40.1,36.923,17.059,17.059,0,0,0,49,22C48.069-.548,15.933-.551,15,22a16.723,16.723,0,0,0,5.94,12.836Zm20.346-1.08a15.029,15.029,0,0,1-18.571,0V30a3.576,3.576,0,0,1,3.571-3.571H37.714A3.576,3.576,0,0,1,41.286,30ZM32,7C45.115,7,51.553,22.626,43.286,31.878V30a5.578,5.578,0,0,0-5.571-5.571H26.286A5.578,5.578,0,0,0,20.714,30v1.878C12.447,22.627,18.884,7,32,7Z" fill="var(--mainColor)"/>
    <path id="Path_3" data-name="Path 3" d="M94.5,24.75a7.169,7.169,0,0,0,7.161-7.161c-.374-9.489-13.946-9.492-14.321,0A7.169,7.169,0,0,0,94.5,24.75Zm0-12.321a5.161,5.161,0,1,1-5.161,5.16,5.166,5.166,0,0,1,5.161-5.16Z" fill="var(--mainColor)"/>
    <path id="Path_4" data-name="Path 4" d="M82.628,37.53a18.022,18.022,0,0,0,20.258,2.4A18.305,18.305,0,0,0,112.75,23.75c-1-24.206-35.5-24.209-36.5,0A17.953,17.953,0,0,0,82.628,37.53Zm21.961-1.068a16.282,16.282,0,0,1-20.179,0V32.375a3.933,3.933,0,0,1,3.929-3.929h12.321a3.933,3.933,0,0,1,3.929,3.929ZM94.5,7.5c14.279,0,21.246,17.094,12.089,27.1V32.375a5.935,5.935,0,0,0-5.929-5.929H88.339a5.935,5.935,0,0,0-5.929,5.929V34.6C73.253,24.6,80.221,7.5,94.5,7.5Z" fill="var(--mainColor)"/>
    <path id="Path_5" data-name="Path 5" d="M114.118,111.841,100.155,95.2a3.876,3.876,0,0,0-4.63-1.011l-10.2-12.15c8.23-9.448,9.887-24.36.571-35.37C70.555,28.3,40.187,37.871,38.2,61.708,36.579,77.2,49.643,91.415,65.211,91.137a26.167,26.167,0,0,0,14.2-4.024L89.556,99.2a3.891,3.891,0,0,0,.192,4.733l13.963,16.641C109.727,127.292,119.637,118.9,114.118,111.841ZM40.192,61.883c.84-12.7,12.467-23.138,24.951-22.871,23.152-.03,34.027,29.116,16.134,44.259C64.33,97.559,38.17,83.946,40.192,61.883ZM83.948,83.508,93.9,95.364,90.994,97.8,81.072,85.978a26.775,26.775,0,0,0,2.876-2.47Zm21.295,35.78L91.28,102.648a1.9,1.9,0,0,1,.232-2.671l4.44-3.72a1.9,1.9,0,0,1,2.67.229l13.963,16.639c3.923,4.99-3.136,10.884-7.343,6.162Z" fill="var(--mainColor)"/>
    <path id="Path_6" data-name="Path 6" d="M86.536,64.067c-1.171-28.347-41.572-28.351-42.744,0C43.6,80.034,61.543,90.748,75.4,82.8A21.4,21.4,0,0,0,86.536,64.067ZM65.164,44.7c17.183,0,25.485,20.765,14.1,32.638V74.254a6.828,6.828,0,0,0-6.821-6.821H57.888a6.828,6.828,0,0,0-6.821,6.821v3.08C39.679,65.461,47.98,44.694,65.164,44.7ZM76.892,79.457a19.416,19.416,0,0,1-23.825-.289V74.254a4.827,4.827,0,0,1,4.821-4.821H72.439a4.827,4.827,0,0,1,4.821,4.821v4.913C77.14,79.267,77.015,79.361,76.892,79.457Z" fill="var(--mainColor)"/>
    <path id="Path_7" data-name="Path 7" d="M65.164,65.067a8.285,8.285,0,0,0,8.276-8.275c-.453-10.976-16.1-10.98-16.551,0a8.285,8.285,0,0,0,8.275,8.275Zm0-14.552a6.283,6.283,0,0,1,6.276,6.276c-.294,8.3-12.257,8.306-12.551,0a6.283,6.283,0,0,1,6.275-6.276Z" fill="var(--mainColor)"/>
    <path id="Path_8" data-name="Path 8" d="M24,53c-.28-7.939-11.719-7.941-12,0C12.282,60.942,23.72,60.939,24,53Zm-6,4a4,4,0,0,1,0-8A4,4,0,0,1,18,57Z" fill="var(--mainColor)"/>
    <path id="Path_9" data-name="Path 9" d="M22,96a10,10,0,0,0,20,0c-.548-13.263-19.451-13.266-20,0Zm2,0a8,8,0,0,1,16,0c-.438,10.61-15.56,10.613-16,0Z" fill="var(--mainColor)"/>
    <path id="Path_10" data-name="Path 10" d="M98,78c.282,7.942,11.72,7.938,12,0C109.72,70.061,98.282,70.059,98,78Zm6,4a4,4,0,0,1,0-8A4,4,0,0,1,104,82Z" fill="var(--mainColor)"/>
  </g>
</svg>
