<svg xmlns="http://www.w3.org/2000/svg" width="85.908" height="81.453" viewBox="0 0 85.908 81.453">
  <path id="trust" d="M.67,64.411l9.46,5.461a1.342,1.342,0,0,0,1.834-.492l.341-.59L17.783,72a5.338,5.338,0,0,0-.2,1.43,5.274,5.274,0,0,0,5.282,5.284c.1,0,.2,0,.306-.01-.006.1-.009.2-.009.3a5.27,5.27,0,0,0,5.282,5.282c.1,0,.2,0,.306-.009-.006.1-.01.2-.01.306a5.27,5.27,0,0,0,5.282,5.282,5.355,5.355,0,0,0,1.106-.116,4.433,4.433,0,0,0,5.92,3.425l.267.266a4.425,4.425,0,0,0,7.5-2.409,5.336,5.336,0,0,0,1.106.117A5.277,5.277,0,0,0,55.2,85.56c.1.006.2.009.3.009a5.273,5.273,0,0,0,5.275-5.587c.1.006.2.009.3.009A5.287,5.287,0,0,0,65.4,71.66L72.8,67.4l1.142,1.979a1.342,1.342,0,0,0,1.834.491l9.46-5.461a1.342,1.342,0,0,0,.491-1.834L73.32,41.089a1.342,1.342,0,0,0-1.833-.491l-9.46,5.462a1.342,1.342,0,0,0-.491,1.834l1.1,1.9-1.568.594a3.19,3.19,0,0,1-2.25.045L48.36,46.948a4.609,4.609,0,0,0-3.563.243l-2.081,1.026c-.02-.012-.039-.024-.059-.035l-2.478-1.309a4.655,4.655,0,0,0-4.347-.027L32.523,48.54a1.728,1.728,0,0,1-.82.22l-7.886.09.553-.958a1.342,1.342,0,0,0-.491-1.834L14.419,40.6a1.342,1.342,0,0,0-1.833.491L.179,62.578A1.342,1.342,0,0,0,.67,64.411ZM21.029,75.269a2.613,2.613,0,0,1,0-3.68l4.72-4.72a2.6,2.6,0,1,1,3.68,3.68l-4.72,4.72a2.605,2.605,0,0,1-3.68,0Zm5.578,5.578a2.613,2.613,0,0,1,0-3.679h0l4.72-4.72a2.6,2.6,0,1,1,3.68,3.68l-4.72,4.72a2.605,2.605,0,0,1-3.68,0Zm5.578,5.578a2.6,2.6,0,0,1,0-3.68l4.72-4.72a2.6,2.6,0,1,1,3.68,3.68,1.343,1.343,0,0,0-.125.146,4.444,4.444,0,0,0-.4.354L36.366,85.9a4.476,4.476,0,0,0-.355.4,1.35,1.35,0,0,0-.145.124,2.6,2.6,0,0,1-3.68,0Zm6.079,3.838a1.745,1.745,0,0,1,0-2.467L41.958,84.1a1.744,1.744,0,0,1,2.466,2.466l-3.693,3.693a1.753,1.753,0,0,1-2.466,0Zm7.418,1.281a1.745,1.745,0,0,1-2.45.014L45.7,89.094a1.745,1.745,0,0,1-.015,2.45Zm6.079-3.838a2.6,2.6,0,0,1-3.68,0,1.324,1.324,0,0,0-.146-.125,4.442,4.442,0,0,0-.354-.4l-.257-.257a4.422,4.422,0,0,0-3.411-5.952,5.327,5.327,0,0,0,.024-2.1,2.6,2.6,0,0,1,3.1.432l4.72,4.72a2.6,2.6,0,0,1,0,3.68Zm5.578-5.578a2.614,2.614,0,0,1-3.68,0l-4.72-4.72a2.6,2.6,0,1,1,3.678-3.681h0l4.72,4.72a2.6,2.6,0,0,1,0,3.68Zm5.578-5.578a2.6,2.6,0,0,1-3.679,0l-4.72-4.72a2.6,2.6,0,1,1,3.68-3.68l4.72,4.721a2.613,2.613,0,0,1,0,3.68Zm8.75-32.956L82.732,62.757,75.6,66.877,64.532,47.713Zm-25.684,6a1.9,1.9,0,0,1,1.527-.1L57.966,52.98a5.9,5.9,0,0,0,4.05-.082l1.977-.749,7.465,12.929L63.5,69.655l-3.4-3.4a5.266,5.266,0,0,0-1.22-.909l-10.7-8.022a4.433,4.433,0,0,0-2.339-.872l-1.572-.139a4.641,4.641,0,0,0-4.446,2.27l-2.084,3.428a.308.308,0,0,1-.328.158l-3.171-.4a.336.336,0,0,1-.281-.424l1.661-5.889a1.915,1.915,0,0,1,1.048-1.259Zm-14.25,1.846a4.385,4.385,0,0,0,2.013-.515l3.308-1.695a1.952,1.952,0,0,1,1.871.011l.821.433-4.273,2.106a4.582,4.582,0,0,0-2.445,2.938l-1.661,5.889A3.02,3.02,0,0,0,33.9,64.43l3.171.4A2.983,2.983,0,0,0,40.026,63.4l2.085-3.428a1.98,1.98,0,0,1,1.916-.991l1.572.139a1.756,1.756,0,0,1,.965.346l7.612,5.706a5.272,5.272,0,0,0-3.1,4.816c0,.1,0,.2.009.3A5.273,5.273,0,0,0,45.5,75.569c0,.1,0,.2.009.3a5.3,5.3,0,0,0-2.729.576c-.093-.11-.19-.218-.294-.321a5.274,5.274,0,0,0-4.044-1.536c.006-.1.009-.2.009-.3a5.274,5.274,0,0,0-5.585-5.276,5.287,5.287,0,0,0-9.013-4.042L19.14,69.683l-5.493-3.217,8.61-14.913Zm-17.494-7.85,7.135,4.119L10.31,66.877,3.175,62.757Zm28.714,1.154a15.73,15.73,0,1,0-15.73-15.73,15.73,15.73,0,0,0,15.73,15.73Zm0-28.776A13.046,13.046,0,1,1,29.907,29.018,13.046,13.046,0,0,1,42.953,15.972ZM36.982,29.081A1.342,1.342,0,1,1,39.153,27.5l2.055,2.828,6.84-5.6a1.342,1.342,0,1,1,1.7,2.077l-7.94,6.5a1.342,1.342,0,0,1-1.936-.249Z" transform="translate(0.001 -13.287)" fill="#fff"/>
</svg>
