<svg xmlns="http://www.w3.org/2000/svg" width="512" height="498.885" viewBox="0 0 512 498.885">
  <g id="_020-analysis" data-name="020-analysis" transform="translate(0 -6.558)">
    <path id="Path_20" data-name="Path 20" d="M326.623,133.062a25.029,25.029,0,1,0-19.975-9.986l-41.076,57.4a24.931,24.931,0,0,0-24.8,5.462L213.392,170.4a25,25,0,1,0-48.878,0l-27.379,15.536a24.963,24.963,0,1,0,7.422,13.036l27.379-15.536a24.937,24.937,0,0,0,34.034,0l27.379,15.536a25,25,0,1,0,44.414-9.759l41.076-57.4A24.923,24.923,0,0,0,326.623,133.062Zm0-35a10,10,0,1,1-10,10A10.012,10.012,0,0,1,326.623,98.061ZM120.115,214.231a10,10,0,1,1,10-10A10.012,10.012,0,0,1,120.115,214.231Zm68.836-39.085a10,10,0,1,1,10-10A10.012,10.012,0,0,1,188.951,175.146Zm68.836,39.085a10,10,0,1,1,10-10A10.012,10.012,0,0,1,257.787,214.231Z" fill="var(--mainColor)"/>
    <path id="Path_21" data-name="Path 21" d="M418.8,376.965H21.215A6.222,6.222,0,0,1,15,370.75V61.331a6.222,6.222,0,0,1,6.215-6.215H56.571a7.5,7.5,0,0,0,0-15H21.215A21.239,21.239,0,0,0,0,61.331V370.75a21.239,21.239,0,0,0,21.215,21.215H72.928v16.506a17.072,17.072,0,0,0,17.053,17.053h75.074l-35.34,69a7.5,7.5,0,1,0,13.35,6.838l38.843-75.836H264.83l38.843,75.836a7.5,7.5,0,1,0,13.35-6.838l-35.34-69h75.074a17.072,17.072,0,0,0,17.053-17.053V391.965H418.8a7.5,7.5,0,0,0,0-15ZM358.81,408.471a2.055,2.055,0,0,1-2.053,2.053H89.981a2.055,2.055,0,0,1-2.053-2.053V391.965H358.81Z" fill="var(--mainColor)"/>
    <path id="Path_22" data-name="Path 22" d="M86.571,55.116H425.522a6.222,6.222,0,0,1,6.215,6.215v71.311a7.5,7.5,0,1,0,15,0V61.331a21.239,21.239,0,0,0-21.215-21.215H264.995V25.374A18.838,18.838,0,0,0,246.178,6.558H200.56a18.838,18.838,0,0,0-18.817,18.816V40.116H86.571a7.5,7.5,0,0,0,0,15ZM196.743,25.374a3.821,3.821,0,0,1,3.817-3.816h45.618a3.821,3.821,0,0,1,3.817,3.816V40.116H196.744V25.374Z" fill="var(--mainColor)"/>
    <path id="Path_23" data-name="Path 23" d="M104.9,267.576a7.5,7.5,0,0,0-7.5,7.5v66.272a7.5,7.5,0,0,0,7.5,7.5h30.427a7.5,7.5,0,0,0,7.5-7.5V275.076a7.5,7.5,0,0,0-7.5-7.5Zm22.927,66.273H112.4V282.577h15.427Z" fill="var(--mainColor)"/>
    <path id="Path_24" data-name="Path 24" d="M173.737,229.248a7.5,7.5,0,0,0-7.5,7.5v104.6a7.5,7.5,0,0,0,7.5,7.5h30.427a7.5,7.5,0,0,0,7.5-7.5v-104.6a7.5,7.5,0,0,0-7.5-7.5Zm22.928,104.6H181.238v-89.6h15.427Z" fill="var(--mainColor)"/>
    <path id="Path_25" data-name="Path 25" d="M242.573,267.576a7.5,7.5,0,0,0-7.5,7.5v66.272a7.5,7.5,0,0,0,7.5,7.5H273a7.5,7.5,0,0,0,7.5-7.5V275.076a7.5,7.5,0,0,0-7.5-7.5ZM265.5,333.849H250.073V282.577H265.5Z" fill="var(--mainColor)"/>
    <path id="Path_26" data-name="Path 26" d="M311.409,311.832a7.5,7.5,0,0,0-7.5,7.5v22.017a7.5,7.5,0,0,0,7.5,7.5h30.427a7.5,7.5,0,1,0,0-15H318.909V319.332A7.5,7.5,0,0,0,311.409,311.832Z" fill="var(--mainColor)"/>
    <path id="Path_27" data-name="Path 27" d="M508.175,384.019l-43.027-74.526a98.076,98.076,0,1,0-96.979,27.676,98.565,98.565,0,0,0,25.53,3.382A96.8,96.8,0,0,0,415.776,338l43.018,74.528a28.51,28.51,0,1,0,49.381-28.51ZM372.051,322.68a83.028,83.028,0,1,1,63-8.295A82.489,82.489,0,0,1,372.051,322.68Zm118.191,87.293a13.525,13.525,0,0,1-18.456-4.942l-41.388-71.7a98.445,98.445,0,0,0,23.386-13.517l41.4,71.707a13.5,13.5,0,0,1-4.942,18.456Z" fill="var(--mainColor)"/>
    <path id="Path_28" data-name="Path 28" d="M461.542,263.611a70.976,70.976,0,0,0-3.551-51.416,7.5,7.5,0,1,0-13.569,6.392,56.175,56.175,0,1,1-16.935-20.927,7.5,7.5,0,1,0,9.05-11.961,71.222,71.222,0,1,0,25,77.912Z" fill="var(--mainColor)"/>
  </g>
</svg>
