<?xml version="1.0" encoding="UTF-8"?>
<svg width="69.598" height="69.598" 
viewBox="0 0 69.598 69.598" 
preserveAspectRatio="xMinYMin"
xmlns:xlink="http://www.w3.org/1999/xlink"
xmlns="http://www.w3.org/2000/svg">
<!-- Generated by PQINA - https://pqina.nl/ -->
<title></title>
<g transform="rotate(0 34.799 34.799) translate(34.799 34.799) scale(1) translate(-34.799 -34.799) translate(0 -0.7484999999999999)">
<g transform="scale(1 1) translate(0 0)">
<svg id="success" xmlns="http://www.w3.org/2000/svg" width="69.598" height="71.095" viewBox="0 0 69.598 71.095" style="overflow: visible;">
  <defs>
    <style>
      .cls-1 {
        fill: var(--mainColor);
      }
    </style>
  </defs>
  <path id="Path_38344" data-name="Path 38344" class="cls-1" d="M.3,66.371l.922,2.074L34.289,54.733l5.761.691,2.074,6.338-2.765,2.651a3.321,3.321,0,0,0-.806,3.8L39.705,71.1l19.128-7.49L57.8,60.84a3.258,3.258,0,0,0-3.226-2.189h-3.8L48.693,53.7l5.07-2.535A3.463,3.463,0,0,0,55.492,46.9l-6.568-17.63a3.55,3.55,0,0,0-4.494-2.074.113.113,0,0,0-.115.115l-4.84,2.074-.691-1.728,2.651-3.111a13.56,13.56,0,0,0,3.342-7.375l3.342-4.033a6.051,6.051,0,0,0-.807-8.527,9.645,9.645,0,0,0-1.382-.922,5.726,5.726,0,0,0-3.918-.345L41.664,2.3A3.332,3.332,0,0,0,37.286.229L12.972,8.987A3.372,3.372,0,0,0,10.9,13.365v.115l.576,1.5a6.384,6.384,0,0,0-3.342,7.836,6.554,6.554,0,0,0,5.3,4.263l5.416.576a15.006,15.006,0,0,0,7.49,2.881l3.8.346.691,1.728a3.432,3.432,0,0,0-1.613,2.3l-.807,3.918L.3,50.239,1.1,52.428l16.132-6.452,3.918,11.753Zm55.195-4.839.231.691L40.973,68.1l-.345-.691a1.6,1.6,0,0,1,.231-1.267l3.918-3.688L49.73,60.84h4.609A1.156,1.156,0,0,1,55.492,61.532Zm-7.259-2.766-4.148,1.383-1.5-4.378a2.562,2.562,0,0,0,1.843-.346l1.959-.922ZM45.121,29.037a1.144,1.144,0,0,1,1.5.576l.922,2.42-5.646,1.844.691,2.189,5.646-1.844,1.382,3.688L44.2,39.753l.691,2.19L50.422,40.1,51.8,43.786l-5.3,1.728L47.2,47.7l5.415-1.844.576,1.5a1.017,1.017,0,0,1-.576,1.383l-9.1,4.494a1.461,1.461,0,0,1-.691.115l-7.835-.922-4.264-12.79.807-4.264a1.219,1.219,0,0,1,.691-.807ZM45.006,5.76a3.817,3.817,0,0,1,1.959,4.955,4.037,4.037,0,0,1-.576.922l-1.383,1.728a17.22,17.22,0,0,0-.691-3.342l-1.5-4.494A4.6,4.6,0,0,1,45.006,5.76ZM10.437,22.238A3.969,3.969,0,0,1,12.4,17.283L14.009,21.2a16.694,16.694,0,0,0,2.3,3.918l-2.42-.231A3.854,3.854,0,0,1,10.437,22.238ZM26.8,28.345a12.593,12.593,0,0,1-10.6-7.951l-3-7.605a1.143,1.143,0,0,1,.576-1.5L38.092,2.534a1.272,1.272,0,0,1,.922,0,1.181,1.181,0,0,1,.576.691l2.535,7.605a12.666,12.666,0,0,1-2.419,12.214l-3.572,4.148,1.037,2.765-4.148,1.728L31.87,28.806ZM19.425,45.054l2.65-1.037,2.881,8.758,2.189-.691-3-8.988,4.609-1.844,3.918,11.638-9.334,3.918Zm0,0" transform="translate(-0.297 0)"></path>
  <path id="Path_38345" data-name="Path 38345" class="cls-1" d="M361.258,50.972v1.152h2.3V50.972a5.706,5.706,0,0,1,5.762-5.761v-2.3a5.705,5.705,0,0,1-5.762-5.761V35.992h-2.3v1.152a5.705,5.705,0,0,1-5.761,5.761v2.3A5.705,5.705,0,0,1,361.258,50.972Zm1.152-9.679a7.94,7.94,0,0,0,2.765,2.765,7.946,7.946,0,0,0-2.765,2.766,7.948,7.948,0,0,0-2.765-2.766A7.942,7.942,0,0,0,362.41,41.293Zm0,0" transform="translate(-304.334 -30.808)"></path>
  <path id="Path_38346" data-name="Path 38346" class="cls-1" d="M9.258,210.972v1.152h2.3v-1.152a5.706,5.706,0,0,1,5.761-5.761v-2.3a5.705,5.705,0,0,1-5.761-5.761v-1.152h-2.3v1.152A5.705,5.705,0,0,1,3.5,202.906v2.3A5.705,5.705,0,0,1,9.258,210.972Zm1.152-9.679a7.941,7.941,0,0,0,2.765,2.765,7.947,7.947,0,0,0-2.765,2.766,7.947,7.947,0,0,0-2.765-2.766A7.941,7.941,0,0,0,10.41,201.293Zm0,0" transform="translate(-3.035 -167.762)"></path>
  <path id="Path_38347" data-name="Path 38347" class="cls-1" d="M395.562,197.144v-1.152h-2.3v1.152a5.705,5.705,0,0,1-5.761,5.761v2.3a5.705,5.705,0,0,1,5.761,5.761v1.152h2.3v-1.152a5.706,5.706,0,0,1,5.761-5.761v-2.3A5.705,5.705,0,0,1,395.562,197.144Zm-1.152,9.68a7.947,7.947,0,0,0-2.765-2.766,7.941,7.941,0,0,0,2.765-2.765,7.941,7.941,0,0,0,2.765,2.765A7.947,7.947,0,0,0,394.41,206.824Zm0,0" transform="translate(-331.725 -167.762)"></path>
  <path id="Path_38348" data-name="Path 38348" class="cls-1" d="M236.528,54.742l1.613,1.613c6.338-6.338.461-16.017.115-16.363L236.3,41.26C236.412,41.26,241.6,49.672,236.528,54.742Zm0,0" transform="translate(-202.304 -34.232)"></path>
</svg>
</g>
</g>
</svg>