<svg xmlns="http://www.w3.org/2000/svg" xmlns:xlink="http://www.w3.org/1999/xlink" width="512" height="454.999" viewBox="0 0 512 454.999">
  <defs>
    <clipPath id="clip-path">
      <rect width="512" height="454.999" fill="none"/>
    </clipPath>
  </defs>
  <g id="pay-per-post" clip-path="url(#clip-path)">
    <g id="pay-per-post-2" data-name="pay-per-post" transform="translate(0 -28.501)">
      <g id="Group_40441" data-name="Group 40441">
        <path id="Path_38411" data-name="Path 38411" d="M476.62,38.5A25.376,25.376,0,0,1,502,63.881v263.74H10V63.881A25.376,25.376,0,0,1,35.38,38.5Z" fill="none" stroke="#52b8f1" stroke-linecap="round" stroke-linejoin="round" stroke-miterlimit="10" stroke-width="20"/>
        <path id="Path_38412" data-name="Path 38412" d="M345.17,440.83V473.5H166.84V440.83l48.58-16.2V382.79h80.16v41.84Z" fill="none" stroke="#52b8f1" stroke-linecap="round" stroke-linejoin="round" stroke-miterlimit="10" stroke-width="20"/>
        <path id="Path_38413" data-name="Path 38413" d="M163.574,382.79h313.05A25.376,25.376,0,0,0,502,357.414V327.625H10v29.789A25.376,25.376,0,0,0,35.376,382.79H75.6" fill="none" stroke="#52b8f1" stroke-linecap="round" stroke-linejoin="round" stroke-miterlimit="10" stroke-width="20"/>
      </g>
      <path id="Path_38414" data-name="Path 38414" d="M353.048,227.011H312.725a18.468,18.468,0,0,1-18.468-18.468V177.362a18.467,18.467,0,0,1,18.468-18.468H432.537A18.467,18.467,0,0,1,451,177.362V183.9" fill="none" stroke="#52b8f1" stroke-linecap="round" stroke-linejoin="round" stroke-miterlimit="10" stroke-width="20"/>
      <line id="Line_402" data-name="Line 402" transform="translate(119.609 382.79)" fill="none" stroke="#52b8f1" stroke-linecap="round" stroke-linejoin="round" stroke-miterlimit="10" stroke-width="20"/>
      <path id="Path_38415" data-name="Path 38415" d="M230.62,282.608H81.232a17.8,17.8,0,0,1-17.8-17.8V103.559a17.8,17.8,0,0,1,17.8-17.8H230.62a17.8,17.8,0,0,1,17.8,17.8V264.8A17.8,17.8,0,0,1,230.62,282.608Z" fill="none" stroke="#52b8f1" stroke-linecap="round" stroke-linejoin="round" stroke-miterlimit="10" stroke-width="20"/>
      <g id="Group_40443" data-name="Group 40443">
        <g id="Group_40442" data-name="Group 40442">
          <path id="Path_38416" data-name="Path 38416" d="M171.583,149.07s-8.973-8.277-22.805-4.11c-12.7,3.826-15.854,21.2-7.224,27.972,4.956,3.887,12.412,7.083,22.462,10.635,22.492,7.95,14.177,39.67-8.7,39.822-8.928.059-13.1-.507-20.946-5.638" fill="none" stroke="#52b8f1" stroke-linecap="round" stroke-linejoin="round" stroke-miterlimit="10" stroke-width="20"/>
          <line id="Line_403" data-name="Line 403" y2="13.742" transform="translate(155.314 130.08)" fill="none" stroke="#52b8f1" stroke-linecap="round" stroke-linejoin="round" stroke-miterlimit="10" stroke-width="20"/>
        </g>
        <line id="Line_404" data-name="Line 404" y2="13.904" transform="translate(155.314 223.39)" fill="none" stroke="#52b8f1" stroke-linecap="round" stroke-linejoin="round" stroke-miterlimit="10" stroke-width="20"/>
      </g>
      <path id="Path_38417" data-name="Path 38417" d="M380.974,197.578l15.882,58.866,21.492-21.492,21.493-21.493Z" fill="none" stroke="#52b8f1" stroke-linecap="round" stroke-linejoin="round" stroke-miterlimit="10" stroke-width="20"/>
      <line id="Line_405" data-name="Line 405" x2="32.656" y2="32.656" transform="translate(418.348 234.952)" fill="none" stroke="#52b8f1" stroke-linecap="round" stroke-linejoin="round" stroke-miterlimit="10" stroke-width="20"/>
      <line id="Line_406" data-name="Line 406" x2="143.232" transform="translate(302.772 115.635)" fill="none" stroke="#52b8f1" stroke-linecap="round" stroke-linejoin="round" stroke-miterlimit="10" stroke-width="20"/>
    </g>
  </g>
</svg>
