<svg xmlns="http://www.w3.org/2000/svg" width="95.991" height="83.192" viewBox="0 0 95.991 83.192">
  <g id="responsive" transform="translate(0 -32)">
    <g id="Group_40424" data-name="Group 40424" transform="translate(0 32)">
      <g id="Group_40423" data-name="Group 40423">
        <path id="Path_38394" data-name="Path 38394" d="M91.192,73.6h-1.6V40a8.009,8.009,0,0,0-8-8H14.4a8.009,8.009,0,0,0-8,8V64H4.8A4.8,4.8,0,0,0,0,68.8v41.6a4.8,4.8,0,0,0,4.8,4.8H65.594a1.6,1.6,0,0,0,1.6-1.6,8.009,8.009,0,0,0-8-8H54.4v-9.6h19.2v14.4a4.8,4.8,0,0,0,4.8,4.8h12.8a4.8,4.8,0,0,0,4.8-4.8v-32A4.8,4.8,0,0,0,91.192,73.6ZM35.2,110.393a1.6,1.6,0,0,1-1.6,1.6H4.8a1.6,1.6,0,0,1-1.6-1.6v-1.6h32Zm0-4.8H3.2V68.8a1.6,1.6,0,0,1,1.6-1.6H33.6a1.6,1.6,0,0,1,1.6,1.6Zm24,3.2a4.809,4.809,0,0,1,4.526,3.2H38.1a4.745,4.745,0,0,0,.294-1.6v-1.6Zm-20.8-3.2v-9.6h3.2v9.6Zm6.4,0v-9.6h6.4v9.6Zm28.8-12.8H38.4V83.2h35.2Zm0-14.4V80H38.4V68.8a4.742,4.742,0,0,0-.547-2.177c.024-.022.056-.029.078-.053L53.766,50.728A1.6,1.6,0,0,0,51.5,48.466L35.666,64.3c-.038.04-.054.091-.088.133A4.739,4.739,0,0,0,33.6,64H9.6V40a4.8,4.8,0,0,1,4.8-4.8H81.593a4.8,4.8,0,0,1,4.8,4.8V73.6h-8A4.8,4.8,0,0,0,73.593,78.4Zm19.2,32a1.6,1.6,0,0,1-1.6,1.6h-12.8a1.6,1.6,0,0,1-1.6-1.6v-1.6h16Zm0-4.8h-16V78.4a1.6,1.6,0,0,1,1.6-1.6h12.8a1.6,1.6,0,0,1,1.6,1.6Z" transform="translate(0 -32)" fill="var(--mainColor)"/>
      </g>
    </g>
    <g id="Group_40426" data-name="Group 40426" transform="translate(9.579 83.002)">
      <g id="Group_40425" data-name="Group 40425">
        <path id="Path_38395" data-name="Path 38395" d="M57.439,287.5a1.6,1.6,0,0,0-2.262,0l-6.787,6.787a1.6,1.6,0,0,0,2.223,2.3l.039-.039,6.787-6.787C57.725,289.269,57.151,288.328,57.439,287.5Z" transform="translate(-47.902 -287.034)" fill="var(--mainColor)"/>
      </g>
    </g>
    <g id="Group_40428" data-name="Group 40428" transform="translate(19.179 83.021)">
      <g id="Group_40427" data-name="Group 40427">
        <path id="Path_38396" data-name="Path 38396" d="M105.4,287.58a1.6,1.6,0,0,0-2.223,0l-6.787,6.787a1.6,1.6,0,1,0,2.223,2.3l.039-.039,6.787-6.787A1.6,1.6,0,0,0,105.4,287.58Z" transform="translate(-95.902 -287.131)" fill="var(--mainColor)"/>
      </g>
    </g>
    <g id="Group_40430" data-name="Group 40430" transform="translate(44.936 48.018)">
      <g id="Group_40429" data-name="Group 40429">
        <path id="Path_38397" data-name="Path 38397" d="M243.252,112.548a1.6,1.6,0,0,0-2.223,0L225.19,128.386a1.6,1.6,0,0,0,2.223,2.3l.039-.039,15.839-15.839A1.6,1.6,0,0,0,243.252,112.548Z" transform="translate(-224.702 -112.098)" fill="var(--mainColor)"/>
      </g>
    </g>
    <g id="Group_40432" data-name="Group 40432" transform="translate(80.911 87.352)">
      <g id="Group_40431" data-name="Group 40431">
        <path id="Path_38398" data-name="Path 38398" d="M411.826,309.235a1.6,1.6,0,0,0-2.223,0l-4.524,4.524a1.6,1.6,0,1,0,2.223,2.3l.039-.039,4.524-4.524A1.6,1.6,0,0,0,411.826,309.235Z" transform="translate(-404.59 -308.786)" fill="var(--mainColor)"/>
      </g>
    </g>
    <g id="Group_40434" data-name="Group 40434" transform="translate(46.42 86.395)">
      <g id="Group_40433" data-name="Group 40433">
        <path id="Path_38399" data-name="Path 38399" d="M233.728,304h-.016a1.608,1.608,0,1,0,.016,0Z" transform="translate(-232.12 -304)" fill="var(--mainColor)"/>
      </g>
    </g>
    <g id="Group_40436" data-name="Group 40436" transform="translate(43.196 38.399)">
      <g id="Group_40435" data-name="Group 40435">
        <path id="Path_38400" data-name="Path 38400" d="M224,64h-6.4a1.6,1.6,0,0,0,0,3.2H224a1.6,1.6,0,0,0,0-3.2Z" transform="translate(-216 -64)" fill="var(--mainColor)"/>
      </g>
    </g>
  </g>
</svg>
