<svg id="surface1" xmlns="http://www.w3.org/2000/svg" width="512" height="512.004" viewBox="0 0 512 512.004">
  <path id="Path_1" data-name="Path 1" d="M489.5,217.5a22.538,22.538,0,0,0-21.211,15H425.5v-8.75a7.5,7.5,0,0,0-15,0v36.563c0,37.4-12.539,72.621-35.309,99.164C343.391,396.535,303.3,424.715,256,443.25c-42.285-16.57-78.922-40.926-108.906-72.4A7.5,7.5,0,0,0,136.23,381.2,306.308,306.308,0,0,0,169.5,411.32v56.973a22.5,22.5,0,1,0,15,0V422.309a326.518,326.518,0,0,0,67.32,35.414,11.566,11.566,0,0,0,8.356,0c50.168-19.43,92.7-49.2,126.4-88.481a160.8,160.8,0,0,0,33.11-63.742h25.351a22.5,22.5,0,1,0,0-15h-22.09a178.641,178.641,0,0,0,2.551-30.187V247.5h42.789a22.5,22.5,0,1,0,21.211-30ZM177,497a7.5,7.5,0,1,1,7.5-7.5A7.507,7.507,0,0,1,177,497ZM466.25,290.5a7.5,7.5,0,1,1-7.5,7.5A7.507,7.507,0,0,1,466.25,290.5Zm23.25-43A7.5,7.5,0,1,1,497,240,7.507,7.507,0,0,1,489.5,247.5Zm0,0" fill="var(--mainColor)"/>
  <path id="Path_2" data-name="Path 2" d="M101.5,260.313V123.875c27.512-6.5,56.094-18.625,85.008-36.059a134.282,134.282,0,0,1,138.984,0,348.208,348.208,0,0,0,38.332,20.079c.141.066.281.132.43.187A265.813,265.813,0,0,0,410.5,123.875v67.789a7.5,7.5,0,0,0,15,0V121.121a11.46,11.46,0,0,0-8.789-11.211A244.622,244.622,0,0,1,374.5,96.176V43.711a22.5,22.5,0,1,0-15,0V89.328q-13.037-6.393-26.262-14.355a149.239,149.239,0,0,0-154.472,0C150.2,92.188,122.117,103.945,95.289,109.91A11.461,11.461,0,0,0,86.5,121.121V166.5H43.711a22.5,22.5,0,1,0,0,15H86.5v43H66.961a22.5,22.5,0,1,0,0,15H86.5v20.813c0,35.945,10.383,69.66,30.02,97.5a7.5,7.5,0,1,0,12.257-8.649C110.934,323.867,101.5,293.145,101.5,260.313ZM367,15a7.5,7.5,0,1,1-7.5,7.5A7.507,7.507,0,0,1,367,15ZM22.5,181.5A7.5,7.5,0,1,1,30,174,7.507,7.507,0,0,1,22.5,181.5Zm23.25,58a7.5,7.5,0,1,1,7.5-7.5A7.507,7.507,0,0,1,45.75,239.5Zm0,0" fill="var(--mainColor)"/>
  <path id="Path_3" data-name="Path 3" d="M173.492,129.152a7.5,7.5,0,1,0-6.652-13.445,309.965,309.965,0,0,1-42.348,17.313,11.465,11.465,0,0,0-7.992,10.945V260.313c0,33.824,11.254,65.57,31.688,89.39,27.972,32.6,62.843,58.039,103.648,75.617a10.566,10.566,0,0,0,8.332,0c40.8-17.574,75.668-43.011,103.637-75.609,20.437-23.828,31.7-55.574,31.7-89.4V143.965a11.465,11.465,0,0,0-7.992-10.945c-22.852-7.34-46.32-18.227-69.758-32.356a119.659,119.659,0,0,0-123.5,0l-1.594.957a7.5,7.5,0,0,0,7.68,12.887q.833-.5,1.66-1a104.65,104.65,0,0,1,108.012,0c23.605,14.23,47.308,25.324,70.492,33v113.8c0,30.246-9.973,58.527-28.078,79.632-26.067,30.379-58.5,54.2-96.422,70.832-37.926-16.632-70.359-40.457-96.426-70.835-18.105-21.106-28.074-49.383-28.074-79.629v-113.8A327.25,327.25,0,0,0,173.492,129.152Zm0,0" fill="var(--mainColor)"/>
  <path id="Path_4" data-name="Path 4" d="M256,175.5A37.542,37.542,0,0,0,218.5,213v12.5H216A17.522,17.522,0,0,0,198.5,243v60A17.522,17.522,0,0,0,216,320.5h80A17.522,17.522,0,0,0,313.5,303V243A17.522,17.522,0,0,0,296,225.5h-2.5V213A37.539,37.539,0,0,0,256,175.5ZM233.5,213a22.5,22.5,0,0,1,45,0v12.5h-45Zm65,30v60a2.5,2.5,0,0,1-2.5,2.5H216a2.5,2.5,0,0,1-2.5-2.5V243a2.5,2.5,0,0,1,2.5-2.5h80A2.5,2.5,0,0,1,298.5,243Zm0,0" fill="var(--mainColor)"/>
  <path id="Path_5" data-name="Path 5" d="M256,243a22.5,22.5,0,0,0-7.5,43.711V295.5a7.5,7.5,0,0,0,15,0v-8.789A22.5,22.5,0,0,0,256,243Zm0,30a7.5,7.5,0,1,1,7.5-7.5A7.507,7.507,0,0,1,256,273Zm0,0" fill="var(--mainColor)"/>
</svg>
