<svg xmlns="http://www.w3.org/2000/svg" width="440.224" height="511.941" viewBox="0 0 440.224 511.941">
  <g id="Layer_x0020_1" transform="translate(-35.89 -0.029)">
    <g id="_306727904">
      <g id="Group_9" data-name="Group 9">
        <g id="Group_1" data-name="Group 1">
          <g id="_306725720">
            <path id="Path_1" data-name="Path 1" d="M452.62,511.97H59.38a23.522,23.522,0,0,1-23.49-23.5V23.53A23.522,23.522,0,0,1,59.38.03H366.8a6,6,0,0,1,6,6V85.04h97.31a6,6,0,0,1,6,6V488.47a23.515,23.515,0,0,1-23.49,23.5ZM59.38,12.03a11.514,11.514,0,0,0-11.5,11.5V488.47a11.514,11.514,0,0,0,11.5,11.5H452.62a11.514,11.514,0,0,0,11.5-11.5V97.04H366.8a6,6,0,0,1-6-6V12.03H59.38Z" fill="var(--mainColor)" fill-rule="evenodd"/>
          </g>
          <g id="_306726104">
            <path id="Path_2" data-name="Path 2" d="M470.11,97.04H366.8a6,6,0,0,1-6-6V6.03a6,6,0,0,1,9.81-4.63L473.92,86.41a6,6,0,0,1-3.81,10.63Zm-97.31-12h80.58L372.8,18.74Z" fill="var(--mainColor)" fill-rule="evenodd"/>
          </g>
        </g>
        <g id="Group_8" data-name="Group 8">
          <g id="Group_6" data-name="Group 6">
            <g id="_306725888">
              <path id="Path_3" data-name="Path 3" d="M153.15,338.39a20.855,20.855,0,1,1,20.86-20.86A20.878,20.878,0,0,1,153.15,338.39Zm0-29.71a8.855,8.855,0,1,0,8.86,8.85A8.86,8.86,0,0,0,153.15,308.68Z" fill="var(--mainColor)" fill-rule="evenodd"/>
            </g>
            <g id="_306725528">
              <path id="Path_4" data-name="Path 4" d="M200.16,397.94a20.855,20.855,0,1,1,20.86-20.85,20.869,20.869,0,0,1-20.86,20.85Zm0-29.71a8.855,8.855,0,1,0,8.86,8.86A8.871,8.871,0,0,0,200.16,368.23Z" fill="var(--mainColor)" fill-rule="evenodd"/>
            </g>
            <g id="_306727640">
              <path id="Path_5" data-name="Path 5" d="M258.26,331.43a20.855,20.855,0,1,1,20.85-20.85,20.878,20.878,0,0,1-20.85,20.85Zm0-29.71a8.855,8.855,0,1,0,8.85,8.86A8.871,8.871,0,0,0,258.26,301.72Z" fill="var(--mainColor)" fill-rule="evenodd"/>
            </g>
            <g id="_306727736">
              <path id="Path_6" data-name="Path 6" d="M334.56,377.39a20.855,20.855,0,1,1,20.85-20.86A20.886,20.886,0,0,1,334.56,377.39Zm0-29.71a8.855,8.855,0,1,0,8.85,8.85A8.862,8.862,0,0,0,334.56,347.68Z" fill="var(--mainColor)" fill-rule="evenodd"/>
            </g>
            <g id="_306728000">
              <path id="Path_7" data-name="Path 7" d="M193.4,369.86a5.984,5.984,0,0,1-4.31-1.83L156.5,334.44a6,6,0,0,1,8.62-8.35l32.59,33.59a6.005,6.005,0,0,1-4.31,10.18Z" fill="var(--mainColor)" fill-rule="evenodd"/>
            </g>
            <g id="_306728072">
              <path id="Path_8" data-name="Path 8" d="M213.21,376a6,6,0,0,1-4.77-9.63l36.07-47.57a6,6,0,1,1,9.56,7.25L218,373.62A5.984,5.984,0,0,1,213.21,376Z" fill="var(--mainColor)" fill-rule="evenodd"/>
            </g>
            <g id="_306728144">
              <path id="Path_9" data-name="Path 9" d="M321.9,354.74a5.932,5.932,0,0,1-3.14-.9l-50.52-31.2a6,6,0,0,1,6.3-10.21l50.52,31.2a6,6,0,0,1-3.16,11.11Z" fill="var(--mainColor)" fill-rule="evenodd"/>
            </g>
            <g id="Group_4" data-name="Group 4">
              <g id="_306728264">
                <path id="Path_10" data-name="Path 10" d="M100.07,469.34a6,6,0,0,1-6-6V194.01a6,6,0,0,1,12,0V463.34A5.992,5.992,0,0,1,100.07,469.34Z" fill="var(--mainColor)" fill-rule="evenodd"/>
              </g>
              <g id="_306728336">
                <path id="Path_11" data-name="Path 11" d="M377.33,469.34H100.07a5.995,5.995,0,1,1,0-11.99H377.33a5.995,5.995,0,1,1,0,11.99Z" fill="var(--mainColor)" fill-rule="evenodd"/>
              </g>
              <g id="Group_2" data-name="Group 2">
                <g id="_306728432">
                  <path id="Path_12" data-name="Path 12" d="M148.06,479.48a6,6,0,0,1-6-5.99V453.2a6,6,0,0,1,12,0v20.29A6,6,0,0,1,148.06,479.48Z" fill="var(--mainColor)" fill-rule="evenodd"/>
                </g>
                <g id="_306728504">
                  <path id="Path_13" data-name="Path 13" d="M208.49,479.48a5.99,5.99,0,0,1-6-5.99V453.2a6,6,0,0,1,12,0v20.29A6,6,0,0,1,208.49,479.48Z" fill="var(--mainColor)" fill-rule="evenodd"/>
                </g>
                <g id="_306728576">
                  <path id="Path_14" data-name="Path 14" d="M268.91,479.48a5.988,5.988,0,0,1-5.99-5.99V453.2a5.995,5.995,0,1,1,11.99,0v20.29A5.99,5.99,0,0,1,268.91,479.48Z" fill="var(--mainColor)" fill-rule="evenodd"/>
                </g>
                <g id="_306728648">
                  <path id="Path_15" data-name="Path 15" d="M329.34,479.48a6,6,0,0,1-6-5.99V453.2a6,6,0,0,1,12,0v20.29A6,6,0,0,1,329.34,479.48Z" fill="var(--mainColor)" fill-rule="evenodd"/>
                </g>
              </g>
              <g id="Group_3" data-name="Group 3">
                <g id="_306728744">
                  <path id="Path_16" data-name="Path 16" d="M110.21,244.04H89.93a6,6,0,0,1,0-12h20.28a6,6,0,1,1,0,12Z" fill="var(--mainColor)" fill-rule="evenodd"/>
                </g>
                <g id="_306728816">
                  <path id="Path_17" data-name="Path 17" d="M110.21,304.46H89.93a6,6,0,0,1,0-12h20.28a6,6,0,1,1,0,12Z" fill="var(--mainColor)" fill-rule="evenodd"/>
                </g>
                <g id="_306728888">
                  <path id="Path_18" data-name="Path 18" d="M110.21,364.89H89.93a6,6,0,0,1,0-12h20.28a6,6,0,1,1,0,12Z" fill="var(--mainColor)" fill-rule="evenodd"/>
                </g>
                <g id="_306728960">
                  <path id="Path_19" data-name="Path 19" d="M110.21,425.32H89.93a6,6,0,0,1,0-12h20.28a6,6,0,1,1,0,12Z" fill="var(--mainColor)" fill-rule="evenodd"/>
                </g>
              </g>
            </g>
            <g id="Group_5" data-name="Group 5">
              <g id="_306727424">
                <path id="Path_20" data-name="Path 20" d="M369.21,287.06c-11.65,0-21.13-7.92-21.13-17.65a5.995,5.995,0,1,1,11.99,0c0,2.67,3.76,5.65,9.14,5.65s9.15-2.98,9.15-5.65-3.76-5.64-9.15-5.64c-11.65,0-21.13-7.92-21.13-17.64s9.48-17.65,21.13-17.65,21.15,7.92,21.15,17.65a6,6,0,0,1-12,0c0-2.67-3.76-5.65-9.15-5.65s-9.14,2.98-9.14,5.65,3.76,5.64,9.15,5.64c11.65,0,21.14,7.92,21.14,17.64s-9.49,17.65-21.15,17.65Z" fill="var(--mainColor)" fill-rule="evenodd"/>
              </g>
              <g id="_306729128">
                <path id="Path_21" data-name="Path 21" d="M369.22,294.05a6,6,0,0,1-6-6V227.49a5.995,5.995,0,1,1,11.99,0v60.56A6,6,0,0,1,369.22,294.05Z" fill="var(--mainColor)" fill-rule="evenodd"/>
              </g>
              <g id="_306729200">
                <path id="Path_22" data-name="Path 22" d="M369.22,313.8h-.06c-11.49-.08-24.18-.26-32.22-.41-20.71-.35-28.8-11.15-31.94-20.14-9.02-25.82,12.63-70.42,36.56-90.14a6,6,0,1,1,7.63,9.26c-20.44,16.85-40.02,56.44-32.86,76.92,2.77,7.95,9.58,11.91,20.81,12.11,8.01.14,20.64.32,32.08.4,11.43-.08,24.06-.26,32.07-.4,11.23-.2,18.04-4.16,20.82-12.11,7.15-20.48-12.43-60.07-32.87-76.92a6,6,0,0,1,7.63-9.26c23.93,19.72,45.58,64.32,36.56,90.14-3.14,8.99-11.23,19.79-31.94,20.14-8.04.15-20.73.33-32.22.41h-.05Z" fill="var(--mainColor)" fill-rule="evenodd"/>
              </g>
              <g id="_306729104">
                <path id="Path_23" data-name="Path 23" d="M393.68,213.74H344.76a16.19,16.19,0,1,1,0-32.38h48.92a16.19,16.19,0,1,1,0,32.38Zm-48.92-20.38a4.19,4.19,0,1,0,0,8.38h48.92a4.248,4.248,0,0,0,4.19-4.19,4.2,4.2,0,0,0-4.19-4.19Z" fill="var(--mainColor)" fill-rule="evenodd"/>
              </g>
              <g id="_306729344">
                <path id="Path_24" data-name="Path 24" d="M347.36,193.36a6,6,0,0,1-5.79-4.45l-9.49-35.44a5.995,5.995,0,0,1,5.79-7.55c4.69,0,8.34,2.87,11.55,5.4a21.172,21.172,0,0,0,4.13,2.81,21.444,21.444,0,0,0,4.12-2.81c3.21-2.53,6.86-5.4,11.55-5.4s8.33,2.87,11.55,5.4a20.887,20.887,0,0,0,4.12,2.8,20.63,20.63,0,0,0,4.13-2.8c3.21-2.53,6.85-5.4,11.55-5.4a6,6,0,0,1,5.79,7.55l-9.5,35.44a6,6,0,0,1-11.59-3.1l5.71-21.29a12.886,12.886,0,0,1-6.09,1.62c-4.69,0-8.33-2.87-11.55-5.4a21.444,21.444,0,0,0-4.12-2.81,21.173,21.173,0,0,0-4.13,2.81c-3.21,2.53-6.85,5.4-11.54,5.4a12.971,12.971,0,0,1-6.09-1.62l5.7,21.29a5.985,5.985,0,0,1-4.24,7.34,5.583,5.583,0,0,1-1.56.21Z" fill="var(--mainColor)" fill-rule="evenodd"/>
              </g>
            </g>
            <g id="_306729416">
              <path id="Path_25" data-name="Path 25" d="M177.09,290.32a5.993,5.993,0,0,1-5.97-5.46c-2.5-27.64,10.41-53.58,37.31-75.01a179.735,179.735,0,0,1,40.48-23.9l-2.65-14.94a6,6,0,0,1,9.34-5.96L304,198.87a5.987,5.987,0,0,1,1.48,8.35l-33.82,48.39a5.992,5.992,0,0,1-10.82-2.38l-2.47-13.92c-46.8,10.97-76.23,48.29-76.53,48.68a6.02,6.02,0,0,1-4.75,2.33Zm80.59-94.97c-3.97,1.5-66.4,25.78-74.09,73.15,14.37-13.91,41.84-35.61,78.55-42.22a5.99,5.99,0,0,1,6.61,3.61v.02h.01v.02a.01.01,0,0,1,.01.01v.01a5.847,5.847,0,0,1,.31,1.03v.01l.03.12v.03l1.02,5.73,22.08-31.61-31.6-22.08.95,5.36a6.174,6.174,0,0,1,.09,1.6,5.8,5.8,0,0,1-.77,2.53,6.051,6.051,0,0,1-1.79,1.95,5.888,5.888,0,0,1-1.41.73Z" fill="var(--mainColor)" fill-rule="evenodd"/>
            </g>
          </g>
          <g id="Group_7" data-name="Group 7">
            <g id="_306729320">
              <path id="Path_26" data-name="Path 26" d="M118.93,149.46a5.991,5.991,0,0,1-4.24-1.76l-36.5-36.5a6,6,0,0,1,4.24-10.24H96.09V38.51a6,6,0,0,1,6-6h33.69a6,6,0,0,1,6,6v62.45h13.65a5.992,5.992,0,0,1,4.24,10.24l-36.5,36.5A5.974,5.974,0,0,1,118.93,149.46Zm-22.02-36.5,22.02,22.01,22.02-22.01h-5.17a6,6,0,0,1-6-6V44.51H108.09v62.45a6,6,0,0,1-6,6Z" fill="var(--mainColor)" fill-rule="evenodd"/>
            </g>
            <g id="_306729560">
              <path id="Path_27" data-name="Path 27" d="M230.4,149.46H196.7a6,6,0,0,1-5.99-6V81.01H177.05a6,6,0,0,1-4.24-10.24l36.5-36.5a6,6,0,0,1,8.49,0l36.5,36.5a6,6,0,0,1-4.25,10.24H236.4v62.45a6,6,0,0,1-6,6Zm-27.7-12h21.7V75.02a6,6,0,0,1,6-6h5.17L213.55,47,191.53,69.02h5.17a5.992,5.992,0,0,1,6,6Z" fill="var(--mainColor)" fill-rule="evenodd"/>
            </g>
          </g>
        </g>
      </g>
    </g>
  </g>
</svg>
