<svg xmlns="http://www.w3.org/2000/svg" width="1707" height="1528" viewBox="0 0 1707 1528">
  <g id="Layer_x0020_1" transform="translate(0 -89)">
    <path id="Path_1" data-name="Path 1" d="M1309,1049c-8,0-16-3-21-11l-60-84-63,85c-20,27-61-4-41-31l73-98-71-99c-20-27,22-58,42-30l61,86,62-83c20-27,61,4,41,31l-71,96,69,97C1342,1025,1329,1049,1309,1049Zm39-607H358c-33,0-33-51,0-51h990C1382,391,1382,442,1348,442Zm0,145H358c-33,0-33-52,0-52h990C1382,535,1382,587,1348,587Zm187,717V394c0-140-81-253-180-253H352c-100,0-180,113-180,253v910H707l1,1h2l1,1h2v1h1l1,1h1l1,1,1,1h1v1h1c0,1,7,11,7,19v77H979v-77c0-19,10-20,21-26h535Zm-1415,0V394C120,226,224,89,352,89H1355c128,0,232,137,232,305v910h94a25.819,25.819,0,0,1,26,26c0,158-129,287-288,287H288C129,1617,0,1488,0,1330a25.819,25.819,0,0,1,26-26Zm556,51H53c13,118,113,211,235,211H1419c121,0,222-93,235-211H1031v78c0,14-12,26-26,26H701c-14,0-25-11-25-26Zm45-250c-17,0-30-16-25-33l95-356c9-32,59-18,50,14l-95,356C743,1097,732,1105,721,1105Zm254-55c-57,0-100-37-97-96V795c0-33,51-33,51,0,0,32,2,140,0,163-5,54,96,54,91,0-2-22,0-132,0-163,0-33,52-33,52,0V954C1074,1013,1031,1050,975,1050Zm-508-17c-57,0-100-37-97-96V778c0-33,51-33,51,0s2,138,0,163c-4,54,96,54,91,0-2-25,0-130,0-163s52-33,52,0V937C566,996,523,1033,467,1033Zm173-1a25.819,25.819,0,0,1-26-26V779c0-34,52-34,52,0v227A25.819,25.819,0,0,1,640,1032Z" fill="var(--mainColor)" fill-rule="evenodd"/>
  </g>
</svg>
