<svg xmlns="http://www.w3.org/2000/svg" width="58" height="62" viewBox="0 0 58 62">
  <g id="_014-punctuality" data-name="014-punctuality" transform="translate(-3 -1)">
    <path id="Path_1" data-name="Path 1" d="M26.707,11.293A5.789,5.789,0,0,1,25,7.171V7H23v.171a7.777,7.777,0,0,0,2.293,5.536Z" fill="var(--mainColor)"/>
    <path id="Path_2" data-name="Path 2" d="M30,18H28a1,1,0,0,1-1,1H23v2h4A3,3,0,0,0,30,18Z" fill="var(--mainColor)"/>
    <circle id="Ellipse_1" data-name="Ellipse 1" cx="1" cy="1" r="1" transform="translate(22 14)" fill="var(--mainColor)"/>
    <circle id="Ellipse_2" data-name="Ellipse 2" cx="1" cy="1" r="1" transform="translate(28 14)" fill="var(--mainColor)"/>
    <path id="Path_3" data-name="Path 3" d="M61,13a9,9,0,1,0-13.631,7.7A4.828,4.828,0,0,0,45,24.842l-1.1,9.373A16.362,16.362,0,0,0,32.5,25.48l-1.679-.336-.189-.758A6.007,6.007,0,0,0,33.91,20H34a4,4,0,0,0,4-4,3.96,3.96,0,0,0-.858-2.445l.615-2.461A8.122,8.122,0,0,0,29.877,1H22.123a8.121,8.121,0,0,0-7.88,10.093l.615,2.461A3.978,3.978,0,0,0,18,20h.09a6.009,6.009,0,0,0,3.282,4.386l-.185.741A16.236,16.236,0,0,0,8,41.153V43H6a3,3,0,0,0-3,3V60a3,3,0,0,0,3,3H39V45.067a6.877,6.877,0,0,0,12.482-3.322L52.932,25.8l.4-.1A4.835,4.835,0,0,0,57,21v-.522A9,9,0,0,0,61,13ZM45.08,14H47V12H45.08A7,7,0,0,1,51,6.08V8h2V6.08A7,7,0,0,1,58.92,12H57v2h1.92A7,7,0,0,1,53,19.92V18H51v1.92A7,7,0,0,1,45.08,14ZM26,36.5a13,13,0,0,1-1.242-1.786L26,32.236l1.24,2.479A12.95,12.95,0,0,1,26,36.5Zm-2.992-8.075L24.783,30.2,23.7,32.371A12.966,12.966,0,0,1,23.011,28.425Zm5.294,3.948L27.217,30.2l1.772-1.772A13,13,0,0,1,28.305,32.373ZM34,18V15.265A4.956,4.956,0,0,0,33.834,14H34a2,2,0,0,1,0,4ZM16,16a2,2,0,0,1,2-2v4A2,2,0,0,1,16,16Zm4,3V13.676a3.993,3.993,0,0,1,1.781-3.328l.773-.516L21.445,8.168l-.773.516A5.977,5.977,0,0,0,18.247,12H18a3.962,3.962,0,0,0-1.4.267l-.415-1.66A6.121,6.121,0,0,1,22.123,3h7.754a6.122,6.122,0,0,1,5.94,7.608L35.4,12.267A3.962,3.962,0,0,0,34,12H32.77a4.952,4.952,0,0,0-1.2-1.022l-.486-.292A4.322,4.322,0,0,1,29,7H27a6.331,6.331,0,0,0,3.058,5.4l.486.292A3.013,3.013,0,0,1,32,15.265V19a4,4,0,0,1-4,4H24a4,4,0,0,1-4-4Zm4,6h4a5.914,5.914,0,0,0,.708-.046l.185.739L26,28.586l-2.892-2.892.185-.739A6.1,6.1,0,0,0,24,25ZM10,41.153A14.241,14.241,0,0,1,21,27.219V28.2a14.9,14.9,0,0,0,3.627,9.758L22,40.586V43H16V35H14v8.789a14.424,14.424,0,0,0,5.774,11.533l-1.284,3A15.051,15.051,0,0,1,10,44.81ZM24,53h-.528a3.016,3.016,0,0,0-1.342.317l-1.045.522A12.436,12.436,0,0,1,16.071,45H30a1,1,0,0,1,1,1A7.008,7.008,0,0,1,24,53ZM6,45H8.007a16.95,16.95,0,0,0,1.949,7.689A7.029,7.029,0,0,1,5,46a1,1,0,0,1,1-1ZM5,60V51.634a9,9,0,0,0,6.384,3.334,16.956,16.956,0,0,0,6.427,5.247L19.493,61H6A1,1,0,0,1,5,60Zm19.686,1a2.11,2.11,0,0,1-.884-.2L20.3,59.17l1.474-3.439,1.251-.625A1,1,0,0,1,23.472,55H24a1,1,0,0,1,1,1v.617l.844.423A2.09,2.09,0,0,1,24.91,61Zm3.721,0a4.055,4.055,0,0,0-1.477-5.647,2.955,2.955,0,0,0-.287-.75A9.029,9.029,0,0,0,31,51.645V60a1,1,0,0,1-1,1ZM44.632,46a4.85,4.85,0,0,1-4.362-2.7L39,40.764V35H37V61H32.816A2.966,2.966,0,0,0,33,60V46a3,3,0,0,0-3-3H24V41.414l2.606-2.606A14.9,14.9,0,0,0,31,28.2V27.22l1.1.221a14.363,14.363,0,0,1,10.236,8.123l1.119,2.461-.451,3.859,1.986.233L46.889,26H50.9L49.49,41.564A4.854,4.854,0,0,1,44.632,46Zm8.215-22.243-.97.243H47.142a2.836,2.836,0,0,1,2.7-2H52a8.946,8.946,0,0,0,2.957-.509A2.835,2.835,0,0,1,52.847,23.757Z" fill="var(--mainColor)"/>
    <path id="Path_4" data-name="Path 4" d="M53,13.414V10H51v2.586l-1.707,1.707,1.414,1.414Z" fill="var(--mainColor)"/>
  </g>
</svg>
