<?xml version="1.0" encoding="UTF-8"?>
<svg width="74.21" height="74.21" 
viewBox="0 0 74.21 74.21" 
preserveAspectRatio="xMinYMin"
xmlns:xlink="http://www.w3.org/1999/xlink"
xmlns="http://www.w3.org/2000/svg">
<!-- Generated by PQINA - https://pqina.nl/ -->
<title></title>
<g transform="rotate(0 37.105 37.105) translate(37.105 37.105) scale(1) translate(-37.105 -37.105) translate(0 0)">
<g transform="scale(1 1) translate(0 0)">
<svg xmlns="http://www.w3.org/2000/svg" xmlns:xlink="http://www.w3.org/1999/xlink" width="74.21" height="74.21" viewBox="0 0 74.21 74.21" style="overflow: visible;">
  <defs>
    <style>
      .cls-1 {
        clip-path: url(#clip-path);
      }

      .cls-2 {
        fill: rgba(0,0,0,0);
        stroke: var(--mainColor);
        stroke-linecap: round;
        stroke-linejoin: round;
        stroke-miterlimit: 10;
        stroke-width: 2.4px;
      }
    </style>
    <clipPath id="clip-path">
      <path id="path4146" d="M0-682.665H74.21v74.21H0Z" transform="translate(0 682.665)"></path>
    </clipPath>
  </defs>
  <g id="Group_40326" data-name="Group 40326" transform="translate(-954 -2969.073)">
    <g id="g4140" transform="translate(954 2969.073)">
      <g id="g4142" transform="translate(0 0)">
        <g id="g4144" class="cls-1">
          <g id="g4150" transform="translate(1.449 22.513)">
            <path id="path4152" class="cls-2" d="M0,0H66.024" transform="translate(0 0)"></path>
          </g>
          <g id="g4154" transform="translate(10.11 9.463)">
            <path id="path4156" class="cls-2" d="M-28.229-56.427a3.45,3.45,0,0,0,3.447-3.441,3.45,3.45,0,0,0-3.447-3.441,3.449,3.449,0,0,0-3.443,3.441A3.449,3.449,0,0,0-28.229-56.427Z" transform="translate(31.672 63.309)"></path>
          </g>
          <g id="g4158" transform="translate(40.032 9.463)">
            <path id="path4160" class="cls-2" d="M-28.229,0h12.966A3.452,3.452,0,0,1-11.82,3.441a3.452,3.452,0,0,1-3.443,3.441H-28.229a3.452,3.452,0,0,1-3.443-3.441A3.452,3.452,0,0,1-28.229,0Z" transform="translate(31.672)"></path>
          </g>
          <g id="g4162" transform="translate(22.822 9.463)">
            <path id="path4164" class="cls-2" d="M-28.229-56.427a3.45,3.45,0,0,0,3.447-3.441,3.45,3.45,0,0,0-3.447-3.441,3.449,3.449,0,0,0-3.443,3.441A3.449,3.449,0,0,0-28.229-56.427Z" transform="translate(31.672 63.309)"></path>
          </g>
          <g id="g4166" transform="translate(20.64 33.662)">
            <path id="path4168" class="cls-2" d="M-23.783,0l-2.9,12.138" transform="translate(26.684)"></path>
          </g>
          <g id="g4170" transform="translate(30.221 34.758)">
            <path id="path4172" class="cls-2" d="M0-81.545l4.1-4.607a.56.56,0,0,0,0-.731L0-91.49" transform="translate(0 91.49)"></path>
          </g>
          <g id="g4174" transform="translate(9.72 34.758)">
            <path id="path4176" class="cls-2" d="M-34.764-81.545l-4.1-4.607a.56.56,0,0,1,0-.731l4.1-4.607" transform="translate(39.004 91.49)"></path>
          </g>
          <g id="g4178" transform="translate(38.331 36.606)">
            <path id="path4180" class="cls-2" d="M-166.443-28.382a14.024,14.024,0,0,1,4.4,1.815l1.187-1.183a1.816,1.816,0,0,1,2.564,0l1.869,1.868a1.814,1.814,0,0,1,0,2.562l-1.183,1.187a14,14,0,0,1,1.808,4.361h1.664a1.82,1.82,0,0,1,1.816,1.811v2.649A1.82,1.82,0,0,1-154.13-11.5H-155.8a14.041,14.041,0,0,1-1.8,4.336l1.183,1.183a1.814,1.814,0,0,1,0,2.562l-1.869,1.872a1.816,1.816,0,0,1-2.564,0l-1.187-1.183a14.015,14.015,0,0,1-4.355,1.8V.756a1.821,1.821,0,0,1-1.812,1.815h-2.65A1.82,1.82,0,0,1-172.668.756V-.931a14.044,14.044,0,0,1-4.347-1.8L-178.2-1.547a1.816,1.816,0,0,1-2.564,0l-1.873-1.872a1.821,1.821,0,0,1,0-2.562l1.187-1.183a13.951,13.951,0,0,1-1.8-4.336h-1.68a1.817,1.817,0,0,1-1.812-1.811v-2.649a1.817,1.817,0,0,1,1.812-1.811h1.676a14.025,14.025,0,0,1,1.779-4.316l-1.191-1.195a1.814,1.814,0,0,1,0-2.562l1.869-1.868a1.816,1.816,0,0,1,2.564,0l1.179,1.174a14.1,14.1,0,0,1,4.339-1.819v-1.671a1.818,1.818,0,0,1,1.812-1.815h2.646a1.821,1.821,0,0,1,1.816,1.815Z" transform="translate(186.744 31.844)"></path>
          </g>
          <g id="g4182" transform="translate(48.072 46.346)">
            <path id="path4184" class="cls-2" d="M-61.276,0a7.469,7.469,0,0,1,7.469,7.469,7.468,7.468,0,0,1-7.469,7.465,7.469,7.469,0,0,1-7.473-7.465A7.47,7.47,0,0,1-61.276,0Z" transform="translate(68.749)"></path>
          </g>
          <g id="g4186" transform="translate(1.449 3.189)">
            <path id="path4188" class="cls-2" d="M-114.6-440.784h-8.579c-2.966,0-5.4-2.9-5.4-6.447V-488.1c0-3.548,2.428-6.447,5.4-6.447h55.227c2.97,0,5.4,2.9,5.4,6.447v31.75m-27.33,15.563h-11.763" transform="translate(128.577 494.544)"></path>
          </g>
          <g id="g4190" transform="translate(21.918 56.949)">
            <path id="path4192" class="cls-2" d="M0,0H.029" transform="translate(0 0)"></path>
          </g>
        </g>
      </g>
    </g>
  </g>
</svg>
</g>
</g>
</svg>