<svg xmlns="http://www.w3.org/2000/svg" width="511.997" height="472.88" viewBox="0 0 511.997 472.88">
  <g id="_011-4k" data-name="011-4k" transform="translate(0 -19.56)">
    <path id="Path_1" data-name="Path 1" d="M36.367,385.06h169.19l-9.392,47.977c-26.968,1.954-52.15,5.219-73.8,9.648a32.844,32.844,0,0,0-26.141,32.09,17.64,17.64,0,0,0,21.788,17.16c37.165-9.009,86.17-13.97,137.987-13.97s100.823,4.961,137.988,13.97a17.641,17.641,0,0,0,21.788-17.16,32.842,32.842,0,0,0-26.141-32.089c-21.65-4.429-46.832-7.7-73.8-9.649l-9.393-47.977H475.63A36.408,36.408,0,0,0,512,348.692V55.928A36.408,36.408,0,0,0,475.63,19.56H36.367A36.408,36.408,0,0,0,0,55.927V348.691A36.409,36.409,0,0,0,36.367,385.06Zm350.262,72.32a17.791,17.791,0,0,1,14.146,17.394,2.641,2.641,0,0,1-3.255,2.582c-38.288-9.281-88.548-14.392-141.521-14.392s-103.232,5.111-141.521,14.392a2.641,2.641,0,0,1-3.255-2.582,17.793,17.793,0,0,1,14.146-17.395C166,449.068,214.34,445.914,256,445.914c41.445,0,89.856,3.125,130.631,11.466ZM211.642,432.059l9.2-47h70.314l9.2,47A864.374,864.374,0,0,0,211.642,432.059ZM15,55.927A21.392,21.392,0,0,1,36.367,34.559H475.632A21.392,21.392,0,0,1,497,55.927V348.691a21.392,21.392,0,0,1-21.367,21.368H36.367A21.39,21.39,0,0,1,15,348.692Z" fill="var(--mainColor)"/>
    <path id="Path_2" data-name="Path 2" d="M335.691,163.374a7.5,7.5,0,0,0-7.5,7.5V234.1a7.5,7.5,0,1,0,15,0v-24.11h24.19V234.1a7.5,7.5,0,1,0,15,0V170.874a7.5,7.5,0,1,0-15,0v24.11h-24.19v-24.11A7.5,7.5,0,0,0,335.691,163.374Z" fill="var(--mainColor)"/>
    <path id="Path_3" data-name="Path 3" d="M411.488,241.6a34.835,34.835,0,0,0,34.8-34.8v-8.628a34.835,34.835,0,0,0-34.8-34.8H401.127a7.5,7.5,0,0,0-7.5,7.5V234.1a7.5,7.5,0,0,0,7.5,7.5h10.361Zm-2.861-63.221h2.861a19.819,19.819,0,0,1,19.8,19.8V206.8a19.819,19.819,0,0,1-19.8,19.8h-2.861Z" fill="var(--mainColor)"/>
    <path id="Path_4" data-name="Path 4" d="M290.358,241.6A28.177,28.177,0,0,0,318.5,213.45V170.874a7.5,7.5,0,1,0-15,0V213.45a13.146,13.146,0,0,1-26.292,0V170.874a7.5,7.5,0,1,0-15,0V213.45A28.179,28.179,0,0,0,290.358,241.6Z" fill="var(--mainColor)"/>
    <path id="Path_5" data-name="Path 5" d="M135.666,241.6a7.5,7.5,0,0,0,7.5-7.5v-9.179h1.325a7.5,7.5,0,0,0,0-15h-1.325V170.874a7.5,7.5,0,0,0-13.565-4.412L95.739,213a7.5,7.5,0,0,0,6.065,11.912h26.362V234.1a7.5,7.5,0,0,0,7.5,7.5Zm-19.131-31.679,11.631-15.985v15.985Z" fill="var(--mainColor)"/>
    <path id="Path_6" data-name="Path 6" d="M210.439,165.89a7.5,7.5,0,0,0-10.589-.62l-23.059,20.507v-14.9a7.5,7.5,0,0,0-15,0V234.1a7.5,7.5,0,0,0,15,0v-14.9L199.85,239.7a7.5,7.5,0,0,0,9.969-11.209l-29.241-26.006,29.241-26.006a7.5,7.5,0,0,0,.62-10.588Z" fill="var(--mainColor)"/>
    <path id="Path_7" data-name="Path 7" d="M40,354.559H472a9.511,9.511,0,0,0,9.5-9.5V59.559a9.511,9.511,0,0,0-9.5-9.5H273.5a7.5,7.5,0,1,0,0,15h193v274.5H45.5V65.059h193a7.5,7.5,0,0,0,0-15H40a9.511,9.511,0,0,0-9.5,9.5v285.5A9.511,9.511,0,0,0,40,354.559Z" fill="var(--mainColor)"/>
    <path id="Path_8" data-name="Path 8" d="M238.186,188.992a7.5,7.5,0,0,0,7.5-7.5V147.825a26.2,26.2,0,0,0-26.166-26.167H92.618a26.2,26.2,0,0,0-26.166,26.167V250.161a26.2,26.2,0,0,0,26.166,26.166h126.9a26.2,26.2,0,0,0,26.166-26.166V216.493a7.5,7.5,0,0,0-15,0v33.668a11.179,11.179,0,0,1-11.166,11.166H92.618a11.179,11.179,0,0,1-11.166-11.166V147.825a11.179,11.179,0,0,1,11.166-11.167h126.9a11.179,11.179,0,0,1,11.166,11.167v33.667A7.5,7.5,0,0,0,238.186,188.992Z" fill="var(--mainColor)"/>
  </g>
</svg>
