<svg xmlns="http://www.w3.org/2000/svg" width="56.4" height="55.46" viewBox="0 0 56.4 55.46">
  <g id="social_media_x2C__social_group_x2C__society_x2C__consumers_x2C__international" transform="translate(-1 -1)">
    <g id="Group_40496" data-name="Group 40496" transform="translate(1 1)">
      <g id="XMLID_4440_" transform="translate(0 26.32)">
        <path id="Path_38419" data-name="Path 38419" d="M56.46,16.88H1.94a.94.94,0,0,1,0-1.88H56.46a.94.94,0,0,1,0,1.88Z" transform="translate(-1 -15)" fill="var(--mainColor)"/>
      </g>
      <g id="XMLID_4521_" transform="translate(27.26 26.32)">
        <path id="Path_38420" data-name="Path 38420" d="M16.44,44.14a.94.94,0,0,1-.94-.94V15.94a.94.94,0,1,1,1.88,0V43.2A.94.94,0,0,1,16.44,44.14Z" transform="translate(-15.5 -15)" fill="var(--mainColor)"/>
      </g>
      <g id="XMLID_451_" transform="translate(27.208 26.32)">
        <path id="Path_38421" data-name="Path 38421" d="M16.414,44.046a.941.941,0,0,1-.457-1.763A30.117,30.117,0,0,0,31.5,15.94a.94.94,0,1,1,1.88,0A31.994,31.994,0,0,1,16.869,43.927a.929.929,0,0,1-.455.118Z" transform="translate(-15.472 -15)" fill="var(--mainColor)"/>
      </g>
      <g id="XMLID_4615_" transform="translate(7.78 42.313)">
        <path id="Path_38422" data-name="Path 38422" d="M45.3,28.177a.918.918,0,0,1-.263-.038,70.371,70.371,0,0,0-38.7-.077.94.94,0,0,1-.517-1.807,72.211,72.211,0,0,1,39.745.079.94.94,0,0,1-.263,1.842Z" transform="translate(-5.139 -23.507)" fill="var(--mainColor)"/>
      </g>
      <g id="XMLID_452_" transform="translate(11.28 26.32)">
        <path id="Path_38423" data-name="Path 38423" d="M23.967,44.044a.929.929,0,0,1-.455-.118A31.991,31.991,0,0,1,7,15.94a.94.94,0,0,1,1.88,0A30.115,30.115,0,0,0,24.424,42.281a.941.941,0,0,1-.457,1.763Z" transform="translate(-7 -15)" fill="var(--mainColor)"/>
      </g>
      <g id="XMLID_450_" transform="translate(0 26.32)">
        <path id="Path_38424" data-name="Path 38424" d="M29.2,44.14A28.232,28.232,0,0,1,1,15.94a.94.94,0,1,1,1.88,0,26.32,26.32,0,0,0,52.64,0,.94.94,0,1,1,1.88,0A28.232,28.232,0,0,1,29.2,44.14Z" transform="translate(-1 -15)" fill="var(--mainColor)"/>
      </g>
      <g id="Group_40493" data-name="Group 40493" transform="translate(5.64)">
        <g id="XMLID_446_" transform="translate(17.86)">
          <path id="Path_38425" data-name="Path 38425" d="M18.2,10.4a4.7,4.7,0,1,1,4.7-4.7A4.705,4.705,0,0,1,18.2,10.4Zm0-7.52A2.82,2.82,0,1,0,21.02,5.7,2.823,2.823,0,0,0,18.2,2.88Z" transform="translate(-13.5 -1)" fill="var(--mainColor)"/>
        </g>
        <g id="XMLID_445_" transform="translate(14.124 11.28)">
          <path id="Path_38426" data-name="Path 38426" d="M27.516,11.486a.94.94,0,0,1-.791-.432A4.684,4.684,0,0,0,22.769,8.88h-5.64a4.7,4.7,0,0,0-3.9,2.074A.939.939,0,1,1,11.675,9.9,6.568,6.568,0,0,1,17.129,7h5.64a6.558,6.558,0,0,1,5.538,3.038.939.939,0,0,1-.791,1.448Z" transform="translate(-11.513 -7)" fill="var(--mainColor)"/>
        </g>
        <g id="XMLID_432_" transform="translate(31.02 1.88)">
          <path id="Path_38427" data-name="Path 38427" d="M25.2,11.4a4.7,4.7,0,1,1,4.7-4.7A4.705,4.705,0,0,1,25.2,11.4Zm0-7.52A2.82,2.82,0,1,0,28.02,6.7,2.823,2.823,0,0,0,25.2,3.88Z" transform="translate(-20.5 -2)" fill="var(--mainColor)"/>
        </g>
        <g id="XMLID_431_" transform="translate(26.32 13.16)">
          <path id="Path_38428" data-name="Path 38428" d="M35.86,19.28a.94.94,0,0,1-.94-.94V14.58a4.705,4.705,0,0,0-4.7-4.7H24.58a4.705,4.705,0,0,0-4.7,4.7v3.76a.94.94,0,1,1-1.88,0V14.58A6.587,6.587,0,0,1,24.58,8h5.64a6.587,6.587,0,0,1,6.58,6.58v3.76A.94.94,0,0,1,35.86,19.28Z" transform="translate(-18 -8)" fill="var(--mainColor)"/>
        </g>
        <g id="XMLID_427_" transform="translate(4.7 1.88)">
          <path id="Path_38429" data-name="Path 38429" d="M11.2,11.4a4.7,4.7,0,1,1,4.7-4.7A4.705,4.705,0,0,1,11.2,11.4Zm0-7.52A2.82,2.82,0,1,0,14.02,6.7,2.823,2.823,0,0,0,11.2,3.88Z" transform="translate(-6.5 -2)" fill="var(--mainColor)"/>
        </g>
        <g id="XMLID_426_" transform="translate(0 13.16)">
          <path id="Path_38430" data-name="Path 38430" d="M21.86,19.28a.94.94,0,0,1-.94-.94V14.58a4.705,4.705,0,0,0-4.7-4.7H10.58a4.705,4.705,0,0,0-4.7,4.7v3.76a.94.94,0,0,1-1.88,0V14.58A6.587,6.587,0,0,1,10.58,8h5.64a6.587,6.587,0,0,1,6.58,6.58v3.76A.94.94,0,0,1,21.86,19.28Z" transform="translate(-4 -8)" fill="var(--mainColor)"/>
        </g>
        <g id="Group_40489" data-name="Group 40489" transform="translate(13.16 18.8)">
          <path id="Path_38431" data-name="Path 38431" d="M11.94,16.64A.94.94,0,0,1,11,15.7V11.94a.94.94,0,1,1,1.88,0V15.7A.94.94,0,0,1,11.94,16.64Z" transform="translate(-11 -11)" fill="var(--mainColor)"/>
        </g>
        <g id="Group_40490" data-name="Group 40490" transform="translate(3.76 18.8)">
          <path id="Path_38432" data-name="Path 38432" d="M6.94,16.64A.94.94,0,0,1,6,15.7V11.94a.94.94,0,0,1,1.88,0V15.7A.94.94,0,0,1,6.94,16.64Z" transform="translate(-6 -11)" fill="var(--mainColor)"/>
        </g>
        <g id="Group_40491" data-name="Group 40491" transform="translate(39.48 18.8)">
          <path id="Path_38433" data-name="Path 38433" d="M25.94,16.64A.94.94,0,0,1,25,15.7V11.94a.94.94,0,1,1,1.88,0V15.7A.94.94,0,0,1,25.94,16.64Z" transform="translate(-25 -11)" fill="var(--mainColor)"/>
        </g>
        <g id="Group_40492" data-name="Group 40492" transform="translate(30.08 18.8)">
          <path id="Path_38434" data-name="Path 38434" d="M20.94,16.64A.94.94,0,0,1,20,15.7V11.94a.94.94,0,0,1,1.88,0V15.7A.94.94,0,0,1,20.94,16.64Z" transform="translate(-20 -11)" fill="var(--mainColor)"/>
        </g>
      </g>
      <g id="Group_40494" data-name="Group 40494" transform="translate(0 16.92)">
        <g id="XMLID_458_">
          <path id="Path_38435" data-name="Path 38435" d="M1.94,11.974A.865.865,0,0,1,1,11.128V10.94a.94.94,0,1,1,1.88,0A1.025,1.025,0,0,1,1.94,11.974Z" transform="translate(-1 -10)" fill="var(--mainColor)"/>
        </g>
        <g id="XMLID_457_" transform="translate(0 3.76)">
          <path id="Path_38436" data-name="Path 38436" d="M1.94,13.974A.865.865,0,0,1,1,13.128V12.94a.94.94,0,1,1,1.88,0A1.025,1.025,0,0,1,1.94,13.974Z" transform="translate(-1 -12)" fill="var(--mainColor)"/>
        </g>
        <g id="XMLID_456_" transform="translate(0 7.52)">
          <path id="Path_38437" data-name="Path 38437" d="M1.94,17.948a.94.94,0,0,1-.94-.94V14.94a.94.94,0,1,1,1.88,0v2.068A.94.94,0,0,1,1.94,17.948Z" transform="translate(-1 -14)" fill="var(--mainColor)"/>
        </g>
      </g>
      <g id="Group_40495" data-name="Group 40495" transform="translate(54.52 16.92)">
        <g id="XMLID_455_">
          <path id="Path_38438" data-name="Path 38438" d="M30.94,11.974a.865.865,0,0,1-.94-.846V10.94a.94.94,0,0,1,1.88,0A1.025,1.025,0,0,1,30.94,11.974Z" transform="translate(-30 -10)" fill="var(--mainColor)"/>
        </g>
        <g id="XMLID_454_" transform="translate(0 3.76)">
          <path id="Path_38439" data-name="Path 38439" d="M30.94,13.974a.865.865,0,0,1-.94-.846V12.94a.94.94,0,0,1,1.88,0A1.025,1.025,0,0,1,30.94,13.974Z" transform="translate(-30 -12)" fill="var(--mainColor)"/>
        </g>
        <g id="XMLID_453_" transform="translate(0 7.52)">
          <path id="Path_38440" data-name="Path 38440" d="M30.94,17.948a.94.94,0,0,1-.94-.94V14.94a.94.94,0,0,1,1.88,0v2.068A.94.94,0,0,1,30.94,17.948Z" transform="translate(-30 -14)" fill="var(--mainColor)"/>
        </g>
      </g>
    </g>
  </g>
</svg>
