<?xml version="1.0" encoding="UTF-8"?>
<svg width="81.306" height="81.306" 
viewBox="0 0 81.306 81.306" 
preserveAspectRatio="xMinYMin"
xmlns:xlink="http://www.w3.org/1999/xlink"
xmlns="http://www.w3.org/2000/svg">
<!-- Generated by PQINA - https://pqina.nl/ -->
<title></title>
<g transform="rotate(0 40.653 40.653) translate(40.653 40.653) scale(1) translate(-40.653 -40.653) translate(0 0)">
<g transform="scale(1 1) translate(0 0)">
<svg width="81.306" height="81.306" viewBox="0 0 81.306 81.306" preserveAspectRatio="xMinYMin" xmlns:xlink="http://www.w3.org/1999/xlink" xmlns="http://www.w3.org/2000/svg" style="overflow: visible;">
<!-- Generated by PQINA - https://pqina.nl/ -->
<title></title>
<g transform="rotate(0 40.653 40.653) translate(40.653 40.653) scale(1) translate(-40.653 -40.653) translate(0 -0.027000000000001023)">
<g transform="scale(1 1) translate(0 0)">
<svg xmlns="http://www.w3.org/2000/svg" width="81.306" height="81.36" viewBox="0 0 81.306 81.36" style="overflow: visible;">
  <defs>
    <style>
      .cls-1 {
        fill: var(--mainColor);
      }
    </style>
  </defs>
  <path id="Target" class="cls-1" d="M67.543,47.909A22.079,22.079,0,0,1,47.957,67.594a.759.759,0,0,0-.768.768V84.795a1.536,1.536,0,0,1-3.072,0V78.832a.831.831,0,0,0-.768-.768A32.378,32.378,0,0,1,14.441,53.194a1.536,1.536,0,1,1,2.972-.768A29.2,29.2,0,0,0,43.25,74.893c.2.1.388,0,.578-.19a.578.578,0,0,0,.289-.578V68.362a.759.759,0,0,0-.768-.768A22.35,22.35,0,0,1,30.106,61.27a22.115,22.115,0,0,1-6.324-13.352.8.8,0,0,0-.768-.678H6.581a1.581,1.581,0,1,1,0-3.162h6.243a.813.813,0,0,0,.768-.678,32.73,32.73,0,0,1,23.994-29.6,1.59,1.59,0,0,1,.768,3.081A29.306,29.306,0,0,0,16.744,43.2a.741.741,0,0,0,.768.9h5.466a.8.8,0,0,0,.768-.678,22.079,22.079,0,0,1,19.6-19.721.759.759,0,0,0,.768-.768V6.506a1.536,1.536,0,1,1,3.072,0V25.143a1.563,1.563,0,0,1-1.635,1.635c-16.7,0-25.051,20.453-13.244,32.27s31.962,3.361,32.251-13.4A1.518,1.518,0,0,1,66.1,44.114H84.725a1.581,1.581,0,1,1,0,3.162H78.582a.741.741,0,0,0-.768.678A32.649,32.649,0,0,1,53.142,77.269a1.573,1.573,0,0,1-.678-3.072A29.361,29.361,0,0,0,74.643,48.1a.741.741,0,0,0-.768-.9H68.31a.8.8,0,0,0-.768.678ZM79.982,22.36,68.88,33.4a1.518,1.518,0,0,1-1.048.488h-7.4a1.292,1.292,0,0,0-.569.19L46.71,47.331a1.563,1.563,0,0,1-2.213-2.2L57.65,31.864a.524.524,0,0,0,.289-.479V23.969a1.581,1.581,0,0,1,.479-1.147l11.04-11.031a1.563,1.563,0,0,1,2.71,1.057V18.9a.822.822,0,0,0,.768.768h5.953a1.581,1.581,0,0,1,1.147,2.71ZM67.335,30.491l6.432-6.432a.777.777,0,0,0-.479-1.346h-2.71a1.6,1.6,0,0,1-1.635-1.536V18.548a.795.795,0,0,0-1.346-.569l-6.324,6.432a.849.849,0,0,0-.289.578v5a.759.759,0,0,0,.768.768h5.086c.2,0,.388,0,.479-.2ZM58.7,45.668A13.054,13.054,0,1,1,45.653,32.632a1.545,1.545,0,0,1,0,3.081,9.937,9.937,0,0,0,0,19.875c5.764,0,9.6-4.318,9.883-9.937a1.59,1.59,0,1,1,3.171.09Z" transform="translate(-5 -4.97)"></path>
</svg>
</g>
</g>
</svg>
</g>
</g>
</svg>