<svg xmlns="http://www.w3.org/2000/svg" width="431.999" height="496.006" viewBox="0 0 431.999 496.006">
  <g id="_001-creativity" data-name="001-creativity" transform="translate(-0.004 -0.001)">
    <path id="Path_1" data-name="Path 1" d="M137.973,98.68A39.97,39.97,0,0,0,112,136.008a39.524,39.524,0,0,0,4.586,18.2,31.86,31.86,0,0,0,0,59.6,39.52,39.52,0,0,0-4.586,18.2,39.962,39.962,0,0,0,25.969,37.328A31.558,31.558,0,0,0,136,280.008a31.783,31.783,0,0,0,43.281,29.848A31.92,31.92,0,0,0,240,296.008v-224A31.92,31.92,0,0,0,179.286,58.16a31.706,31.706,0,0,0-41.313,40.52ZM168,72.008a16.016,16.016,0,0,1,16,16h16a31.692,31.692,0,0,0-7.375-20.184A15.961,15.961,0,0,1,224,72.008v224a15.961,15.961,0,0,1-31.375,4.184A31.683,31.683,0,0,0,200,280.008H184a16,16,0,1,1-16-16v-16a31.7,31.7,0,0,0-20.4,7.555A23.982,23.982,0,1,1,176,232.008h16a40.045,40.045,0,0,0-40-40,39.576,39.576,0,0,0-24,8.211v-.211a16,16,0,0,1,0-32V167.8a39.572,39.572,0,0,0,24,8.207,40.042,40.042,0,0,0,40-40H176a24,24,0,1,1-28.4-23.551,31.693,31.693,0,0,0,20.4,7.551v-16a16,16,0,1,1,0-32Zm0,0" fill="var(--mainColor)"/>
    <path id="Path_2" data-name="Path 2" d="M328,56.008a31.825,31.825,0,0,0-11.277,2.152A31.923,31.923,0,0,0,256,72.008v224a31.923,31.923,0,0,0,60.723,13.848A31.78,31.78,0,0,0,360,280.008a31.464,31.464,0,0,0-1.969-10.672A39.962,39.962,0,0,0,384,232.008a39.517,39.517,0,0,0-4.582-18.2,31.863,31.863,0,0,0,0-59.6,39.521,39.521,0,0,0,4.582-18.2A39.97,39.97,0,0,0,358.035,98.68,31.446,31.446,0,0,0,360,88.008a32.034,32.034,0,0,0-32-32Zm40,80a24,24,0,1,1-48,0H304a40.045,40.045,0,0,0,40,40,39.572,39.572,0,0,0,24-8.207v.207a16,16,0,0,1,0,32v.211a39.576,39.576,0,0,0-24-8.211,40.047,40.047,0,0,0-40,40h16a24,24,0,1,1,28.4,23.555,31.715,31.715,0,0,0-20.4-7.555v16a16,16,0,1,1-16,16H296a31.683,31.683,0,0,0,7.375,20.184A15.961,15.961,0,0,1,272,296.008v-224a15.961,15.961,0,0,1,31.375-4.184A31.692,31.692,0,0,0,296,88.008h16a16,16,0,1,1,16,16v16a31.711,31.711,0,0,0,20.4-7.551A24,24,0,0,1,368,136.008Zm0,0" fill="var(--mainColor)"/>
    <path id="Path_3" data-name="Path 3" d="M373.98,49.9A182.473,182.473,0,0,0,236.253.379l.992,15.965a167.983,167.983,0,0,1,103.468,307.73,98.9,98.9,0,0,0-36.148,43.934H191.108a100.525,100.525,0,0,0-36.328-44.27,167.249,167.249,0,0,1-74.687-145.09l-15.992-.5a183.135,183.135,0,0,0,81.793,158.883,84.294,84.294,0,0,1,27.672,30.973H152v16h27.945a92.32,92.32,0,0,1,3.422,16H168v16h16v24a8,8,0,0,0,8,8h8a48,48,0,0,0,96,0h8a8,8,0,0,0,8-8v-24h16v-16H312.565a89.181,89.181,0,0,1,3.215-16H344v-16h-21.91a82.49,82.49,0,0,1,27.465-30.59A183.97,183.97,0,0,0,373.979,49.9ZM248,480.007a32.032,32.032,0,0,1-32-32h64A32.032,32.032,0,0,1,248,480.007Zm48-48H200v-16h96Zm.57-32H199.362a108.941,108.941,0,0,0-2.711-16h102.41a106.29,106.29,0,0,0-2.488,16Zm0,0" fill="var(--mainColor)"/>
    <path id="Path_4" data-name="Path 4" d="M56,56.008a32.034,32.034,0,0,1,32,32,8,8,0,0,0,16,0,32.034,32.034,0,0,1,32-32,8,8,0,0,0,0-16,32.032,32.032,0,0,1-32-32,8,8,0,0,0-16,0,32.032,32.032,0,0,1-32,32,8,8,0,0,0,0,16Zm40-21.5a48.416,48.416,0,0,0,13.5,13.5A48.468,48.468,0,0,0,96,61.5a48.416,48.416,0,0,0-13.5-13.5A48.365,48.365,0,0,0,96,34.512Zm0,0" fill="var(--mainColor)"/>
    <path id="Path_5" data-name="Path 5" d="M88,136.008a8,8,0,0,0,0-16,32.032,32.032,0,0,1-32-32,8,8,0,0,0-16,0,32.032,32.032,0,0,1-32,32,8,8,0,0,0,0,16,32.034,32.034,0,0,1,32,32,8,8,0,0,0,16,0A32.034,32.034,0,0,1,88,136.008Zm-40,5.5a48.416,48.416,0,0,0-13.5-13.5,48.468,48.468,0,0,0,13.5-13.5,48.52,48.52,0,0,0,13.5,13.5A48.468,48.468,0,0,0,48,141.5Zm0,0" fill="var(--mainColor)"/>
  </g>
</svg>
