<svg id="Component_1_1" data-name="Component 1 – 1" xmlns="http://www.w3.org/2000/svg" width="20.893" height="17.132" viewBox="0 0 20.893 17.132">
  <path id="Path_38195" data-name="Path 38195" d="M19.393,35.461H34.506l1.387-10.4H18.561L17.949,22H15v1.224h1.946Zm15.1-9.178-1.06,7.954H20.4l-1.591-7.954Z" transform="translate(-15 -22)" fill="#BC8200"/>
  <path id="Path_38196" data-name="Path 38196" d="M24,45.836A1.836,1.836,0,1,0,25.836,44,1.836,1.836,0,0,0,24,45.836Zm1.836-.612a.612.612,0,1,1-.612.612A.612.612,0,0,1,25.836,45.224Z" transform="translate(-18.494 -30.539)" fill="#BC8200"/>
  <path id="Path_38197" data-name="Path 38197" d="M39,45.836A1.836,1.836,0,1,0,40.836,44,1.836,1.836,0,0,0,39,45.836Zm1.836-.612a.612.612,0,1,1-.612.612A.612.612,0,0,1,40.836,45.224Z" transform="translate(-24.316 -30.539)" fill="#BC8200"/>
</svg>
