<svg id="Group_40223" data-name="Group 40223" xmlns="http://www.w3.org/2000/svg" xmlns:xlink="http://www.w3.org/1999/xlink" width="522.291" height="225.949" viewBox="0 0 522.291 225.949">
  <defs>
    <clipPath id="clip-path">
      <rect id="Rectangle_3250" data-name="Rectangle 3250" width="522.291" height="225.949" fill="rgba(0,49,137,0.22)" stroke="#046ca7" stroke-width="1"/>
    </clipPath>
  </defs>
  <g id="Group_40108" data-name="Group 40108" clip-path="url(#clip-path)">
    <path id="Path_38228" data-name="Path 38228" d="M158.063,271.746V220.105c0-38.059,28.677-61.618,55.247-61.618,34.125,0,55.246,31.984,55.246,61.618v51.641h76.779V220.105c0-76.545-59.227-138.82-132.025-138.82S81.285,143.559,81.285,220.105v51.641Z" transform="translate(-45.852 -45.852)" fill="rgba(0,49,137,0.22)" stroke="#046ca7" stroke-miterlimit="10" stroke-width="1"/>
    <path id="Path_38229" data-name="Path 38229" d="M159.549,278.286V226.645c0-33.973,24.63-66.671,60.3-66.671s60.3,32.7,60.3,66.671v51.641h66.669V226.645c0-70.917-54.356-133.766-126.971-133.766S92.879,155.728,92.879,226.645v51.641Z" transform="translate(-52.392 -52.392)" fill="rgba(0,49,137,0.22)" stroke="#046ca7" stroke-miterlimit="10" stroke-width="1"/>
    <path id="Path_38230" data-name="Path 38230" d="M147.66,225.965V174.324c0-11,6.9-26.239,19.868-26.239S187.4,163.323,187.4,174.324v51.641H334.932V174.324c0-3.033-.079-6.107-.235-9.183l5.715-8.37c3.77-5.521,9.054-8.688,14.494-8.688,12.963,0,19.868,15.239,19.868,26.239v51.642H522.307V174.324c0-96.053-75.1-174.2-167.4-174.2a160.622,160.622,0,0,0-93.781,29.845A163.748,163.748,0,0,0,167.528.126C75.222.126.125,78.271.125,174.324v51.641Z" transform="translate(-0.071 -0.071)" fill="rgba(0,49,137,0.22)" stroke="#046ca7" stroke-miterlimit="10" stroke-width="1"/>
    <path id="Path_38231" data-name="Path 38231" d="M151.127,241.226V189.584c0-23.492,16.435-38.032,31.661-38.032,19.557,0,31.661,19.742,31.661,38.032v51.642H338.4V189.584c0-4.128-.156-8.316-.463-12.492l8-11.71c6-8.789,14.836-13.83,24.232-13.83,19.556,0,31.661,19.742,31.661,38.032v51.642H525.774V189.585c0-89.55-69.807-162.406-155.61-162.406a148.858,148.858,0,0,0-93.742,32.771,151.539,151.539,0,0,0-93.634-32.772c-85.8,0-155.61,72.855-155.61,162.406v51.641Z" transform="translate(-15.331 -15.331)" fill="rgba(0,49,137,0.22)" stroke="#046ca7" stroke-miterlimit="10" stroke-width="1"/>
    <path id="Path_38232" data-name="Path 38232" d="M153.6,252.126V200.484c0-28.694,20.807-46.456,40.084-46.456,24.759,0,40.085,24.114,40.085,46.456v51.641h107.1V200.484c0-4.887-.229-9.849-.68-14.777l9.683-14.178c7.6-11.122,18.965-17.5,31.187-17.5,24.759,0,40.084,24.114,40.084,46.456v51.642h107.1V200.484c0-84.906-66.027-153.982-147.186-153.982-34.819,0-67.2,12.2-93.719,35.286A143.043,143.043,0,0,0,193.685,46.5C112.526,46.5,46.5,115.579,46.5,200.484v51.641Z" transform="translate(-26.228 -26.231)" fill="rgba(0,49,137,0.22)" stroke="#046ca7" stroke-miterlimit="10" stroke-width="1"/>
    <path id="Path_38233" data-name="Path 38233" d="M155.095,258.669V207.028c0-31.817,23.43-51.51,45.138-51.51,27.881,0,45.138,26.737,45.138,51.51v51.641h97V207.028a157,157,0,0,0-.834-16.113l10.718-15.693c8.554-12.523,21.443-19.705,35.36-19.705,27.881,0,45.138,26.737,45.138,51.51v51.642h96.995V207.027c0-82.118-63.763-148.925-142.137-148.925-33.939,0-65.481,12.019-91.216,34.757l-2.523,2.23C268.842,72.074,236.066,58.1,200.231,58.1,121.859,58.1,58.1,124.909,58.1,207.028v51.641Z" transform="translate(-32.773 -32.775)" fill="rgba(0,49,137,0.22)" stroke="#046ca7" stroke-miterlimit="10" stroke-width="1"/>
    <path id="Path_38234" data-name="Path 38234" d="M394.146,69.692c-32.687,0-63.071,11.581-87.866,33.489l-5.993,5.3c-24.511-24.042-57.4-38.784-93.517-38.784-75.586,0-137.079,64.542-137.078,143.874v51.641h86.886V213.566c0-34.938,26.054-56.564,50.193-56.564,31,0,50.192,29.363,50.192,56.564v51.641H343.85V213.566a151.716,151.716,0,0,0-1.007-17.42l11.772-17.236C364.125,164.987,378.535,157,394.148,157c31,0,50.192,29.363,50.192,56.564v51.642h86.884V213.566C531.225,134.234,469.731,69.692,394.146,69.692Z" transform="translate(-39.313 -39.312)" fill="rgba(0,49,137,0.22)" stroke="#046ca7" stroke-miterlimit="10" stroke-width="1"/>
    <path id="Path_38235" data-name="Path 38235" d="M646.962,181.039l2.825,10.687,6.234-9.128c10.468-15.323,26.4-24.111,43.706-24.111,34.125,0,55.246,31.984,55.246,61.618v51.642H831.75V220.106c0-76.545-59.227-138.82-132.025-138.82-31.435,0-60.663,11.143-84.521,32.223l-3.788,3.347,3.347,3.788A149.139,149.139,0,0,1,646.962,181.039Z" transform="translate(-344.892 -45.852)" fill="rgba(0,49,137,0.22)" stroke="#046ca7" stroke-miterlimit="10" stroke-width="1"/>
    <path id="Path_38236" data-name="Path 38236" d="M708.954,159.973c35.671,0,60.3,32.7,60.3,66.671v51.642h66.67V226.645c0-70.917-54.354-133.766-126.971-133.766a121.636,121.636,0,0,0-81.177,30.958,153.522,153.522,0,0,1,33.3,62.45C671.707,170.725,688.511,159.973,708.954,159.973Z" transform="translate(-354.121 -52.392)" fill="rgba(0,49,137,0.22)" stroke="#046ca7" stroke-miterlimit="10" stroke-width="1"/>
  </g>
</svg>
