<svg xmlns="http://www.w3.org/2000/svg" width="32.452" height="32.463" viewBox="0 0 32.452 32.463">
  <path id="Path_38326" data-name="Path 38326" d="M36.384,24.007c-.22-.44-.272-.319-7.469-.319,0-14.688.064-14.485-.058-14.723-.07-.151.29.232-4.745-4.809-.267-.261.394-.168-16.635-.168a.579.579,0,0,0-.579.579V12.1H4.579A.579.579,0,0,0,4,12.68v8.112a.579.579,0,0,0,.579.579H6.9V33.539a.579.579,0,0,0,.579.579h9.271v1.738a.579.579,0,0,0,.579.579H35.868a.579.579,0,0,0,.579-.579C36.447,23.747,36.476,24.187,36.384,24.007Zm-2.972.84L26.6,28.254l-6.814-3.407ZM26.939,8.624H24.28V5.964ZM5.159,13.259h10.43v6.953H5.159Zm2.9,19.7V21.371h8.112a.579.579,0,0,0,.579-.579V12.68a.579.579,0,0,0-.579-.579H8.056V5.147H23.121V9.2a.579.579,0,0,0,.579.579h4.056V23.689c-10.621,0-10.719-.133-10.945.319-.1.191-.064-.191-.064,8.952Zm9.85,2.318V25.207c9.19,4.595,8.488,4.276,8.691,4.276s-.446.29,8.691-4.276v10.07Z" transform="translate(-4 -3.972)" fill="#fff"/>
</svg>
