<svg xmlns="http://www.w3.org/2000/svg" width="39.09" height="45.45" viewBox="0 0 39.09 45.45">
  <defs>
    <style>
      .cls-1 {
        fill: #fed983;
      }
    </style>
  </defs>
  <g id="Group_40137" data-name="Group 40137" transform="translate(0 0)">
    <path id="Path_38255" data-name="Path 38255" class="cls-1" d="M346.034,46.58a1.279,1.279,0,0,0-2.456.717,10.561,10.561,0,0,1-1,8.243,10.676,10.676,0,0,1-3.752,3.79l-.536.318a1.279,1.279,0,0,0-.625,1.1v1.616h-2.991v-5.2a3.574,3.574,0,0,0,2.356-3.354V51.016a3.574,3.574,0,0,0-3.568-3.57h-.133a3.574,3.574,0,0,0-3.568,3.57v2.794a3.572,3.572,0,0,0,2.355,3.353v5.2h-2.99V60.748a1.281,1.281,0,0,0-.625-1.1l-.536-.318a10.664,10.664,0,0,1-3.752-3.79A10.593,10.593,0,0,1,340.79,42.68a1.279,1.279,0,1,0,1.782-1.836,13.144,13.144,0,1,0-16.007,20.63v1.1a2.044,2.044,0,0,0-1.151,1.836v5.849a2.045,2.045,0,0,0,2.042,2.043h1.9v1.8a2.227,2.227,0,0,0,2.225,2.225h3.62a2.228,2.228,0,0,0,2.225-2.225V72.3h1.9a2.046,2.046,0,0,0,2.043-2.043V64.407a2.044,2.044,0,0,0-1.151-1.836v-1.1a13.117,13.117,0,0,0,5.812-14.895Zm-13.717,4.436A1.012,1.012,0,0,1,333.328,50h.133a1.012,1.012,0,0,1,1.01,1.012v2.794a1.012,1.012,0,0,1-1.01,1.012h-.133a1.012,1.012,0,0,1-1.01-1.012Zm2.552,22.748h-2.953V72.3h2.953Zm3.944-4.023H327.973V64.922h10.841Zm0,0" transform="translate(-313.848 -30.872)"/>
    <path id="Path_38256" data-name="Path 38256" class="cls-1" d="M391.185,5.18A1.279,1.279,0,0,0,392.465,3.9V1.779a1.279,1.279,0,0,0-2.558,0V3.9A1.28,1.28,0,0,0,391.185,5.18Zm0,0" transform="translate(-371.64 -0.5)"/>
    <path id="Path_38257" data-name="Path 38257" class="cls-1" d="M346.856,13.727a1.279,1.279,0,1,0,2.335-1.045l-.867-1.937a1.279,1.279,0,1,0-2.335,1.045Zm0,0" transform="translate(-335.121 -8.37)"/>
    <path id="Path_38258" data-name="Path 38258" class="cls-1" d="M309.978,38.781l1.584,1.416a1.279,1.279,0,1,0,1.706-1.907l-1.584-1.416a1.279,1.279,0,0,0-1.706,1.907Zm0,0" transform="translate(-304.991 -30.4)"/>
    <path id="Path_38259" data-name="Path 38259" class="cls-1" d="M288.124,78.066l2.025.65a1.279,1.279,0,0,0,.781-2.436l-2.025-.649a1.279,1.279,0,1,0-.781,2.436Zm0,0" transform="translate(-286.48 -62.765)"/>
    <path id="Path_38260" data-name="Path 38260" class="cls-1" d="M284.089,121.712a1.24,1.24,0,0,0,.14-.008l2.114-.23a1.279,1.279,0,0,0-.277-2.543l-2.114.23a1.279,1.279,0,0,0,.137,2.551Zm0,0" transform="translate(-282.811 -98.725)"/>
    <path id="Path_38261" data-name="Path 38261" class="cls-1" d="M297.68,157.864a1.279,1.279,0,0,0,1.289,2.211L300.8,159a1.279,1.279,0,1,0-1.288-2.211Zm0,0" transform="translate(-294.617 -129.992)"/>
    <path id="Path_38262" data-name="Path 38262" class="cls-1" d="M429.606,14.368a1.278,1.278,0,0,0,1.69-.645l.867-1.937a1.279,1.279,0,0,0-2.335-1.045l-.867,1.937A1.278,1.278,0,0,0,429.606,14.368Zm0,0" transform="translate(-403.941 -8.367)"/>
    <path id="Path_38263" data-name="Path 38263" class="cls-1" d="M462.257,40.522a1.277,1.277,0,0,0,.852-.326l1.584-1.416a1.279,1.279,0,0,0-1.706-1.907L461.4,38.289a1.28,1.28,0,0,0,.853,2.233Zm0,0" transform="translate(-430.589 -30.4)"/>
    <path id="Path_38264" data-name="Path 38264" class="cls-1" d="M480.763,77.888a1.279,1.279,0,0,0,1.609.827l2.025-.65a1.279,1.279,0,1,0-.781-2.436l-2.025.649A1.279,1.279,0,0,0,480.763,77.888Zm0,0" transform="translate(-446.95 -62.765)"/>
    <path id="Path_38265" data-name="Path 38265" class="cls-1" d="M488.132,119.16l-2.114-.23a1.279,1.279,0,1,0-.277,2.544l2.114.23c.047,0,.094.007.14.007a1.279,1.279,0,0,0,.137-2.551Zm0,0" transform="translate(-450.183 -98.724)"/>
    <path id="Path_38266" data-name="Path 38266" class="cls-1" d="M475.754,157.865l-1.836-1.07a1.279,1.279,0,1,0-1.288,2.211l1.836,1.07a1.279,1.279,0,1,0,1.288-2.211Zm0,0" transform="translate(-439.727 -129.993)"/>
  </g>
</svg>
