<svg id="Group_40177" data-name="Group 40177" xmlns="http://www.w3.org/2000/svg" width="31.487" height="31.493" viewBox="0 0 31.487 31.493">
  <defs>
    <style>
      .cls-1 {
        fill: #f9f6ee;
      }

      .cls-2 {
        fill: var(--mainColor);
      }
    </style>
  </defs>
  <path id="Path_1690" data-name="Path 1690" class="cls-1" d="M31.407,9.259a11.506,11.506,0,0,0-.732-3.821A8.067,8.067,0,0,0,26.067.83,11.54,11.54,0,0,0,22.247.1c-1.686-.08-2.221-.1-6.5-.1S10.938.018,9.259.092a11.521,11.521,0,0,0-3.82.732A7.682,7.682,0,0,0,2.646,2.646,7.745,7.745,0,0,0,.831,5.433,11.534,11.534,0,0,0,.1,9.253c-.08,1.684-.1,2.221-.1,6.5s.019,4.812.092,6.49a11.5,11.5,0,0,0,.732,3.824,8.066,8.066,0,0,0,4.609,4.606,11.544,11.544,0,0,0,3.821.732c1.679.074,2.215.092,6.49.092s4.812-.019,6.49-.092a11.5,11.5,0,0,0,3.821-.732,8.055,8.055,0,0,0,4.607-4.606,11.554,11.554,0,0,0,.732-3.821c.074-1.68.092-2.215.092-6.491s-.006-4.813-.08-6.492m-2.17,13.188a9.08,9.08,0,0,1-.569,3.074,5.5,5.5,0,0,1-3.145,3.146,9.108,9.108,0,0,1-3.074.569c-1.748.078-2.272.1-6.692.1s-4.951-.02-6.692-.1a9.082,9.082,0,0,1-3.074-.569,5.1,5.1,0,0,1-1.9-1.236,5.151,5.151,0,0,1-1.236-1.9,9.11,9.11,0,0,1-.57-3.074c-.078-1.748-.1-2.272-.1-6.692s.02-4.951.1-6.692A9.079,9.079,0,0,1,2.851,6a5.035,5.035,0,0,1,1.244-1.9A5.146,5.146,0,0,1,6,2.857a9.119,9.119,0,0,1,3.074-.569c1.748-.078,2.272-.1,6.692-.1s4.951.02,6.692.1a9.079,9.079,0,0,1,3.074.569,5.1,5.1,0,0,1,1.9,1.236A5.147,5.147,0,0,1,28.67,6a9.118,9.118,0,0,1,.57,3.074c.078,1.748.1,2.272.1,6.692s-.022,4.938-.1,6.686" transform="translate(0 0)"/>
  <g id="Group_39758" data-name="Group 39758" transform="translate(7.659 5.451)">
    <path id="Path_1691" data-name="Path 1691" class="cls-2" d="M28.324,20.235a8.09,8.09,0,1,0,8.089,8.092h0a8.092,8.092,0,0,0-8.089-8.09m0,13.943a5.853,5.853,0,1,1,5.853-5.853,5.853,5.853,0,0,1-5.853,5.853" transform="translate(-20.232 -18.026)"/>
    <path id="Path_1692" data-name="Path 1692" class="cls-2" d="M62.614,16.29A1.889,1.889,0,1,1,60.725,14.4h0a1.889,1.889,0,0,1,1.889,1.889" transform="translate(-44.223 -14.401)"/>
  </g>
</svg>
