<svg id="Group_40080" data-name="Group 40080" xmlns="http://www.w3.org/2000/svg" xmlns:xlink="http://www.w3.org/1999/xlink" width="152.016" height="49.069" viewBox="0 0 152.016 49.069">
  <defs>
    <style>
      .cls-1 {
        fill: none;
      }

      .cls-2 {
        clip-path: url(#clip-path);
      }

      .cls-3 {
        fill: #003189;
      }

      .cls-4 {
        fill: #00a1ed;
      }
    </style>
    <clipPath id="clip-path">
      <rect id="Rectangle_3238" data-name="Rectangle 3238" class="cls-1" width="152.016" height="49.069"/>
    </clipPath>
  </defs>
  <g id="Group_40079" data-name="Group 40079" class="cls-2">
    <path id="Path_38148" data-name="Path 38148" class="cls-3" d="M24.242,36.946V47.3a3.182,3.182,0,1,1-6.365,0V36.946c0-3.243-2.351-6.365-5.757-6.365S6.365,33.7,6.365,36.946V47.3A3.182,3.182,0,1,1,0,47.3V36.946c0-6.77,5.189-12.77,12.121-12.77s12.121,6,12.121,12.77" transform="translate(0 -15.261)"/>
    <path id="Path_38149" data-name="Path 38149" class="cls-3" d="M68.113,24.176a11.611,11.611,0,0,0-7.749,2.955,14.657,14.657,0,0,1,3.179,5.962,5.5,5.5,0,0,1,4.571-2.512c3.405,0,5.757,3.121,5.757,6.365V47.3a3.182,3.182,0,1,0,6.365,0V36.946c0-6.77-5.189-12.77-12.121-12.77" transform="translate(-38.105 -15.261)"/>
    <path id="Path_38150" data-name="Path 38150" class="cls-3" d="M150.314,37.457A12.948,12.948,0,1,0,137.39,50.738a12.654,12.654,0,0,0,2.717-.293A3.017,3.017,0,0,0,142.449,47c-.3-1.688-1.959-2.572-3.95-2.516-.4.011-.694-.026-1.108-.026a7.027,7.027,0,1,1,6.68-7V47.509a3.1,3.1,0,0,0,3.1,3.1,3.14,3.14,0,0,0,3.14-3.14Z" transform="translate(-78.545 -15.261)"/>
    <path id="Path_38151" data-name="Path 38151" class="cls-3" d="M311.7,37.457a12.948,12.948,0,1,0-12.923,13.281,12.653,12.653,0,0,0,2.717-.293A3.017,3.017,0,0,0,303.831,47c-.3-1.688-1.959-2.572-3.95-2.516-.4.011-.694-.026-1.108-.026a7.027,7.027,0,1,1,6.68-7V47.509a3.1,3.1,0,0,0,3.1,3.1,3.14,3.14,0,0,0,3.14-3.14Z" transform="translate(-180.417 -15.261)"/>
    <path id="Path_38152" data-name="Path 38152" class="cls-3" d="M231,22.2a12.948,12.948,0,1,1-25.887,0A13.162,13.162,0,0,1,218.081,8.915a12.653,12.653,0,0,1,2.717.293,3.017,3.017,0,0,1,2.341,3.448c-.3,1.688-1.959,2.572-3.95,2.516-.4-.011-.694.026-1.108.026a6.875,6.875,0,0,0-6.72,7,6.708,6.708,0,1,0,13.4,0V3.1a3.1,3.1,0,0,1,3.1-3.1A3.14,3.14,0,0,1,231,3.14Z" transform="translate(-129.481)"/>
    <path id="Path_38153" data-name="Path 38153" class="cls-3" d="M383.343,27.431a3.15,3.15,0,0,0-2.659-3.124,11.7,11.7,0,0,0-1.75-.131c-6.932,0-12.121,6-12.121,12.77V47.321a3.164,3.164,0,0,0,3.164,3.164h.036a3.164,3.164,0,0,0,3.164-3.164V36.946c0-3.243,2.352-6.365,5.757-6.365a5.427,5.427,0,0,1,.774.055,3.148,3.148,0,0,0,3.635-3.091Z" transform="translate(-231.551 -15.261)"/>
    <path id="Path_38154" data-name="Path 38154" class="cls-4" d="M239.5,120.289a.493.493,0,0,1,.463.354.878.878,0,0,0,.092.2,1.049,1.049,0,0,0,.362.351,1.617,1.617,0,0,0,.506.19,2.9,2.9,0,0,0,.581.058,3.554,3.554,0,0,0,.483-.035,1.773,1.773,0,0,0,.466-.126.873.873,0,0,0,.351-.27.721.721,0,0,0,.138-.455.656.656,0,0,0-.167-.466,1.268,1.268,0,0,0-.438-.294,3.42,3.42,0,0,0-.621-.19q-.351-.075-.719-.156t-.714-.19a2.337,2.337,0,0,1-.621-.3,1.464,1.464,0,0,1-.443-.478,1.4,1.4,0,0,1-.167-.714,1.424,1.424,0,0,1,.2-.771,1.64,1.64,0,0,1,.518-.524,2.388,2.388,0,0,1,.714-.3,3.281,3.281,0,0,1,.788-.1,4.728,4.728,0,0,1,.927.086,2.158,2.158,0,0,1,.76.3,1.55,1.55,0,0,1,.524.575,1.713,1.713,0,0,1,.121.287.479.479,0,0,1-.461.616.5.5,0,0,1-.473-.31.821.821,0,0,0-.084-.168.988.988,0,0,0-.323-.3,1.49,1.49,0,0,0-.431-.167,2.239,2.239,0,0,0-.478-.052,2.935,2.935,0,0,0-.443.035,1.491,1.491,0,0,0-.409.121.8.8,0,0,0-.3.236.587.587,0,0,0-.115.368.547.547,0,0,0,.178.426,1.491,1.491,0,0,0,.455.27,3.917,3.917,0,0,0,.621.184q.345.075.69.156a7.4,7.4,0,0,1,.719.2,2.35,2.35,0,0,1,.621.3,1.491,1.491,0,0,1,.437.478,1.4,1.4,0,0,1,.167.714,1.657,1.657,0,0,1-.225.9,1.752,1.752,0,0,1-.587.576,2.543,2.543,0,0,1-.817.311,4.556,4.556,0,0,1-.9.092,3.947,3.947,0,0,1-.95-.11,2.411,2.411,0,0,1-.788-.345,1.766,1.766,0,0,1-.686-.946.48.48,0,0,1,.462-.613Z" transform="translate(-150.869 -73.274)"/>
    <path id="Path_38155" data-name="Path 38155" class="cls-4" d="M260.794,119.2a3.947,3.947,0,0,1,.184-1.225,2.766,2.766,0,0,1,.552-.99,2.614,2.614,0,0,1,.9-.662,3.333,3.333,0,0,1,2.491,0,2.6,2.6,0,0,1,.909.662,2.771,2.771,0,0,1,.552.99,3.958,3.958,0,0,1,.184,1.225,3.9,3.9,0,0,1-.184,1.22,2.781,2.781,0,0,1-.552.984,2.6,2.6,0,0,1-.909.662,3.328,3.328,0,0,1-2.491,0,2.608,2.608,0,0,1-.9-.662,2.776,2.776,0,0,1-.552-.984,3.893,3.893,0,0,1-.184-1.22m1.036,0a2.958,2.958,0,0,0,.144.961,2.008,2.008,0,0,0,.4.7,1.715,1.715,0,0,0,.593.431,1.8,1.8,0,0,0,1.439,0,1.722,1.722,0,0,0,.593-.431,2.007,2.007,0,0,0,.4-.7,3.282,3.282,0,0,0,0-1.922,2.075,2.075,0,0,0-.4-.708,1.7,1.7,0,0,0-.593-.437,1.8,1.8,0,0,0-1.439,0,1.69,1.69,0,0,0-.593.437,2.076,2.076,0,0,0-.4.708,2.963,2.963,0,0,0-.144.961" transform="translate(-164.627 -73.274)"/>
    <path id="Path_38156" data-name="Path 38156" class="cls-4" d="M286.468,110.3h0a.489.489,0,0,1,.489.489v7.239a.489.489,0,0,1-.978,0v-7.239a.489.489,0,0,1,.489-.489" transform="translate(-180.525 -69.629)"/>
    <path id="Path_38157" data-name="Path 38157" class="cls-4" d="M322.862,113.4h.754a.431.431,0,1,1,0,.863h-.754v3.694a1.057,1.057,0,0,0,.029.277.28.28,0,0,0,.11.161.479.479,0,0,0,.224.075,3.377,3.377,0,0,0,.374.017h.017a.432.432,0,0,1,0,.863H323.3a3.494,3.494,0,0,1-.65-.052.956.956,0,0,1-.438-.19.814.814,0,0,1-.247-.391,2.268,2.268,0,0,1-.08-.667v-3.786H321.3a.431.431,0,0,1,0-.863h.581v-1.352a.432.432,0,0,1,.431-.432h.115a.432.432,0,0,1,.431.432Z" transform="translate(-202.55 -70.456)"/>
    <path id="Path_38158" data-name="Path 38158" class="cls-4" d="M339.3,111.5h0a.489.489,0,0,1-.489-.489v-.219a.489.489,0,1,1,.978,0v.219a.489.489,0,0,1-.489.489m0,1.07h0a.489.489,0,0,1,.489.489v4.971a.489.489,0,1,1-.978,0V113.06a.489.489,0,0,1,.489-.489" transform="translate(-213.878 -69.63)"/>
    <path id="Path_38159" data-name="Path 38159" class="cls-4" d="M350.956,119.2a3.958,3.958,0,0,1,.184-1.225,2.761,2.761,0,0,1,.552-.99,2.609,2.609,0,0,1,.9-.662,3.333,3.333,0,0,1,2.491,0,2.6,2.6,0,0,1,.909.662,2.771,2.771,0,0,1,.552.99,3.959,3.959,0,0,1,.184,1.225,3.9,3.9,0,0,1-.184,1.22,2.781,2.781,0,0,1-.552.984,2.6,2.6,0,0,1-.909.662,3.328,3.328,0,0,1-2.491,0,2.6,2.6,0,0,1-.9-.662,2.771,2.771,0,0,1-.552-.984,3.9,3.9,0,0,1-.184-1.22m1.035,0a2.959,2.959,0,0,0,.144.961,2.008,2.008,0,0,0,.4.7,1.719,1.719,0,0,0,.593.431,1.8,1.8,0,0,0,1.438,0,1.719,1.719,0,0,0,.593-.431,2.008,2.008,0,0,0,.4-.7,3.282,3.282,0,0,0,0-1.922,2.075,2.075,0,0,0-.4-.708,1.694,1.694,0,0,0-.593-.437,1.8,1.8,0,0,0-1.438,0,1.694,1.694,0,0,0-.593.437,2.076,2.076,0,0,0-.4.708,2.964,2.964,0,0,0-.144.961" transform="translate(-221.541 -73.274)"/>
    <path id="Path_38160" data-name="Path 38160" class="cls-4" d="M399.251,120.289a.5.5,0,0,1,.469.359.886.886,0,0,0,.09.193,1.057,1.057,0,0,0,.363.351,1.62,1.62,0,0,0,.506.19,2.9,2.9,0,0,0,.581.058,3.545,3.545,0,0,0,.483-.035,1.772,1.772,0,0,0,.466-.126.873.873,0,0,0,.351-.27.721.721,0,0,0,.138-.455.656.656,0,0,0-.167-.466,1.272,1.272,0,0,0-.438-.294,3.421,3.421,0,0,0-.621-.19q-.351-.075-.719-.156t-.714-.19a2.343,2.343,0,0,1-.621-.3,1.467,1.467,0,0,1-.443-.478,1.4,1.4,0,0,1-.167-.714,1.424,1.424,0,0,1,.2-.771,1.641,1.641,0,0,1,.518-.524,2.387,2.387,0,0,1,.714-.3,3.28,3.28,0,0,1,.788-.1,4.724,4.724,0,0,1,.926.086,2.158,2.158,0,0,1,.76.3,1.55,1.55,0,0,1,.524.575,1.709,1.709,0,0,1,.121.288.478.478,0,0,1-.461.615.5.5,0,0,1-.473-.31.8.8,0,0,0-.085-.168.986.986,0,0,0-.322-.3,1.494,1.494,0,0,0-.432-.167,2.234,2.234,0,0,0-.478-.052,2.926,2.926,0,0,0-.443.035,1.483,1.483,0,0,0-.409.121.792.792,0,0,0-.3.236.585.585,0,0,0-.115.368.546.546,0,0,0,.178.426,1.481,1.481,0,0,0,.455.27,3.917,3.917,0,0,0,.621.184q.345.075.69.156a7.4,7.4,0,0,1,.719.2,2.353,2.353,0,0,1,.622.3,1.5,1.5,0,0,1,.437.478,1.405,1.405,0,0,1,.167.714,1.654,1.654,0,0,1-.224.9,1.746,1.746,0,0,1-.587.576,2.537,2.537,0,0,1-.817.311,4.559,4.559,0,0,1-.9.092,3.947,3.947,0,0,1-.95-.11,2.41,2.41,0,0,1-.788-.345,1.764,1.764,0,0,1-.683-.938.486.486,0,0,1,.468-.621Z" transform="translate(-251.719 -73.274)"/>
    <path id="Path_38161" data-name="Path 38161" class="cls-4" d="M302.919,116.952v3.165a1.463,1.463,0,0,1-2.927,0v-3.165a.5.5,0,1,0-1,0v3.165a2.463,2.463,0,0,0,4.925,0v-3.165a.5.5,0,0,0-1,0" transform="translate(-188.74 -73.51)"/>
    <path id="Path_38162" data-name="Path 38162" class="cls-4" d="M376.983,122.08v-3.165a1.463,1.463,0,0,1,2.927,0v3.165a.5.5,0,1,0,1,0v-3.165a2.463,2.463,0,0,0-4.925,0v3.165a.5.5,0,0,0,1,0" transform="translate(-237.34 -73.51)"/>
  </g>
</svg>
