<svg xmlns="http://www.w3.org/2000/svg" width="26.713" height="16.682" viewBox="0 0 26.713 16.682"><defs><style>.a{fill:var(--mainColor);}</style></defs><g transform="translate(-747.041 -513.697)"><path class="a" d="M15.371,32.273V38.84a2.018,2.018,0,1,1-4.036,0V32.273a3.87,3.87,0,0,0-3.65-4.036,3.87,3.87,0,0,0-3.65,4.036V38.84A2.018,2.018,0,1,1,0,38.84V32.273a7.914,7.914,0,0,1,7.685-8.1,7.914,7.914,0,0,1,7.685,8.1" transform="translate(747.041 489.521)"/><path class="a" d="M65.277,24.176a7.362,7.362,0,0,0-4.913,1.874,9.294,9.294,0,0,1,2.015,3.78,3.486,3.486,0,0,1,2.9-1.593,3.87,3.87,0,0,1,3.65,4.036V38.84a2.018,2.018,0,1,0,4.036,0V32.273a7.914,7.914,0,0,0-7.685-8.1" transform="translate(700.791 489.521)"/></g></svg>