<svg xmlns="http://www.w3.org/2000/svg" width="68.643" height="42.838" viewBox="0 0 68.643 42.838">
  <defs>
    <style>
      .cls-1 {
        fill: none;
        stroke: #fff;
        stroke-width: 4px;
      }
    </style>
  </defs>
  <g id="Group_40136" data-name="Group 40136" transform="translate(1.2 1.2)">
    <path id="Path_38163" data-name="Path 38163" class="cls-1" d="M37.261,43.8v15.92a4.891,4.891,0,1,1-9.783,0V43.8c0-4.985-3.614-9.783-8.848-9.783s-8.847,4.8-8.847,9.783v15.92a4.891,4.891,0,1,1-9.783,0V43.8C0,33.4,7.976,24.176,18.63,24.176S37.261,33.4,37.261,43.8" transform="translate(0 -24.176)"/>
    <path id="Path_38164" data-name="Path 38164" class="cls-1" d="M72.275,24.176a17.846,17.846,0,0,0-11.911,4.542,22.528,22.528,0,0,1,4.886,9.164,8.452,8.452,0,0,1,7.025-3.861c5.234,0,8.848,4.8,8.848,9.783v15.92a4.891,4.891,0,1,0,9.783,0V43.8c0-10.406-7.976-19.628-18.631-19.628" transform="translate(-24.662 -24.176)"/>
  </g>
</svg>
