<svg id="Group_40189" data-name="Group 40189" xmlns="http://www.w3.org/2000/svg" xmlns:xlink="http://www.w3.org/1999/xlink" width="868.602" height="593" viewBox="0 0 868.602 593">
  <defs>
    <style>
      .cls-1, .cls-4 {
        fill: none;
      }

      .cls-1, .cls-3, .cls-4 {
        stroke: #e0e0e0;
      }

      .cls-2 {
        clip-path: url(#clip-path);
      }

      .cls-3 {
        fill: rgba(0,0,0,0);
      }

      .cls-3, .cls-4 {
        stroke-miterlimit: 10;
        stroke-width: 0.25px;
      }
    </style>
    <clipPath id="clip-path">
      <rect id="Rectangle_3241" data-name="Rectangle 3241" class="cls-1" width="868.602" height="593"/>
    </clipPath>
  </defs>
  <g id="Group_40084" data-name="Group 40084" class="cls-2">
    <path id="Union_1" data-name="Union 1" class="cls-3" d="M623.062,419.709V239.27c0-45.239-31.914-94.068-83.473-94.068-25.965,0-49.929,13.279-65.746,36.435l-19.566,28.644a252.559,252.559,0,0,1,1.664,28.989V419.71a72.249,72.249,0,0,1-144.5,0V239.27c0-45.239-31.913-94.068-83.473-94.068-40.145,0-83.473,35.964-83.473,94.068V419.71a72.249,72.249,0,0,1-144.5,0V239.27C0,107.337,102.267,0,227.97,0c60.059,0,114.775,24.508,155.536,64.489l9.952-8.792C434.7,19.26,485.226,0,539.589,0c125.7,0,227.97,107.337,227.97,239.27V419.709a72.248,72.248,0,0,1-144.5,0Z" transform="translate(50.522 50.522)"/>
    <path id="Path_38166" data-name="Path 38166" class="cls-4" d="M456.572,556.431a63.916,63.916,0,0,1-63.845-63.842V312.15c0-49.282-35.127-102.474-91.878-102.474-44.186,0-91.879,39.179-91.879,102.474V492.589a63.843,63.843,0,0,1-127.686,0V312.15c0-127.3,98.5-230.866,219.564-230.866S520.415,184.851,520.415,312.15V492.589A63.915,63.915,0,0,1,456.572,556.431Z" transform="translate(-22.358 -22.357)"/>
    <path id="Path_38167" data-name="Path 38167" class="cls-4" d="M515.2,315.338V495.777a55.437,55.437,0,0,1-55.437,55.437h0a55.437,55.437,0,0,1-55.438-55.437V315.338c0-56.5-40.961-110.878-100.284-110.878S203.755,258.839,203.755,315.338V495.777a55.438,55.438,0,0,1-110.876,0V315.338c0-117.94,90.4-222.461,211.159-222.461S515.2,197.4,515.2,315.338Z" transform="translate(-25.546 -25.546)"/>
    <path id="Path_38168" data-name="Path 38168" class="cls-4" d="M745.867,592.944a122.817,122.817,0,0,1-122.68-122.679V289.827c0-18.295-11.483-43.638-33.042-43.638-9.046,0-17.831,5.267-24.1,14.449l-9.5,13.918c.26,5.115.392,10.227.392,15.271V470.266a122.68,122.68,0,0,1-245.36,0V289.827c0-18.295-11.483-43.638-33.042-43.638s-33.042,25.343-33.042,43.638V470.266a122.679,122.679,0,0,1-245.359,0V289.827c0-159.742,124.891-289.7,278.4-289.7C333.7.125,388.412,17.659,434.18,49.759A267.121,267.121,0,0,1,590.145.125c153.51,0,278.4,129.96,278.4,289.7V470.264A122.817,122.817,0,0,1,745.867,592.944Z" transform="translate(-0.034 -0.034)"/>
    <path id="Path_38169" data-name="Path 38169" class="cls-4" d="M753.308,580.773A103.183,103.183,0,0,1,650.24,477.705V297.268c0-30.418-20.13-63.25-52.654-63.25-15.626,0-30.314,8.383-40.3,23l-13.3,19.475c.512,6.944.771,13.91.771,20.775V477.707a103.068,103.068,0,0,1-206.136,0V297.268c0-30.418-20.13-63.25-52.654-63.25-25.322,0-52.654,24.181-52.654,63.25V477.707a103.067,103.067,0,0,1-206.135,0V297.268c0-148.928,116.093-270.09,258.789-270.09,56.141,0,110.985,19.271,155.72,54.5a247.551,247.551,0,0,1,155.9-54.5c142.7,0,258.789,121.162,258.789,270.09V477.705A103.183,103.183,0,0,1,753.308,580.773Z" transform="translate(-7.475 -7.475)"/>
    <path id="Path_38170" data-name="Path 38170" class="cls-4" d="M758.623,572.079a89.16,89.16,0,0,1-89.059-89.059V302.583c0-37.156-25.486-77.258-66.663-77.258-20.326,0-39.231,10.609-51.867,29.106l-16.1,23.578c.751,8.2,1.132,16.449,1.132,24.574V483.022a89.059,89.059,0,0,1-178.118,0V302.583c0-37.156-25.487-77.258-66.663-77.258-32.059,0-66.663,29.539-66.663,77.258V483.022a89.058,89.058,0,0,1-178.117,0V302.583C46.5,161.379,156.309,46.5,291.282,46.5c56.92,0,111.935,20.781,155.757,58.683C491.138,66.786,544.993,46.5,602.9,46.5c134.972,0,244.78,114.878,244.78,256.082V483.02A89.16,89.16,0,0,1,758.623,572.079Z" transform="translate(-12.79 -12.79)"/>
    <path id="Path_38171" data-name="Path 38171" class="cls-4" d="M606.089,58.1c-56.442,0-108.9,19.988-151.7,57.8l-4.2,3.708C408.574,81.335,354.067,58.1,294.47,58.1,164.133,58.1,58.1,169.2,58.1,305.772V486.21a80.654,80.654,0,0,0,161.308,0V305.772c0-52.913,38.965-85.664,75.068-85.664,46.368,0,75.068,44.465,75.068,85.664V486.21a80.654,80.654,0,0,0,161.308,0V305.772a261,261,0,0,0-1.388-26.8l17.824-26.1c14.226-20.827,35.661-32.771,58.806-32.771,46.368,0,75.068,44.465,75.068,85.664V486.209a80.654,80.654,0,0,0,161.308,0V305.772C842.465,169.2,736.427,58.1,606.089,58.1Z" transform="translate(-15.979 -15.979)"/>
    <path id="Path_38173" data-name="Path 38173" class="cls-4" d="M914,556.431a63.915,63.915,0,0,1-63.843-63.843V312.15c0-49.282-35.127-102.474-91.878-102.474-28.786,0-55.278,14.615-72.686,40.1l-10.368,15.18-4.7-17.774a248.027,248.027,0,0,0-53.547-100.44l-5.567-6.3,6.3-5.565C657.393,99.815,706,81.284,758.282,81.284c121.068,0,219.565,103.567,219.565,230.866V492.587A63.916,63.916,0,0,1,914,556.431Z" transform="translate(-168.171 -22.357)"/>
    <path id="Path_38174" data-name="Path 38174" class="cls-4" d="M762.782,92.877c-52.335,0-98.958,19.64-135,51.484h0A255.316,255.316,0,0,1,683.155,248.22h0c17.683-25.884,45.629-43.761,79.627-43.761,59.323,0,100.284,54.38,100.284,110.878V495.776a55.438,55.438,0,0,0,110.877,0V315.338C973.943,197.4,883.546,92.877,762.782,92.877Z" transform="translate(-172.672 -25.546)"/>
  </g>
</svg>
