<svg xmlns="http://www.w3.org/2000/svg" width="31.83" height="31.83" viewBox="0 0 31.83 31.83">
  <g id="_20-Advertising" data-name="20-Advertising" transform="translate(-1.999 -1.998)">
    <path id="Path_38323" data-name="Path 38323" d="M17.383,24.279a.53.53,0,0,1-.53.53H15.792a.53.53,0,1,1,0-1.061h1.061A.53.53,0,0,1,17.383,24.279ZM33.828,9.956V27.43a1.591,1.591,0,0,1-1.591,1.623H22.688A1.591,1.591,0,0,1,21.1,27.43v-.5H19.505v3.713h3.713a1.591,1.591,0,0,1,0,3.183H8.9a1.591,1.591,0,1,1,0-3.183h4.244V26.931H3.479a1.485,1.485,0,0,1-1.358-.976A1.544,1.544,0,0,1,2,25.34V6.243a1.544,1.544,0,0,1,1.48-1.591h7.957l1.751-2.43A.53.53,0,0,1,13.59,2a.483.483,0,0,1,.424.2l1.952,2.371.4-.318a1.591,1.591,0,0,1,2.2.212c.053.069.1.133.133.191H29.165a1.544,1.544,0,0,1,1.48,1.591V8.365h1.591A1.591,1.591,0,0,1,33.828,9.956ZM22.158,25.34h10.61V12.078H22.158ZM32.237,9.426H22.688a.53.53,0,0,0-.53.53v1.061h10.61V9.956A.53.53,0,0,0,32.237,9.426ZM17.022,5.076l-.382.308.626.769.4-.324a.483.483,0,0,0,.175-.53.334.334,0,0,0-.032-.09s-.037-.064-.069-.106a.53.53,0,0,0-.716-.027ZM8.641,10.343l2.122,2.546,7.883-3.422L16.805,7.235h0L13.633,3.4ZM6.291,12.4a1.591,1.591,0,0,0-.578,1.029,1.528,1.528,0,0,0,.334,1.109,1.549,1.549,0,0,0,2.175.207l1.591-1.284L7.872,11.107Zm3.432,2.509L12,17.675a.53.53,0,0,0,.716.069.472.472,0,0,0,.18-.34.462.462,0,0,0-.106-.355l-2.276-2.769ZM3.06,6.243V21.627H21.1V9.956a1.591,1.591,0,0,1,1.591-1.591h6.9V6.243a.5.5,0,0,0-.419-.53H18.9a1.591,1.591,0,0,1-.573.944l-.387.313,1.947,2.366a.53.53,0,0,1-.2.828l-8.249,3.581,2.17,2.652a1.56,1.56,0,0,1-.233,2.2,1.591,1.591,0,0,1-.987.345,1.56,1.56,0,0,1-1.215-.568L8.9,15.579a2.584,2.584,0,1,1-3.273-4L7.585,9.988l3.077-4.276H3.479A.5.5,0,0,0,3.06,6.243ZM23.219,31.706H8.9a.53.53,0,1,0,0,1.061H23.219a.53.53,0,1,0,0-1.061Zm-4.774-4.774H14.2v3.713h4.244ZM21.1,25.87V22.688H3.06V25.34a.584.584,0,0,0,.042.212.43.43,0,0,0,.377.313H21.1Zm11.671,1.56V26.4H22.158V27.43a.53.53,0,0,0,.53.562h9.549a.53.53,0,0,0,.53-.562ZM31.706,16.322V21.1a1.591,1.591,0,0,1-1.591,1.591h-5.3A1.591,1.591,0,0,1,23.219,21.1V16.322A1.591,1.591,0,0,1,24.81,14.73h5.3A1.591,1.591,0,0,1,31.706,16.322Zm-1.061,0a.53.53,0,0,0-.53-.53h-5.3a.53.53,0,0,0-.53.53V21.1a.53.53,0,0,0,.53.53h5.3a.53.53,0,0,0,.53-.53Zm-1.591,2.387a.53.53,0,0,1-.228.435L26.7,20.624a.53.53,0,0,1-.3.1.493.493,0,0,1-.244-.064.53.53,0,0,1-.286-.467v-2.96a.53.53,0,0,1,.833-.435l2.122,1.48A.53.53,0,0,1,29.054,18.709Zm-1.459,0-.663-.462v.923Z" transform="translate(0)" fill="#fff"/>
  </g>
</svg>
