<svg id="Group_40120" data-name="Group 40120" xmlns="http://www.w3.org/2000/svg" xmlns:xlink="http://www.w3.org/1999/xlink" width="717.773" height="310.517" viewBox="0 0 717.773 310.517">
  <defs>
    <style>
      .cls-1, .cls-3 {
        fill: none;
      }

      .cls-2 {
        clip-path: url(#clip-path);
      }

      .cls-3 {
        stroke: #33a1de;
        stroke-miterlimit: 10;
        stroke-width: 0.25px;
      }
    </style>
    <clipPath id="clip-path">
      <rect id="Rectangle_3250" data-name="Rectangle 3250" class="cls-1" width="717.773" height="310.517"/>
    </clipPath>
  </defs>
  <g id="Group_40108" data-name="Group 40108" class="cls-2">
    <path id="Path_38228" data-name="Path 38228" class="cls-3" d="M186.8,343.032v-70.97c0-52.3,39.411-84.68,75.924-84.68,46.9,0,75.924,43.955,75.924,84.68v70.97H444.164V272.063c0-105.194-81.395-190.778-181.44-190.778S81.285,166.866,81.285,272.063v70.97Z" transform="translate(-32.59 -32.59)"/>
    <path id="Path_38229" data-name="Path 38229" class="cls-3" d="M184.5,347.681v-70.97c0-46.688,33.848-91.625,82.871-91.625s82.87,44.937,82.87,91.625v70.97h91.622v-70.97c0-97.46-74.7-183.832-174.494-183.832S92.879,179.251,92.879,276.711v70.97Z" transform="translate(-37.238 -37.238)"/>
    <path id="Path_38230" data-name="Path 38230" class="cls-3" d="M202.879,310.492v-70.97c0-15.118,9.489-36.06,27.3-36.06s27.3,20.942,27.3,36.06v70.97H460.243v-70.97c0-4.168-.109-8.393-.324-12.619l7.854-11.5c5.181-7.588,12.443-11.94,19.918-11.94,17.815,0,27.3,20.942,27.3,36.06v70.971H717.748V239.523c0-132-103.2-239.4-230.058-239.4A220.74,220.74,0,0,0,358.809,41.142,225.035,225.035,0,0,0,230.183.126C103.329.126.125,107.52.125,239.523v70.97Z" transform="translate(-0.05 -0.05)"/>
    <path id="Path_38231" data-name="Path 38231" class="cls-3" d="M197.519,321.339V250.368c0-32.284,22.586-52.267,43.511-52.267,26.877,0,43.511,27.131,43.511,52.267v70.971H454.883V250.368c0-5.673-.214-11.429-.637-17.167l10.992-16.093c8.25-12.078,20.389-19.006,33.3-19.006,26.876,0,43.511,27.131,43.511,52.267v70.971H712.388V250.37c0-123.067-95.934-223.191-213.852-223.191A204.572,204.572,0,0,0,369.709,72.216,208.257,208.257,0,0,0,241.03,27.179C123.112,27.179,27.178,127.3,27.178,250.37v70.97Z" transform="translate(-10.897 -10.897)"/>
    <path id="Path_38232" data-name="Path 38232" class="cls-3" d="M193.687,329.086v-70.97c0-39.434,28.595-63.843,55.087-63.843,34.026,0,55.088,33.139,55.088,63.843v70.97H451.052v-70.97c0-6.716-.315-13.535-.935-20.308l13.307-19.484c10.441-15.285,26.064-24.052,42.86-24.052,34.026,0,55.087,33.139,55.087,63.843v70.971H708.557v-70.97c0-116.685-90.74-211.615-202.275-211.615-47.851,0-92.354,16.763-128.8,48.493C341.271,63.675,295.811,46.5,248.775,46.5,137.24,46.5,46.5,141.432,46.5,258.117v70.97Z" transform="translate(-18.642 -18.644)"/>
    <path id="Path_38233" data-name="Path 38233" class="cls-3" d="M191.4,333.737V262.768c0-43.725,32.2-70.789,62.033-70.789,38.316,0,62.033,36.744,62.033,70.789v70.969h133.3V262.768a215.79,215.79,0,0,0-1.147-22.143l14.729-21.566c11.756-17.211,29.469-27.081,48.6-27.081,38.316,0,62.033,36.744,62.033,70.789v70.971h133.3V262.766c0-112.853-87.628-204.664-195.335-204.664-46.642,0-89.989,16.517-125.356,47.766l-3.468,3.064C347.718,77.3,302.676,58.1,253.427,58.1,145.722,58.1,58.1,149.913,58.1,262.768v70.969Z" transform="translate(-23.294 -23.295)"/>
    <path id="Path_38234" data-name="Path 38234" class="cls-3" d="M515.582,69.692c-44.921,0-86.678,15.916-120.752,46.024l-8.236,7.277c-33.684-33.041-78.886-53.3-128.518-53.3-103.876,0-188.385,88.7-188.383,197.722v70.97H189.1v-70.97c0-48.015,35.805-77.734,68.979-77.734,42.607,0,68.978,40.352,68.978,77.734v70.97H446.462V267.415a208.486,208.486,0,0,0-1.384-23.939l16.178-23.688c13.07-19.135,32.873-30.108,54.33-30.108,42.606,0,68.978,40.352,68.978,77.734v70.97h119.4V267.415C703.967,158.39,619.458,69.692,515.582,69.692Z" transform="translate(-27.942 -27.942)"/>
    <path id="Path_38235" data-name="Path 38235" class="cls-3" d="M660.266,218.374l3.882,14.687,8.567-12.544c14.385-21.058,36.277-33.136,60.065-33.136,46.9,0,75.924,43.955,75.924,84.68v70.971H914.216V272.064c0-105.194-81.395-190.778-181.439-190.778-43.2,0-83.367,15.313-116.155,44.284l-5.206,4.6,4.6,5.206A204.959,204.959,0,0,1,660.266,218.374Z" transform="translate(-245.138 -32.59)"/>
    <path id="Path_38236" data-name="Path 38236" class="cls-3" d="M739.337,185.086c49.022,0,82.87,44.937,82.87,91.625v70.97H913.83V276.71c0-97.459-74.7-183.831-174.493-183.831-43.247,0-81.772,16.229-111.559,42.545a210.982,210.982,0,0,1,45.759,85.824C688.149,199.861,711.242,185.086,739.337,185.086Z" transform="translate(-251.697 -37.238)"/>
  </g>
</svg>
