<svg id="Group_40173" data-name="Group 40173" xmlns="http://www.w3.org/2000/svg" xmlns:xlink="http://www.w3.org/1999/xlink" width="907.791" height="392.721" viewBox="0 0 907.791 392.721">
  <defs>
    <style>
      .cls-1, .cls-3 {
        fill: none;
        stroke: var(--mainColor);
      }

      .cls-2 {
        clip-path: url(#clip-path);
      }

      .cls-3 {
        stroke-miterlimit: 10;
        stroke-width: 0.25px;
      }
    </style>
    <clipPath id="clip-path">
      <rect id="Rectangle_3250" data-name="Rectangle 3250" class="cls-1" width="907.791" height="392.721"/>
    </clipPath>
  </defs>
  <g id="Group_40108" data-name="Group 40108" class="cls-2">
    <path id="Path_38228" data-name="Path 38228" class="cls-3" d="M214.732,412.325V322.567c0-66.15,49.844-107.1,96.024-107.1,59.312,0,96.023,55.592,96.023,107.1v89.758H540.229V322.568c0-133.043-102.942-241.283-229.473-241.283S81.285,189.523,81.285,322.567v89.758Z" transform="translate(-19.699 -19.699)"/>
    <path id="Path_38229" data-name="Path 38229" class="cls-3" d="M208.758,415.135V325.377c0-59.048,42.809-115.881,104.81-115.881s104.808,56.833,104.808,115.881v89.758H534.254V325.377c0-123.261-94.475-232.5-220.688-232.5S92.879,202.116,92.879,325.377v89.758Z" transform="translate(-22.508 -22.508)"/>
    <path id="Path_38230" data-name="Path 38230" class="cls-3" d="M256.554,392.657V302.9c0-19.12,12-45.607,34.533-45.607S325.62,283.779,325.62,302.9v89.758H582.051V302.9c0-5.272-.138-10.615-.409-15.96l9.934-14.547c6.553-9.6,15.737-15.1,25.191-15.1,22.531,0,34.533,26.486,34.533,45.607v89.759H907.726V302.9C907.726,135.95,777.2.127,616.764.127A279.177,279.177,0,0,0,453.765,52C405.931,18.451,348.752.127,291.087.127,130.651.127.125,135.95.125,302.9v89.758Z" transform="translate(-0.03 -0.03)"/>
    <path id="Path_38231" data-name="Path 38231" class="cls-3" d="M242.614,399.213V309.454c0-40.831,28.565-66.1,55.03-66.1,33.992,0,55.03,34.313,55.03,66.1v89.759H568.111V309.454c0-7.174-.271-14.455-.805-21.712l13.9-20.354c10.434-15.276,25.786-24.037,42.117-24.037,33.991,0,55.029,34.313,55.029,66.1v89.759H893.785V309.456c0-155.647-121.331-282.276-270.465-282.276-59.935,0-116.006,19.649-162.932,56.959-46.753-36.819-104.07-56.96-162.745-56.96-149.135,0-270.465,126.629-270.465,282.276v89.758Z" transform="translate(-6.586 -6.587)"/>
    <path id="Path_38232" data-name="Path 38232" class="cls-3" d="M232.653,403.9V314.138c0-49.873,36.165-80.744,69.67-80.744,43.034,0,69.671,41.912,69.671,80.744V403.9H558.151V314.138c0-8.493-.4-17.119-1.183-25.685l16.83-24.642c13.205-19.332,32.963-30.419,54.207-30.419,43.034,0,69.67,41.912,69.67,80.744V403.9H883.826V314.138C883.826,166.563,769.064,46.5,628,46.5c-60.519,0-116.8,21.2-162.892,61.331C419.307,68.221,361.813,46.5,302.325,46.5,161.262,46.5,46.5,166.564,46.5,314.138V403.9Z" transform="translate(-11.268 -11.269)"/>
    <path id="Path_38233" data-name="Path 38233" class="cls-3" d="M226.686,406.707V316.95c0-55.3,40.723-89.529,78.455-89.529,48.46,0,78.455,46.471,78.455,89.529v89.757H552.182V316.95a272.878,272.878,0,0,0-1.45-28.005l18.629-27.276c14.868-21.767,37.27-34.25,61.46-34.25,48.46,0,78.455,46.471,78.455,89.529v89.759H877.861V316.948C877.857,174.218,767.035,58.1,630.814,58.1c-58.989,0-113.812,20.89-158.542,60.411l-4.386,3.875c-43.5-40-100.464-64.287-162.75-64.287C168.919,58.1,58.1,174.218,58.1,316.95v89.757Z" transform="translate(-14.08 -14.081)"/>
    <path id="Path_38234" data-name="Path 38234" class="cls-3" d="M633.623,69.692C576.81,69.692,524,89.821,480.9,127.9l-10.416,9.2c-42.6-41.788-99.77-67.411-162.541-67.411-131.375,0-238.256,112.18-238.254,250.066v89.758H220.709V319.758c0-60.726,45.284-98.313,87.24-98.313,53.886,0,87.239,51.035,87.239,98.313v89.758H546.2V319.759a263.685,263.685,0,0,0-1.751-30.277l20.461-29.959c16.531-24.2,41.576-38.079,68.713-38.079,53.885,0,87.239,51.035,87.239,98.313v89.758H871.879V319.759C871.879,181.872,765,69.692,633.623,69.692Z" transform="translate(-16.89 -16.889)"/>
    <path id="Path_38235" data-name="Path 38235" class="cls-3" d="M673.2,254.666l4.91,18.576,10.835-15.865c18.194-26.633,45.881-41.908,75.966-41.908,59.312,0,96.023,55.592,96.023,107.1v89.759H994.377V322.568c0-133.043-102.942-241.282-229.471-241.282-54.637,0-105.437,19.367-146.9,56.007l-6.584,5.817,5.818,6.584A259.218,259.218,0,0,1,673.2,254.666Z" transform="translate(-148.172 -19.699)"/>
    <path id="Path_38236" data-name="Path 38236" class="cls-3" d="M768.87,209.5c62,0,104.808,56.833,104.808,115.881v89.758H989.558V325.376c0-123.26-94.472-232.5-220.687-232.5-54.7,0-103.42,20.526-141.093,53.807A266.834,266.834,0,0,1,685.65,255.231C704.131,228.182,733.338,209.5,768.87,209.5Z" transform="translate(-152.137 -22.508)"/>
  </g>
</svg>
