<svg id="Group_40110" data-name="Group 40110" xmlns="http://www.w3.org/2000/svg" xmlns:xlink="http://www.w3.org/1999/xlink" width="771.489" height="333.755" viewBox="0 0 771.489 333.755">
  <defs>
    <style>
      .cls-1, .cls-3 {
        fill: none;
        stroke: #d1d1d1;
      }

      .cls-2 {
        clip-path: url(#clip-path);
      }

      .cls-3 {
        stroke-miterlimit: 10;
        stroke-width: 0.25px;
      }
    </style>
    <clipPath id="clip-path">
      <rect id="Rectangle_3250" data-name="Rectangle 3250" class="cls-1" width="771.489" height="333.755"/>
    </clipPath>
  </defs>
  <g id="Group_40108" data-name="Group 40108" class="cls-2">
    <path id="Path_38228" data-name="Path 38228" class="cls-3" d="M194.7,362.62V286.34c0-56.218,42.36-91.017,81.606-91.017,50.406,0,81.606,47.245,81.606,91.017V362.62H471.32V286.34c0-113.067-87.486-205.055-195.018-205.055S81.285,173.271,81.285,286.34V362.62Z" transform="translate(-28.946 -28.946)"/>
    <path id="Path_38229" data-name="Path 38229" class="cls-3" d="M191.359,366.749V290.468c0-50.182,36.382-98.482,89.073-98.482s89.072,48.3,89.072,98.482v76.281h98.479V290.468c0-104.754-80.29-197.589-187.552-197.589S92.879,185.714,92.879,290.468v76.281Z" transform="translate(-33.074 -33.074)"/>
    <path id="Path_38230" data-name="Path 38230" class="cls-3" d="M218.053,333.719V257.439c0-16.249,10.2-38.759,29.348-38.759s29.348,22.509,29.348,38.759v76.281H494.677V257.439c0-4.48-.117-9.021-.348-13.564l8.442-12.363c5.569-8.156,13.374-12.834,21.409-12.834,19.148,0,29.348,22.509,29.348,38.759v76.282H771.453v-76.28C771.453,115.557,660.526.126,524.178.126A237.26,237.26,0,0,0,385.652,44.211C345,15.7,296.407.126,247.4.126,111.053.126.125,115.557.125,257.439v76.281Z" transform="translate(-0.045 -0.045)"/>
    <path id="Path_38231" data-name="Path 38231" class="cls-3" d="M210.267,343.353V267.071c0-34.7,24.276-56.178,46.767-56.178,28.888,0,46.768,29.161,46.768,56.178v76.282h183.09V267.071c0-6.1-.23-12.284-.685-18.452l11.814-17.3c8.868-12.982,21.914-20.428,35.793-20.428,28.887,0,46.767,29.161,46.767,56.178v76.282H763.667v-76.28C763.667,134.8,660.554,27.18,533.812,27.18A219.881,219.881,0,0,0,395.343,75.587,223.843,223.843,0,0,0,257.034,27.179C130.291,27.179,27.178,134.8,27.178,267.072v76.281Z" transform="translate(-9.678 -9.678)"/>
    <path id="Path_38232" data-name="Path 38232" class="cls-3" d="M204.7,350.234V273.953c0-42.385,30.735-68.621,59.21-68.621,36.573,0,59.21,35.619,59.21,68.621v76.281H481.328V273.953c0-7.218-.338-14.548-1.005-21.828l14.3-20.942c11.223-16.429,28.014-25.852,46.068-25.852,36.573,0,59.21,35.619,59.21,68.621v76.282H758.1V273.953C758.1,148.536,660.573,46.5,540.691,46.5c-51.432,0-99.265,18.018-138.434,52.122C363.331,64.96,314.469,46.5,263.913,46.5,144.031,46.5,46.5,148.537,46.5,273.953v76.281Z" transform="translate(-16.557 -16.559)"/>
    <path id="Path_38233" data-name="Path 38233" class="cls-3" d="M201.373,354.365v-76.28c0-47,34.609-76.086,66.675-76.086,41.184,0,66.675,39.493,66.675,76.086v76.28H478v-76.28a231.9,231.9,0,0,0-1.232-23.8L492.6,231.1C505.232,212.605,524.27,202,544.828,202c41.184,0,66.675,39.494,66.675,76.086v76.282H754.776V278.083c0-121.3-94.186-219.981-209.953-219.981-50.132,0-96.723,17.754-134.737,51.341l-3.728,3.294c-36.966-34-85.38-54.634-138.313-54.634C152.28,58.1,58.1,156.784,58.1,278.085v76.28Z" transform="translate(-20.689 -20.69)"/>
    <path id="Path_38234" data-name="Path 38234" class="cls-3" d="M548.951,69.692c-48.283,0-93.164,17.107-129.789,49.468l-8.852,7.821c-36.205-35.514-84.79-57.29-138.136-57.29-111.649,0-202.483,95.336-202.481,212.519v76.281H198.035V282.211c0-51.608,38.485-83.552,74.141-83.552,45.8,0,74.14,43.372,74.14,83.552v76.281H474.658v-76.28a224.09,224.09,0,0,0-1.488-25.731l17.388-25.46c14.049-20.567,35.333-32.362,58.4-32.362,45.795,0,74.14,43.372,74.14,83.552v76.281H751.434v-76.28C751.434,165.028,660.6,69.692,548.951,69.692Z" transform="translate(-24.818 -24.817)"/>
    <path id="Path_38235" data-name="Path 38235" class="cls-3" d="M663.922,228.633,668.1,244.42l9.208-13.483c15.462-22.634,38.992-35.615,64.56-35.615,50.406,0,81.606,47.245,81.606,91.017v76.282H936.877v-76.28c0-113.067-87.486-205.055-195.017-205.055-46.433,0-89.606,16.459-124.847,47.6l-5.6,4.943,4.945,5.6A220.3,220.3,0,0,1,663.922,228.633Z" transform="translate(-217.726 -28.946)"/>
    <path id="Path_38236" data-name="Path 38236" class="cls-3" d="M747.686,191.986c52.69,0,89.072,48.3,89.072,98.482v76.281h98.481V290.468c0-104.753-80.287-197.589-187.552-197.589-46.484,0-87.892,17.444-119.908,45.728a226.772,226.772,0,0,1,49.183,92.247C692.667,207.867,717.489,191.986,747.686,191.986Z" transform="translate(-223.553 -33.074)"/>
  </g>
</svg>
