<svg id="Group_40120" data-name="Group 40120" xmlns="http://www.w3.org/2000/svg" xmlns:xlink="http://www.w3.org/1999/xlink" width="1712" height="740.631" viewBox="0 0 1712 740.631">
  <defs>
    <style>
      .cls-1, .cls-3 {
        fill: none;
        stroke: #fff290;
      }

      .cls-2 {
        clip-path: url(#clip-path);
      }

      .cls-3 {
        stroke-miterlimit: 10;
        stroke-width: 0.25px;
      }
    </style>
    <clipPath id="clip-path">
      <rect id="Rectangle_3250" data-name="Rectangle 3250" class="cls-1" width="1712" height="740.631"/>
    </clipPath>
  </defs>
  <g id="Group_40108" data-name="Group 40108" class="cls-2">
    <path id="Path_38228" data-name="Path 38228" class="cls-3" d="M332.953,705.592V536.319c0-124.753,94-201.975,181.092-201.975,111.856,0,181.09,104.84,181.09,201.975V705.592H946.806V536.32c0-250.9-194.139-455.035-432.762-455.035S81.285,285.41,81.285,536.319V705.592Z" transform="translate(34.86 34.86)"/>
    <path id="Path_38229" data-name="Path 38229" class="cls-3" d="M311.414,700.62V531.347c0-111.359,80.734-218.539,197.661-218.539S706.733,419.988,706.733,531.347V700.62H925.266V531.347c0-232.458-178.171-438.468-416.194-438.468S92.879,298.889,92.879,531.347V700.62Z" transform="translate(39.833 39.833)"/>
    <path id="Path_38230" data-name="Path 38230" class="cls-3" d="M483.725,740.4V571.126c0-36.059,22.632-86.009,65.125-86.009s65.126,49.95,65.126,86.009V740.4h483.6V571.126c0-9.942-.26-20.018-.772-30.1l18.734-27.434c12.358-18.1,29.679-28.479,47.508-28.479,42.492,0,65.125,49.95,65.125,86.009V740.4h483.594V571.127c0-314.849-246.158-571-548.724-571a526.5,526.5,0,0,0-307.4,97.829C765.434,34.686,657.6.128,548.85.128,246.283.128.125,256.278.125,571.126V740.4Z" transform="translate(0.054 0.054)"/>
    <path id="Path_38231" data-name="Path 38231" class="cls-3" d="M433.467,728.8V559.52c0-77,53.871-124.664,103.78-124.664,64.1,0,103.781,64.711,103.781,124.664V728.8h406.292V559.52c0-13.53-.51-27.26-1.519-40.947l26.217-38.385c19.678-28.809,48.63-45.332,79.428-45.332,64.1,0,103.78,64.711,103.78,124.664V728.8h406.284V559.524c0-293.535-228.817-532.344-510.069-532.344-113.032,0-218.775,37.056-307.273,107.419C756,65.163,647.9,27.179,537.247,27.179,256,27.179,27.178,265.988,27.178,559.523V728.8Z" transform="translate(11.656 11.656)"/>
    <path id="Path_38232" data-name="Path 38232" class="cls-3" d="M397.568,720.51V551.236c0-94.055,68.2-152.276,131.391-152.276,81.158,0,131.393,79.042,131.393,152.276V720.51h351.072V551.236c0-16.018-.75-32.284-2.23-48.439l31.739-46.472c24.9-36.458,62.166-57.368,102.228-57.368,81.158,0,131.391,79.042,131.391,152.276V720.51h351.061V551.236c0-278.312-216.429-504.734-482.458-504.734-114.132,0-220.278,39.983-307.2,115.664C749.579,87.462,641.151,46.5,528.963,46.5,262.933,46.5,46.5,272.926,46.5,551.236V720.51Z" transform="translate(19.941 19.943)"/>
    <path id="Path_38233" data-name="Path 38233" class="cls-3" d="M376.036,715.535V546.263c0-104.291,76.8-168.842,147.958-168.842,91.39,0,147.958,87.64,147.958,168.842V715.535H989.888V546.263a514.626,514.626,0,0,0-2.735-52.815l35.132-51.439c28.04-41.05,70.287-64.592,115.907-64.592,91.39,0,147.958,87.64,147.958,168.842V715.535h317.936V546.258C1604.077,277.086,1395.079,58.1,1138.18,58.1c-111.247,0-214.637,39.4-298.993,113.929l-8.272,7.309C748.884,103.9,641.45,58.1,523.986,58.1,267.093,58.1,58.1,277.086,58.1,546.263V715.535Z" transform="translate(24.917 24.918)"/>
    <path id="Path_38234" data-name="Path 38234" class="cls-3" d="M1133.208,69.692c-107.144,0-206.74,37.962-288.012,109.774l-19.644,17.356C745.209,118.015,637.4,69.692,519.016,69.692c-247.76,0-449.327,211.559-449.323,471.6V710.564h284.8V541.291c0-114.524,85.4-185.408,164.525-185.408,101.624,0,164.524,96.247,164.524,185.408V710.564h284.8V541.292a497.279,497.279,0,0,0-3.3-57.1l38.587-56.5c31.175-45.639,78.408-71.813,129.585-71.813,101.622,0,164.524,96.247,164.524,185.408V710.564h284.8V541.292C1582.534,281.251,1380.966,69.692,1133.208,69.692Z" transform="translate(29.889 29.889)"/>
    <path id="Path_38235" data-name="Path 38235" class="cls-3" d="M727.93,408.262l9.26,35.031,20.433-29.919c34.311-50.227,86.526-79.033,143.264-79.033,111.856,0,181.09,104.84,181.09,201.974V705.592H1333.64V536.32c0-250.9-194.139-455.034-432.759-455.034-103.04,0-198.844,36.525-277.047,105.623l-12.417,10.969L622.389,210.3A488.859,488.859,0,0,1,727.93,408.262Z" transform="translate(262.216 34.861)"/>
    <path id="Path_38236" data-name="Path 38236" class="cls-3" d="M893.863,312.806c116.924,0,197.658,107.182,197.658,218.539V700.62h218.536V531.345c.006-232.455-178.164-438.466-416.193-438.466-103.151,0-195.04,38.709-266.086,101.475a503.222,503.222,0,0,1,109.141,204.7C771.772,348.047,826.853,312.806,893.863,312.806Z" transform="translate(269.233 39.833)"/>
  </g>
</svg>
