<svg id="Group_40123" data-name="Group 40123" xmlns="http://www.w3.org/2000/svg" xmlns:xlink="http://www.w3.org/1999/xlink" width="1060.997" height="459" viewBox="0 0 1060.997 459">
  <defs>
    <style>
      .cls-1, .cls-3 {
        fill: none;
        stroke: #d3d3d3;
      }

      .cls-2 {
        clip-path: url(#clip-path);
      }

      .cls-3 {
        stroke-miterlimit: 10;
        stroke-width: 0.25px;
      }
    </style>
    <clipPath id="clip-path">
      <rect id="Rectangle_3250" data-name="Rectangle 3250" class="cls-1" width="1060.997" height="459"/>
    </clipPath>
  </defs>
  <g id="Group_40108" data-name="Group 40108" class="cls-2">
    <path id="Path_38228" data-name="Path 38228" class="cls-3" d="M237.254,468.194V363.288c0-77.315,58.256-125.172,112.23-125.172,69.322,0,112.229,64.974,112.229,125.172V468.194H617.684v-104.9c0-155.5-120.316-282-268.2-282s-268.2,126.5-268.2,282V468.194Z" transform="translate(-9.305 -9.305)"/>
    <path id="Path_38229" data-name="Path 38229" class="cls-3" d="M228.314,469.521V364.616c0-69.014,50.034-135.438,122.5-135.438s122.5,66.424,122.5,135.438V469.521H608.744V364.616c0-144.064-110.42-271.737-257.933-271.737S92.879,220.552,92.879,364.616V469.521Z" transform="translate(-10.632 -10.632)"/>
    <path id="Path_38230" data-name="Path 38230" class="cls-3" d="M299.832,458.9V354c0-22.347,14.026-53.3,40.361-53.3s40.361,30.956,40.361,53.3V458.9H680.262V354c0-6.161-.161-12.406-.478-18.654l11.61-17c7.659-11.216,18.393-17.649,29.443-17.649,26.334,0,40.361,30.956,40.361,53.3V458.9h299.7V354C1060.9,158.874,908.347.127,720.834.127A326.294,326.294,0,0,0,530.325,60.755C474.419,21.544,407.59.127,340.192.127,152.679.127.125,158.874.125,354V458.9Z" transform="translate(-0.014 -0.014)"/>
    <path id="Path_38231" data-name="Path 38231" class="cls-3" d="M278.973,462V357.093c0-47.722,33.386-77.26,64.317-77.26,39.728,0,64.318,40.1,64.318,77.26V462H659.4V357.093c0-8.385-.316-16.894-.941-25.377l16.248-23.789c12.2-17.854,30.138-28.094,49.225-28.094,39.727,0,64.317,40.1,64.317,77.26V462h251.791V357.1c0-181.916-141.807-329.916-316.111-329.916-70.051,0-135.584,22.965-190.43,66.572C478.857,50.719,411.866,27.179,343.289,27.179c-174.3,0-316.111,148-316.111,329.916V462Z" transform="translate(-3.111 -3.111)"/>
    <path id="Path_38232" data-name="Path 38232" class="cls-3" d="M264.07,464.212V359.307c0-58.29,42.268-94.372,81.429-94.372,50.3,0,81.43,48.986,81.43,94.372V464.212H644.5V359.307c0-9.927-.465-20.008-1.382-30.019l19.67-28.8c15.434-22.594,38.527-35.553,63.355-35.553,50.3,0,81.429,48.986,81.429,94.372V464.212h217.567V359.307c0-172.481-134.13-312.8-299-312.8-70.732,0-136.516,24.779-190.383,71.682C482.226,71.887,415.029,46.5,345.5,46.5c-164.869,0-299,140.324-299,312.8V464.212Z" transform="translate(-5.323 -5.323)"/>
    <path id="Path_38233" data-name="Path 38233" class="cls-3" d="M255.138,465.54v-104.9c0-64.634,47.6-104.638,91.7-104.638,56.638,0,91.7,54.314,91.7,104.638v104.9H635.568v-104.9a318.92,318.92,0,0,0-1.695-32.732l21.772-31.879c17.378-25.44,43.56-40.03,71.832-40.03,56.638,0,91.7,54.314,91.7,104.638V465.54h197.038V360.633c0-166.817-129.53-302.531-288.74-302.531-68.945,0-133.02,24.416-185.3,70.607l-5.126,4.529C486.207,86.485,419.626,58.1,346.829,58.1,187.622,58.1,58.1,193.815,58.1,360.635v104.9Z" transform="translate(-6.651 -6.651)"/>
    <path id="Path_38234" data-name="Path 38234" class="cls-3" d="M728.8,69.692c-66.4,0-128.125,23.527-178.493,68.032L538.13,148.48C488.339,99.64,421.522,69.692,348.157,69.692,194.61,69.692,69.69,200.8,69.693,361.961V466.867H246.2V361.961c0-70.975,52.926-114.905,101.963-114.905,62.98,0,101.962,59.648,101.962,114.905V466.867h176.5v-104.9a308.185,308.185,0,0,0-2.046-35.387l23.914-35.015c19.32-28.285,48.593-44.506,80.309-44.506,62.98,0,101.962,59.648,101.962,114.905V466.867h176.5v-104.9C1007.263,200.8,882.344,69.692,728.8,69.692Z" transform="translate(-7.978 -7.978)"/>
    <path id="Path_38235" data-name="Path 38235" class="cls-3" d="M683.625,283.927l5.739,21.71L702.027,287.1c21.264-31.128,53.624-48.98,88.787-48.98,69.322,0,112.229,64.974,112.229,125.172V468.194h155.966v-104.9c0-155.5-120.316-282-268.2-282-63.858,0-123.232,22.636-171.7,65.459l-7.7,6.8,6.8,7.7A302.966,302.966,0,0,1,683.625,283.927Z" transform="translate(-69.99 -9.305)"/>
    <path id="Path_38236" data-name="Path 38236" class="cls-3" d="M792.682,229.177c72.463,0,122.5,66.425,122.5,135.438V469.521h135.436V364.615c0-144.062-110.416-271.736-257.932-271.736-63.927,0-120.874,23.99-164.9,62.888a311.868,311.868,0,0,1,67.639,126.863C717.017,251.017,751.153,229.177,792.682,229.177Z" transform="translate(-71.863 -10.632)"/>
  </g>
</svg>
