<svg xmlns="http://www.w3.org/2000/svg" width="31.493" height="31.494" viewBox="0 0 31.493 31.494">
  <defs>
    <style>
      .cls-1 {
        fill: #fff;
      }

      .cls-2 {
        fill: #f9f6ee;
      }
    </style>
  </defs>
  <g id="Group_40179" data-name="Group 40179" transform="translate(-1765.015 -6004.866)">
    <path id="Path_38296" data-name="Path 38296" class="cls-1" d="M264.89,26.71a5.961,5.961,0,0,1-1.868.716,2.957,2.957,0,0,0-2.147-.916,2.914,2.914,0,0,0-2.935,2.863,2.881,2.881,0,0,0,.08.659,8.378,8.378,0,0,1-6.053-3.02,2.826,2.826,0,0,0,.909,3.836,2.957,2.957,0,0,1-1.331-.365v.036a2.906,2.906,0,0,0,2.354,2.863,3,3,0,0,1-1.323.05,2.934,2.934,0,0,0,2.741,2,5.951,5.951,0,0,1-3.629,1.253,6.115,6.115,0,0,1-.716-.043,8.41,8.41,0,0,0,4.5,1.3,8.231,8.231,0,0,0,8.378-8.079v-.517a5.95,5.95,0,0,0,1.432-1.5,5.945,5.945,0,0,1-1.689.458,2.914,2.914,0,0,0,1.294-1.6" transform="translate(1523.351 5988.39)"/>
    <path id="Path_38295" data-name="Path 38295" class="cls-2" d="M242.128,0a15.747,15.747,0,1,0,15.747,15.747A15.747,15.747,0,0,0,242.128,0m0,29.652a13.906,13.906,0,1,1,13.906-13.907h0a13.906,13.906,0,0,1-13.906,13.906" transform="translate(1538.634 6004.865)"/>
  </g>
</svg>
