<svg id="view" xmlns="http://www.w3.org/2000/svg" width="32.023" height="20.41" viewBox="0 0 32.023 20.41">
  <defs>
    <style>
      .cls-1 {
        fill: #E7598D;
      }
    </style>
  </defs>
  <g id="Group_40154" data-name="Group 40154" transform="translate(0 0)">
    <g id="Group_40153" data-name="Group 40153" transform="translate(0 0)">
      <path id="Path_38274" data-name="Path 38274" class="cls-1" d="M31.819,102.417c-.286-.391-7.1-9.582-15.808-9.582S.489,102.026.2,102.417a1.057,1.057,0,0,0,0,1.246c.286.391,7.1,9.582,15.808,9.582s15.522-9.191,15.808-9.582A1.055,1.055,0,0,0,31.819,102.417Zm-15.808,8.717c-6.413,0-11.967-6.1-13.611-8.094,1.642-2,7.184-8.093,13.611-8.093s11.966,6.1,13.611,8.094C27.98,105.037,22.438,111.134,16.011,111.134Z" transform="translate(0 -92.835)"/>
    </g>
  </g>
  <g id="Group_40156" data-name="Group 40156" transform="translate(9.677 3.871)">
    <g id="Group_40155" data-name="Group 40155" transform="translate(0 0)">
      <path id="Path_38275" data-name="Path 38275" class="cls-1" d="M161.056,154.725a6.334,6.334,0,1,0,6.334,6.334A6.342,6.342,0,0,0,161.056,154.725Zm0,10.557a4.223,4.223,0,1,1,4.223-4.223A4.227,4.227,0,0,1,161.056,165.282Z" transform="translate(-154.722 -154.725)"/>
    </g>
  </g>
</svg>
