<svg xmlns="http://www.w3.org/2000/svg" width="56.469" height="58.764" viewBox="0 0 56.469 58.764">
  <defs>
    <style>
      .cls-1 {
        fill: #fff290;
      }

      .cls-2 {
        fill: #fff;
      }

      .cls-3 {
        fill: var(--mainColor);
      }
    </style>
  </defs>
  <g id="XMLID_2341_" transform="translate(-11 3)">
    <g id="XMLID_174_" transform="translate(11 -3)">
      <path id="XMLID_187_" class="cls-1" d="M199.917,11.572a1.148,1.148,0,0,0,1.623,0l4.589-4.589a4.091,4.091,0,0,0-5.4-6.125,4.091,4.091,0,0,0-5.4,6.125Zm-2.966-8.75a1.8,1.8,0,0,1,2.539,0l.427.427a1.148,1.148,0,0,0,1.623,0l.427-.427a1.795,1.795,0,1,1,2.539,2.538l-3.777,3.777L196.952,5.36A1.8,1.8,0,0,1,196.951,2.821Z" transform="translate(-172.999 0)"/>
      <path id="XMLID_1081_" class="cls-2" d="M47.835,118.6h6.582a12.051,12.051,0,1,0,0-24.1h-.345V92.9a1.148,1.148,0,0,0-1.148-1.148h-7.1a1.148,1.148,0,0,0,0,2.3h5.957v9.182A19.7,19.7,0,0,1,39.847,121.36H24.226A19.7,19.7,0,0,1,12.3,103.226V94.044h23.2a1.148,1.148,0,0,0,0-2.3H25.444l3.379-3.379a4.572,4.572,0,0,0-6.15-6.752,4.571,4.571,0,0,0-6.15,6.752L19.9,91.749H11.148A1.148,1.148,0,0,0,10,92.9v10.33a21.982,21.982,0,0,0,9.5,18.134H11.148A1.148,1.148,0,0,0,10,122.508v.477a7.106,7.106,0,0,0,7.1,7.1H49.27a7.106,7.106,0,0,0,7.1-7.1v-.477a1.148,1.148,0,0,0-1.148-1.148H44.569A21.992,21.992,0,0,0,47.835,118.6ZM18.146,83.528a2.278,2.278,0,0,1,3.218,0l.5.5a1.148,1.148,0,0,0,.811.336h0a1.148,1.148,0,0,0,.811-.336l.5-.5A2.276,2.276,0,1,1,27.2,86.747l-4.527,4.527-4.527-4.527a2.278,2.278,0,0,1,0-3.219Zm31.124,44.26H17.1a4.81,4.81,0,0,1-4.756-4.132H54.026A4.81,4.81,0,0,1,49.27,127.788ZM54.418,96.8a9.755,9.755,0,0,1,0,19.511H49.784a21.961,21.961,0,0,0,1.481-2.3h3.153a7.46,7.46,0,0,0,0-14.92h-.345V96.8Zm-.345,6.428v-1.837h.345a5.164,5.164,0,1,1,0,10.329H52.381A22.063,22.063,0,0,0,54.073,103.226Z" transform="translate(-10 -71.319)"/>
      <path id="XMLID_1091_" class="cls-1" d="M119.28,237.916a6.318,6.318,0,0,0-8.874,9l7.444,7.444a2.025,2.025,0,0,0,2.86,0l7.444-7.444a6.318,6.318,0,0,0-8.874-9Zm8.429,4.528a4,4,0,0,1-1.178,2.845l-7.251,7.251-7.251-7.251a4.023,4.023,0,1,1,5.689-5.689l.75.75a1.148,1.148,0,0,0,1.623,0l.75-.75a4.023,4.023,0,0,1,6.867,2.845Z" transform="translate(-97.243 -209.025)"/>
      <path id="XMLID_1094_" class="cls-3" d="M269.059,179.959a1.147,1.147,0,1,0-.812.336A1.157,1.157,0,0,0,269.059,179.959Z" transform="translate(-237.592 -157.57)"/>
    </g>
  </g>
</svg>
