<svg xmlns="http://www.w3.org/2000/svg" width="29.743" height="29.744" viewBox="0 0 29.743 29.744">
  <defs>
    <style>
      .cls-1 {
        fill: #f9f6ee;
      }

      .cls-2 {
        fill: var(--mainColor);
      }
    </style>
  </defs>
  <g id="Group_40181" data-name="Group 40181" transform="translate(-1809.757 -6006.621)">
    <path id="Path_38297" data-name="Path 38297" class="cls-1" d="M369.962,8.992a14.87,14.87,0,0,0-23.518,17.726l-1.832,6.552a.871.871,0,0,0,1.074,1.074l6.552-1.832a14.869,14.869,0,0,0,17.724-23.52M359.448,32.634a13.111,13.111,0,0,1-6.652-1.809.87.87,0,0,0-.677-.089l-5.413,1.514,1.514-5.413a.87.87,0,0,0-.089-.677,13.127,13.127,0,1,1,11.318,6.473Z" transform="translate(1465.178 6001.982)"/>
    <path id="Path_38298" data-name="Path 38298" class="cls-2" d="M377.168,31.811a2.833,2.833,0,0,0-4,0l-.4.4a.537.537,0,0,1-.754,0l-2.78-2.78a.537.537,0,0,1,0-.754l.4-.4a2.831,2.831,0,0,0,0-4l-.808-.808a2.834,2.834,0,0,0-4,0l-.6.6a5.713,5.713,0,0,0-1.3,5.341,11.712,11.712,0,0,0,3.288,5.822,10.933,10.933,0,0,0,7.349,3.445,5.248,5.248,0,0,0,3.812-1.459l.6-.6a2.832,2.832,0,0,0,0-4Zm-.424,3.574-.6.6a3.551,3.551,0,0,1-2.581.946A9.183,9.183,0,0,1,367.442,34a9.958,9.958,0,0,1-2.811-4.932,4.045,4.045,0,0,1,.826-3.767l.6-.6a1.091,1.091,0,0,1,1.535,0l.808.808a1.087,1.087,0,0,1,0,1.535l-.4.4a2.28,2.28,0,0,0,0,3.218l2.78,2.78a2.279,2.279,0,0,0,3.218,0l.4-.4a1.091,1.091,0,0,1,1.535,0l.808.808a1.087,1.087,0,0,1,0,1.537h0" transform="translate(1453.877 5990.792)"/>
  </g>
</svg>
