<?xml version="1.0" encoding="UTF-8"?>
<svg width="71.88" height="71.88" 
viewBox="0 0 71.88 71.88" 
preserveAspectRatio="xMinYMin"
xmlns:xlink="http://www.w3.org/1999/xlink"
xmlns="http://www.w3.org/2000/svg">
<!-- Generated by PQINA - https://pqina.nl/ -->
<title></title>
<g transform="rotate(0 35.94 35.94) translate(35.94 35.94) scale(1) translate(-35.94 -35.94) translate(0 0)">
<g transform="scale(1 1) translate(0 0)">
<svg id="layer1" xmlns="http://www.w3.org/2000/svg" width="71.88" height="71.88" viewBox="0 0 71.88 71.88" style="overflow: visible;">
  <defs>
    <style>
      .cls-1 {
        fill: var(--mainColor);
      }
    </style>
  </defs>
  <path id="path9033" class="cls-1" d="M24.495,280.6a9.593,9.593,0,0,0-9.586,9.586v4.5a3.647,3.647,0,0,0-1.2,2.684,3.545,3.545,0,0,0,3.676,3.589,8.387,8.387,0,0,0,2.314,4.663v4.925a10.749,10.749,0,0,0-9.635,5.99H7.721a3.613,3.613,0,0,0-3.594,3.594v4.792a1.2,1.2,0,1,0,2.4,0v-4.792a1.17,1.17,0,0,1,1.2-1.2h35.94a1.17,1.17,0,0,1,1.2,1.2v20.364H6.523V335.7a1.2,1.2,0,1,0-2.4,0v7.188a4.726,4.726,0,0,0,.669,2.4H1.731a1.2,1.2,0,0,0-1.2,1.193v4.794a1.2,1.2,0,0,0,1.2,1.2H71.214a1.2,1.2,0,0,0,1.193-1.2v-4.794a1.2,1.2,0,0,0-1.193-1.193H62.8a5.931,5.931,0,0,0,1.109-2.4h1.324a3.607,3.607,0,0,0,3.589-3.592v-2.4a1.2,1.2,0,0,0-1.193-1.2h-3.6v-1.193a1.2,1.2,0,0,0-1.2-1.2H50.848a1.2,1.2,0,0,0-1.193,1.2v7.19a5.918,5.918,0,0,0,1.231,3.589h-4.3a4.725,4.725,0,0,0,.669-2.4V320.128a3.613,3.613,0,0,0-3.594-3.594H41.316a10.749,10.749,0,0,0-9.635-5.99v-4.925a8.19,8.19,0,0,0,2.309-4.654,3.583,3.583,0,0,0,3.681-3.6,3.534,3.534,0,0,0-1.2-2.679l0-4.5a9.588,9.588,0,0,0-9.577-9.586Zm0,2.4h2.4a7.142,7.142,0,0,1,7.181,7.19v3.589h-.7l-3.245-3.245a1.2,1.2,0,0,0-1.689,0s-3.351,3.245-7.544,3.245H17.3v-3.589a7.15,7.15,0,0,1,7.19-7.19Zm4.724,10.014,2.462,2.46v4.3a5.99,5.99,0,0,1-11.98,0v-3.592h1.2A13.716,13.716,0,0,0,29.219,293.007ZM17.3,298.564a1.2,1.2,0,0,1-.006-2.394Zm17.97-1.2a1.187,1.187,0,0,1-1.2,1.2l0-2.394a1.186,1.186,0,0,1,1.192,1.2ZM22.1,307.327a8.276,8.276,0,0,0,7.188,0v3.217s-.009,2.4-3.594,2.4-3.594-2.4-3.594-2.4Zm-1.631,5.613s1.161,2.4,5.225,2.4,5.225-2.4,5.225-2.4h.765a8.328,8.328,0,0,1,6.867,3.594H12.833A8.329,8.329,0,0,1,19.7,312.94Zm33.956,10.768a1.2,1.2,0,0,0-1.177,1.212v4.792a1.2,1.2,0,1,0,2.4,0V324.92a1.2,1.2,0,0,0-1.219-1.212Zm4.792,0a1.2,1.2,0,0,0-1.175,1.212v4.792a1.2,1.2,0,1,0,2.4,0V324.92a1.2,1.2,0,0,0-1.221-1.212Zm-33.525,2.415a3.6,3.6,0,1,0,3.6,3.6A3.612,3.612,0,0,0,25.688,326.123ZM5.306,328.5a1.2,1.2,0,0,0-1.179,1.214v1.2a1.2,1.2,0,1,0,2.4,0v-1.2A1.2,1.2,0,0,0,5.306,328.5Zm20.382.023a1.2,1.2,0,1,1,0,2.4,1.2,1.2,0,0,1,0-2.4ZM52.042,335.7h9.586v6a3.552,3.552,0,0,1-3.589,3.589h-2.4a3.56,3.56,0,0,1-3.6-3.589Zm11.985,2.4h2.4v1.2a1.162,1.162,0,0,1-1.193,1.193h-1.2Zm-57.5,4.794H44.859a2.365,2.365,0,0,1-2.4,2.4H8.919A2.365,2.365,0,0,1,6.523,342.891Zm-3.6,4.792H70.012v2.4H2.926Z" transform="translate(-0.528 -280.597)"></path>
</svg>
</g>
</g>
</svg>