<svg xmlns="http://www.w3.org/2000/svg" width="511.854" height="512" viewBox="0 0 511.854 512">
  <g id="_012-social-media" data-name="012-social-media" transform="translate(-0.5 0)">
    <path id="Path_9" data-name="Path 9" d="M447.324,317.766a201.428,201.428,0,0,0,.063-123.5A100.352,100.352,0,0,0,409.144.043a100.528,100.528,0,0,0-91.066,64.91,201.484,201.484,0,0,0-123.352.016A100.33,100.33,0,1,0,65.473,194.211a201.474,201.474,0,0,0,.051,123.555A100.494,100.494,0,0,0,.5,411.672a99.415,99.415,0,0,0,9.73,43.152,7.5,7.5,0,1,0,13.539-6.461,84.515,84.515,0,0,1-8.27-36.691,85.334,85.334,0,1,1,27.578,62.813,7.5,7.5,0,1,0-10.156,11.039,100.332,100.332,0,0,0,161.867-38.66,201.506,201.506,0,0,0,123.273,0,100.331,100.331,0,1,0,129.262-129.1ZM349.976,41.743a84.778,84.778,0,0,1,59.6-26.707c.828-.023,1.648-.035,2.477-.035a85.326,85.326,0,0,1,2.406,170.617q-1.242.035-2.477.035a85.327,85.327,0,0,1-62.008-143.91ZM313.855,432.462a186.5,186.5,0,0,1-114.859,0A100.362,100.362,0,0,0,79.925,313.544a186.427,186.427,0,0,1-.055-115.1,100.469,100.469,0,0,0,70.008-10.574,7.5,7.5,0,1,0-7.344-13.078,85.385,85.385,0,1,1,24.309-20.383,7.5,7.5,0,1,0,11.6,9.512,100.359,100.359,0,0,0,20.516-84.551,186.469,186.469,0,0,1,114.91-.012,100.457,100.457,0,0,0,98.113,121.3c.965,0,1.938-.012,2.91-.043a101.431,101.431,0,0,0,18.09-2.152,186.416,186.416,0,0,1-.059,115.086A100.364,100.364,0,0,0,313.855,432.462ZM412.019,497a85.326,85.326,0,1,1,85.332-85.324A85.424,85.424,0,0,1,412.019,497Zm0,0" fill="var(--mainColor)"/>
    <path id="Path_10" data-name="Path 10" d="M151.9,56.055a7.5,7.5,0,0,0-8.543.074,42.2,42.2,0,0,1-8.164,4.5A27.885,27.885,0,0,0,90.312,79.477,40.888,40.888,0,0,1,62.839,62.492a7.5,7.5,0,0,0-12.992,1.266A63.466,63.466,0,0,0,45.23,89.887c.492,10.8,4.355,24.723,18.445,35.473a45.535,45.535,0,0,1-15.773,2.18,7.5,7.5,0,0,0-3.941,14.051A75.639,75.639,0,0,0,80.648,151.4a66.137,66.137,0,0,0,33.684-9.074,62.694,62.694,0,0,0,27.367-33.4,7.787,7.787,0,0,0,.4-1.121,77.926,77.926,0,0,0,3.988-25.1c0-.391-.012-.785-.027-1.176a42.665,42.665,0,0,0,8.914-17.492,7.509,7.509,0,0,0-3.07-7.977Zm-21.047,24.3a12.807,12.807,0,0,1,.227,2.363,63.194,63.194,0,0,1-3.176,20.313,7.158,7.158,0,0,0-.285.875,47.508,47.508,0,0,1-20.895,25.484,51.575,51.575,0,0,1-30.09,6.844,59.738,59.738,0,0,0,7.023-4.094,7.5,7.5,0,0,0-1.168-13.062c-14-6.223-21.492-16.121-22.254-29.414a43.355,43.355,0,0,1,.273-7.73A55.9,55.9,0,0,0,97.836,94.906a7.5,7.5,0,0,0,7.309-7.5V82.758a12.878,12.878,0,0,1,22.594-8.621,7.489,7.489,0,0,0,3.438,2.238,7.528,7.528,0,0,0-.32,3.984Zm0,0" fill="var(--mainColor)"/>
    <path id="Path_11" data-name="Path 11" d="M387.34,106.242h10.633v44.723a7.5,7.5,0,0,0,15,0V106.242h11.582a7.5,7.5,0,0,0,0-15H412.973V70.258a13.084,13.084,0,0,1,13.07-13.066h9.711a7.5,7.5,0,0,0,0-15h-9.711a28.1,28.1,0,0,0-28.07,28.066V91.242H387.34a7.5,7.5,0,1,0,0,15Zm0,0" fill="var(--mainColor)"/>
    <path id="Path_12" data-name="Path 12" d="M83.816,450.461a10.321,10.321,0,0,0,5.16-1.379l51.051-29.488a10.317,10.317,0,0,0,0-17.871L88.977,372.234a10.322,10.322,0,0,0-15.48,8.938v58.973a10.317,10.317,0,0,0,10.32,10.316Zm4.68-61.18,37.016,21.379L88.5,432.039Zm0,0" fill="var(--mainColor)"/>
    <path id="Path_13" data-name="Path 13" d="M444.609,358.555h-65.18A20.556,20.556,0,0,0,358.9,379.09v65.168a20.556,20.556,0,0,0,20.531,20.535h65.18a20.556,20.556,0,0,0,20.531-20.535V379.09A20.556,20.556,0,0,0,444.609,358.555Zm5.531,85.7a5.537,5.537,0,0,1-5.531,5.535h-65.18a5.537,5.537,0,0,1-5.531-5.535V379.09a5.54,5.54,0,0,1,5.531-5.535h65.18a5.54,5.54,0,0,1,5.531,5.535Zm0,0" fill="var(--mainColor)"/>
    <path id="Path_14" data-name="Path 14" d="M412.02,389a22.67,22.67,0,1,0,22.672,22.672A22.7,22.7,0,0,0,412.02,389Zm0,30.34a7.67,7.67,0,1,1,7.672-7.668A7.68,7.68,0,0,1,412.02,419.344Zm0,0" fill="var(--mainColor)"/>
    <path id="Path_15" data-name="Path 15" d="M310.7,178.094a7.5,7.5,0,0,0-7.5,7.5v3.363a223.772,223.772,0,0,1-33.109,16.012,223.691,223.691,0,0,1-28.156,8.746,8.649,8.649,0,0,0-5.289-1.812h-34.34a15.06,15.06,0,0,0-15.043,15.043v39.387a15.057,15.057,0,0,0,15.043,15.043h6.863l2.6,50.008a7.5,7.5,0,0,0,7.484,7.109c.129,0,.262,0,.395-.012a7.5,7.5,0,0,0,7.1-7.879l-2.562-49.227h12.457a8.634,8.634,0,0,0,5.285-1.809c6.086,1.469,12.141,3.2,18.059,5.16a7.5,7.5,0,1,0,4.723-14.238c-6.355-2.109-12.855-3.965-19.395-5.539V228.336a239.2,239.2,0,0,0,30.164-9.371A239.13,239.13,0,0,0,303.2,206.192v80.914q-4.945-2.672-9.984-5.094a7.5,7.5,0,0,0-6.5,13.52c5.586,2.688,11.109,5.648,16.484,8.8v3.348a7.5,7.5,0,0,0,15,0V185.594a7.5,7.5,0,0,0-7.5-7.5Zm-80.379,88.277-28.059-.039.043-39.43h28.016Zm0,0" fill="var(--mainColor)"/>
  </g>
</svg>
