<svg xmlns="http://www.w3.org/2000/svg" width="59.964" height="74.589" viewBox="0 0 59.964 74.589">
  <g id="Out_line" data-name="Out line" transform="translate(-64 -16)">
    <path id="Path_38343" data-name="Path 38343" d="M100.228,44l4.738,4.738a3.9,3.9,0,0,0,5.515,0L123.6,35.622a1.249,1.249,0,0,0,0-1.767L106.108,16.366a1.25,1.25,0,0,0-1.767,0l-9.111,9.111-4.738-4.738a3.9,3.9,0,0,0-5.515,0L72.744,32.972,69.88,30.108a1.25,1.25,0,0,0-1.767,0l-3.748,3.748a1.249,1.249,0,0,0,0,1.767l24.1,24.1-1.615,1.615a1.25,1.25,0,0,0-.366.883V69.2l-1.249,1.249-.366-.366a1.25,1.25,0,0,0-1.767,0L64.366,88.822l1.767,1.767L83.988,72.734,95.963,84.709l-4.114,4.114,1.767,1.767,5-5a1.249,1.249,0,0,0,0-1.767L97,82.21l6.978-6.978,11.609,11.609a1.25,1.25,0,0,0,1.767,0l3.748-3.748a1.249,1.249,0,0,0,0-1.767L109.49,69.718l1.615-1.615a1.249,1.249,0,0,0,0-1.767l-9.994-9.994a1.25,1.25,0,0,0-1.767,0l-.109.109a6.5,6.5,0,0,0-1.871-3.857,1.25,1.25,0,0,0-1.767,0l-1.615,1.615L92,52.228Zm5.987-2.026-1.249,1.249a3.878,3.878,0,0,0-.806,1.175l-2.166-2.166,2.24-2.24a1.4,1.4,0,1,1,1.981,1.981Zm-.99-22.959,15.723,15.723L108.714,46.973a1.4,1.4,0,0,1-1.981-1.981l1.249-1.249a3.9,3.9,0,0,0,0-5.515L97,27.244Zm-18.48,3.489a1.4,1.4,0,0,1,1.981,0l14.916,14.916a3.882,3.882,0,0,0-1.175.807L86.486,54.209,70.763,38.487ZM69,32.758l1.981,1.981L69,36.72l-1.981-1.981ZM118.449,82.21l-1.981,1.981L105.742,73.465l1.981-1.981ZM100.228,58.992l8.227,8.227-4.48,4.48-8.227-8.227,1.615-1.615h0l0,0Zm-3.886-3.61A4.057,4.057,0,0,1,95.6,60.09l-2.5,2.5a1.249,1.249,0,0,0,0,1.767,5.824,5.824,0,0,1,0,8.227l1.767,1.767a8.288,8.288,0,0,0,2.43-5.8l4.914,4.914-6.978,6.978L87,72.216,88.619,70.6a1.25,1.25,0,0,0,.366-.883V62.74Zm-4.127.594-1.981,1.981-1.981-1.981L90.234,54Z" transform="translate(0)" fill="var(--mainColor)"/>
  </g>
</svg>
