<?xml version="1.0" encoding="UTF-8"?>
<svg width="74.21" height="74.21" 
viewBox="0 0 74.21 74.21" 
preserveAspectRatio="xMinYMin"
xmlns:xlink="http://www.w3.org/1999/xlink"
xmlns="http://www.w3.org/2000/svg">
<!-- Generated by PQINA - https://pqina.nl/ -->
<title></title>
<g transform="rotate(0 37.105 37.105) translate(37.105 37.105) scale(1) translate(-37.105 -37.105) translate(0 0)">
<g transform="scale(1 1) translate(0 0)">
<svg id="g5733" xmlns="http://www.w3.org/2000/svg" xmlns:xlink="http://www.w3.org/1999/xlink" width="74.21" height="74.21" viewBox="0 0 74.21 74.21" style="overflow: visible;">
  <defs>
    <style>
      .cls-1 {
        clip-path: url(#clip-path);
      }

      .cls-2 {
        fill: rgba(0,0,0,0);
        stroke: var(--mainColor);
        stroke-linecap: round;
        stroke-linejoin: round;
        stroke-miterlimit: 10;
        stroke-width: 2px;
      }
    </style>
    <clipPath id="clip-path">
      <path id="path5739" d="M0-682.665H74.21v74.21H0Z" transform="translate(0 682.665)"></path>
    </clipPath>
  </defs>
  <g id="g5735" transform="translate(0 0)">
    <g id="g5737" class="cls-1">
      <g id="g5743" transform="translate(17.372 13.79)">
        <path id="path5745" class="cls-2" d="M-101.946,0a21.106,21.106,0,0,1-10.573,6.988,2.572,2.572,0,0,0-1.759,3.183,2.572,2.572,0,0,0,2.949,1.815q.117-.022.234-.056a26.375,26.375,0,0,0,6.014-2.572" transform="translate(114.379)"></path>
      </g>
      <g id="g5747" transform="translate(24.99 11.782)">
        <path id="path5749" class="cls-2" d="M-99.481-146.117l2.8-8a16.541,16.541,0,0,0,2.538.2,16.525,16.525,0,0,0,10.564-3.819l.345-.287a2.612,2.612,0,0,0,.441-3.587,2.571,2.571,0,0,0-3.68-.408l-.393.326a11.424,11.424,0,0,1-2.152,1.411,7.438,7.438,0,0,1-8.784-1.712,6.062,6.062,0,0,0-4.465-1.947,6.1,6.1,0,0,0-5.9,4.56l-3.45,13.261Z" transform="translate(111.614 163.938)"></path>
      </g>
      <g id="g5751" transform="translate(19.524 32.236)">
        <path id="path5753" class="cls-2" d="M-166.84-199.53l8.269-8.269,6.16,6.16,12.84-12.84,3.105,3.105,2.514-12.492-12.492,2.514,2.715,2.715-8.683,8.683-6.16-6.16L-187.189-187.5l4.157,4.157,7.992-7.992" transform="translate(187.189 223.866)"></path>
      </g>
      <g id="g5755" transform="translate(32.931 1.447)">
        <path id="path5757" class="cls-2" d="M-84.744-42.372a5.168,5.168,0,0,0-5.168-5.168,5.168,5.168,0,0,0-5.168,5.168A5.168,5.168,0,0,0-89.912-37.2,5.168,5.168,0,0,0-84.744-42.372Z" transform="translate(95.08 47.54)"></path>
      </g>
      <g id="g5759" transform="translate(14.665 29.603)">
        <path id="path5761" class="cls-2" d="M-8.88-198.7l-.893,2.342a2.867,2.867,0,0,0,2.294,3.863l.068.009a2.932,2.932,0,0,0,3.022-1.581c2.866-5.683,11.327-22.412,11.327-22.412h3.436L8.622-205.457a2.685,2.685,0,0,0,2.652,3.107h0a2.685,2.685,0,0,0,2.587-1.965l3.293-11.834A5.347,5.347,0,0,0,12-222.929H10.435" transform="translate(9.964 222.929)"></path>
      </g>
      <g id="g5763" transform="translate(19.881 29.603)">
        <path id="path5765" class="cls-2" d="M-41.893,0-47,13.4" transform="translate(47.003)"></path>
      </g>
      <g id="g5767" transform="translate(1.456 18.776)">
        <path id="path5769" class="cls-2" d="M-92.353-177.955l-10.712-10.712a1.884,1.884,0,0,1,0-2.665l7.776-7.776a1.884,1.884,0,0,1,2.665,0L-81.913-188.4a1.884,1.884,0,0,1,0,2.665l-7.776,7.776A1.884,1.884,0,0,1-92.353-177.955Z" transform="translate(103.617 199.659)"></path>
      </g>
      <g id="g5771" transform="translate(5.896 23.216)">
        <path id="path5773" class="cls-2" d="M0,0,4.88,4.88"></path>
      </g>
      <g id="g5775" transform="translate(14.039 31.359)">
        <path id="path5777" class="cls-2" d="M-40.014-40.014l-4.88-4.88" transform="translate(44.895 44.895)"></path>
      </g>
      <g id="g5779" transform="translate(9.971 26.465)">
        <path id="path5781" class="cls-2" d="M-8.421-41.943l-.443-.443a1.994,1.994,0,0,1,0-2.819l1.853-1.853L-3.749-43.8-5.6-41.943A1.993,1.993,0,0,1-8.421-41.943Z" transform="translate(9.448 47.059)"></path>
      </g>
      <g id="g5783" transform="translate(35.801 60.699)">
        <path id="path5785" class="cls-2" d="M0,0H0" transform="translate(0)"></path>
      </g>
      <g id="g5787" transform="translate(17.811 48.428)">
        <path id="path5789" class="cls-2" d="M0,0H0" transform="translate(0 0)"></path>
      </g>
    </g>
  </g>
</svg>
</g>
</g>
</svg>