<svg xmlns="http://www.w3.org/2000/svg" width="511.971" height="512" viewBox="0 0 511.971 512">
  <g id="_002-consistency" data-name="002-consistency" transform="translate(-0.015 0)">
    <g id="Group_1" data-name="Group 1">
      <path id="Path_1" data-name="Path 1" d="M178.584,27.125a7.487,7.487,0,0,0,2.34-.376c3.718-1.22,7.519-2.364,11.3-3.4a7.5,7.5,0,0,0-3.968-14.472c-4.015,1.1-8.054,2.316-12.007,3.612a7.5,7.5,0,0,0,2.338,14.635Z" fill="var(--mainColor)"/>
      <path id="Path_2" data-name="Path 2" d="M100.536,69.489a7.47,7.47,0,0,0,4.694-1.654c3.059-2.458,6.216-4.87,9.383-7.169A7.5,7.5,0,1,0,105.8,48.523c-3.363,2.442-6.716,5-9.965,7.613a7.5,7.5,0,0,0,4.705,13.353Z" fill="var(--mainColor)"/>
      <path id="Path_3" data-name="Path 3" d="M10.05,219.483a7.495,7.495,0,0,0,8.7-6.075c.685-3.857,1.476-7.746,2.349-11.56A7.5,7.5,0,1,0,6.471,198.5c-.929,4.053-1.768,8.187-2.5,12.285a7.505,7.505,0,0,0,6.076,8.7Z" fill="var(--mainColor)"/>
      <path id="Path_4" data-name="Path 4" d="M221.995,17.115a7.515,7.515,0,0,0,1.03-.071c3.876-.532,7.821-.975,11.725-1.318A7.5,7.5,0,1,0,233.439.777c-4.148.364-8.338.835-12.455,1.4a7.5,7.5,0,0,0,1.011,14.938Z" fill="var(--mainColor)"/>
      <path id="Path_5" data-name="Path 5" d="M7.517,263.992h.019a7.5,7.5,0,0,0,7.485-7.522v-.578c0-3.729.086-7.507.256-11.227a7.5,7.5,0,1,0-14.99-.688c-.181,3.949-.273,7.958-.272,11.916v.614a7.5,7.5,0,0,0,7.5,7.485Z" fill="var(--mainColor)"/>
      <path id="Path_6" data-name="Path 6" d="M20.466,176.14a7.5,7.5,0,0,0,9.65-4.412c1.361-3.653,2.834-7.329,4.379-10.924a7.5,7.5,0,1,0-13.788-5.924c-1.641,3.821-3.207,7.727-4.653,11.61a7.5,7.5,0,0,0,4.412,9.65Z" fill="var(--mainColor)"/>
      <path id="Path_7" data-name="Path 7" d="M63.5,98.542a7.5,7.5,0,0,0,10.585-.74c2.569-2.955,5.246-5.888,7.956-8.716A7.5,7.5,0,0,0,71.2,78.7c-2.878,3-5.72,6.116-8.448,9.254a7.5,7.5,0,0,0,.74,10.585Z" fill="var(--mainColor)"/>
      <path id="Path_8" data-name="Path 8" d="M38.479,135.416A7.5,7.5,0,0,0,48.763,132.8c2-3.363,4.112-6.721,6.273-9.981a7.5,7.5,0,1,0-12.507-8.293c-2.295,3.462-4.537,7.029-6.662,10.6A7.506,7.506,0,0,0,38.479,135.416Z" fill="var(--mainColor)"/>
      <path id="Path_9" data-name="Path 9" d="M388.25,54.189c3.272,2.148,6.534,4.4,9.7,6.709a7.5,7.5,0,0,0,8.837-12.128c-3.358-2.447-6.823-4.844-10.3-7.126a7.5,7.5,0,1,0-8.234,12.545Z" fill="var(--mainColor)"/>
      <path id="Path_10" data-name="Path 10" d="M477.931,161.235a7.5,7.5,0,1,0,13.8-5.9c-1.636-3.828-3.392-7.671-5.219-11.423a7.5,7.5,0,1,0-13.492,6.57c1.721,3.53,3.373,7.147,4.912,10.75Z" fill="var(--mainColor)"/>
      <path id="Path_11" data-name="Path 11" d="M488.366,190.915c1.052,3.768,2.025,7.616,2.891,11.438a7.5,7.5,0,0,0,14.636-3.317c-.921-4.061-1.954-8.151-3.073-12.155a7.5,7.5,0,0,0-14.454,4.034Z" fill="var(--mainColor)"/>
      <path id="Path_12" data-name="Path 12" d="M266.2,15c3.921.161,7.884.421,11.777.77.229.021.455.031.68.031A7.5,7.5,0,0,0,279.323.825c-4.135-.371-8.341-.646-12.5-.818A7.5,7.5,0,0,0,266.2,15Z" fill="var(--mainColor)"/>
      <path id="Path_13" data-name="Path 13" d="M457.427,123.161a7.5,7.5,0,1,0,12.52-8.272c-2.294-3.472-4.706-6.935-7.169-10.294a7.5,7.5,0,0,0-12.1,8.875c2.32,3.162,4.591,6.423,6.75,9.691Z" fill="var(--mainColor)"/>
      <path id="Path_14" data-name="Path 14" d="M502.966,225.246a7.5,7.5,0,0,0-6.78,8.163c.361,3.9.63,7.857.8,11.774a7.5,7.5,0,0,0,7.49,7.176c.111,0,.222,0,.333-.007a7.5,7.5,0,0,0,7.169-7.823c-.181-4.158-.467-8.365-.85-12.5a7.511,7.511,0,0,0-8.163-6.781Z" fill="var(--mainColor)"/>
      <path id="Path_15" data-name="Path 15" d="M430.467,89.362A7.5,7.5,0,1,0,441.316,79c-2.873-3.007-5.859-5.984-8.875-8.848a7.5,7.5,0,0,0-10.333,10.881C424.948,83.726,427.761,86.53,430.467,89.362Z" fill="var(--mainColor)"/>
      <path id="Path_16" data-name="Path 16" d="M309.048,20.619c3.824.856,7.675,1.819,11.445,2.861a7.5,7.5,0,0,0,4-14.464c-4.007-1.107-8.1-2.13-12.163-3.041a7.5,7.5,0,1,0-3.28,14.644Z" fill="var(--mainColor)"/>
      <path id="Path_17" data-name="Path 17" d="M350.183,33.829c3.593,1.524,7.2,3.16,10.723,4.862a7.5,7.5,0,0,0,6.531-13.511c-3.743-1.809-7.577-3.548-11.395-5.167a7.5,7.5,0,0,0-5.859,13.816Z" fill="var(--mainColor)"/>
      <path id="Path_18" data-name="Path 18" d="M18.954,299.51c-.7-3.852-1.321-7.773-1.835-11.655a7.5,7.5,0,0,0-14.876,1.969c.546,4.124,1.2,8.29,1.949,12.382a7.5,7.5,0,0,0,14.762-2.7Z" fill="var(--mainColor)"/>
      <path id="Path_19" data-name="Path 19" d="M137.646,44.79a7.47,7.47,0,0,0,3.574-.911c3.452-1.874,6.991-3.686,10.52-5.383a7.5,7.5,0,0,0-6.5-13.523c-3.749,1.8-7.509,3.727-11.176,5.719a7.5,7.5,0,0,0,3.587,14.1Z" fill="var(--mainColor)"/>
      <path id="Path_20" data-name="Path 20" d="M498.036,313.91a7.5,7.5,0,0,0-9.206,5.277c-1.026,3.78-2.159,7.584-3.369,11.306a7.5,7.5,0,1,0,14.27,4.64c1.286-3.955,2.491-8,3.581-12.016a7.5,7.5,0,0,0-5.276-9.207Z" fill="var(--mainColor)"/>
      <path id="Path_21" data-name="Path 21" d="M462.237,395.134a7.5,7.5,0,0,0-10.475,1.693c-2.291,3.174-4.69,6.334-7.133,9.394a7.5,7.5,0,1,0,11.727,9.363c2.594-3.248,5.143-6.605,7.575-9.975a7.5,7.5,0,0,0-1.694-10.475Z" fill="var(--mainColor)"/>
      <path id="Path_22" data-name="Path 22" d="M267.922,496.71c-3.907.188-7.878.283-11.8.283h-.557A7.5,7.5,0,0,0,255.545,512h.576c4.163,0,8.376-.1,12.522-.3a7.5,7.5,0,0,0-.721-14.989Z" fill="var(--mainColor)"/>
      <path id="Path_23" data-name="Path 23" d="M389.779,456.585c-3.263,2.177-6.621,4.3-9.983,6.315a7.5,7.5,0,1,0,7.709,12.874c3.571-2.138,7.138-4.395,10.6-6.707a7.5,7.5,0,1,0-8.33-12.482Z" fill="var(--mainColor)"/>
      <path id="Path_24" data-name="Path 24" d="M423.45,429.474c-2.817,2.716-5.742,5.4-8.7,7.984a7.5,7.5,0,1,0,9.878,11.3c3.135-2.742,6.242-5.6,9.233-8.48a7.5,7.5,0,1,0-10.416-10.8Z" fill="var(--mainColor)"/>
      <path id="Path_25" data-name="Path 25" d="M30.53,341.162c-1.386-3.664-2.7-7.419-3.908-11.16a7.5,7.5,0,1,0-14.281,4.609c1.283,3.977,2.681,7.968,4.155,11.862a7.5,7.5,0,1,0,14.034-5.311Z" fill="var(--mainColor)"/>
      <path id="Path_26" data-name="Path 26" d="M310.725,490.786c-3.816.883-7.7,1.683-11.556,2.377a7.5,7.5,0,0,0,1.322,14.889,7.636,7.636,0,0,0,1.339-.12c4.093-.738,8.224-1.588,12.279-2.526a7.5,7.5,0,1,0-3.384-14.62Z" fill="var(--mainColor)"/>
      <path id="Path_27" data-name="Path 27" d="M351.806,477.262c-3.6,1.558-7.288,3.048-10.962,4.427a7.5,7.5,0,1,0,5.274,14.049c3.9-1.466,7.824-3.049,11.649-4.7a7.5,7.5,0,0,0-5.961-13.771Z" fill="var(--mainColor)"/>
      <path id="Path_28" data-name="Path 28" d="M483.8,356.157a7.5,7.5,0,0,0-10.005,3.535c-1.687,3.53-3.482,7.062-5.337,10.5a7.5,7.5,0,1,0,13.207,7.125c1.971-3.653,3.879-7.407,5.67-11.156A7.5,7.5,0,0,0,483.8,356.157Z" fill="var(--mainColor)"/>
      <path id="Path_29" data-name="Path 29" d="M106.235,444.754c-3.067-2.437-6.113-4.982-9.055-7.563a7.5,7.5,0,1,0-9.9,11.28c3.124,2.741,6.359,5.443,9.615,8.031a7.5,7.5,0,1,0,9.336-11.748Z" fill="var(--mainColor)"/>
      <path id="Path_30" data-name="Path 30" d="M67.356,405.9a7.5,7.5,0,1,0-11.742,9.344c2.593,3.259,5.3,6.495,8.044,9.618a7.5,7.5,0,0,0,11.272-9.906c-2.583-2.941-5.132-5.988-7.574-9.056Z" fill="var(--mainColor)"/>
      <path id="Path_31" data-name="Path 31" d="M43.566,369.793a7.5,7.5,0,0,0-13.22,7.1c1.968,3.664,4.056,7.334,6.207,10.908a7.5,7.5,0,1,0,12.857-7.739C47.384,376.7,45.418,373.242,43.566,369.793Z" fill="var(--mainColor)"/>
      <path id="Path_32" data-name="Path 32" d="M142.313,468.5c-3.443-1.847-6.89-3.806-10.244-5.823a7.5,7.5,0,1,0-7.731,12.861c3.564,2.142,7.225,4.223,10.882,6.186a7.5,7.5,0,1,0,7.093-13.224Z" fill="var(--mainColor)"/>
      <path id="Path_33" data-name="Path 33" d="M182.049,485.4c-3.731-1.2-7.477-2.515-11.135-3.9a7.5,7.5,0,1,0-5.305,14.037c3.888,1.469,7.869,2.863,11.834,4.141a7.5,7.5,0,1,0,4.606-14.281Z" fill="var(--mainColor)"/>
      <path id="Path_34" data-name="Path 34" d="M504.453,269.8a7.509,7.509,0,0,0-8.112,6.84c-.332,3.9-.765,7.848-1.288,11.728a7.5,7.5,0,0,0,6.435,8.438,7.7,7.7,0,0,0,1.011.068,7.506,7.506,0,0,0,7.427-6.5c.555-4.122,1.015-8.314,1.368-12.458a7.5,7.5,0,0,0-6.841-8.113Z" fill="var(--mainColor)"/>
      <path id="Path_35" data-name="Path 35" d="M224.2,494.9c-3.891-.515-7.813-1.132-11.656-1.833a7.5,7.5,0,0,0-2.694,14.762c4.083.745,8.249,1.4,12.382,1.948a7.61,7.61,0,0,0,.994.066A7.5,7.5,0,0,0,224.2,494.9Z" fill="var(--mainColor)"/>
      <path id="Path_36" data-name="Path 36" d="M159.115,262.16a97.719,97.719,0,0,0,1.689,12.883,7.5,7.5,0,0,0,14.715-2.941,82.78,82.78,0,0,1-1.428-10.9,7.5,7.5,0,0,0-14.976.956Z" fill="var(--mainColor)"/>
      <path id="Path_37" data-name="Path 37" d="M214.907,327.03a7.5,7.5,0,0,0-7.536,12.976,97.106,97.106,0,0,0,11.661,5.763,7.5,7.5,0,1,0,5.729-13.869,82.029,82.029,0,0,1-9.854-4.87Z" fill="var(--mainColor)"/>
      <path id="Path_38" data-name="Path 38" d="M170.2,237.557a7.507,7.507,0,0,0,7.183-5.346,81.769,81.769,0,0,1,3.863-10.288,7.5,7.5,0,0,0-13.662-6.208,97.052,97.052,0,0,0-4.574,12.18,7.5,7.5,0,0,0,5.027,9.345,7.6,7.6,0,0,0,2.163.317Z" fill="var(--mainColor)"/>
      <path id="Path_39" data-name="Path 39" d="M264.273,337.693a84.317,84.317,0,0,1-11,.351,7.5,7.5,0,0,0-.506,15q1.668.057,3.352.057c3.21,0,6.447-.158,9.622-.471a7.5,7.5,0,0,0-1.47-14.935Z" fill="var(--mainColor)"/>
      <path id="Path_40" data-name="Path 40" d="M345.04,275.363a7.506,7.506,0,0,0,7.428-6.513,98.316,98.316,0,0,0,.857-12.957,7.5,7.5,0,1,0-15.006,0,83.382,83.382,0,0,1-.725,10.974,7.5,7.5,0,0,0,6.446,8.428,7.372,7.372,0,0,0,1,.068Z" fill="var(--mainColor)"/>
      <path id="Path_41" data-name="Path 41" d="M342.757,240.084a7.508,7.508,0,0,0,7.252-9.449,96.912,96.912,0,0,0-4.209-12.3,7.5,7.5,0,0,0-13.838,5.8,81.851,81.851,0,0,1,3.555,10.391,7.5,7.5,0,0,0,7.24,5.559Z" fill="var(--mainColor)"/>
      <path id="Path_42" data-name="Path 42" d="M324.512,314.419a7.5,7.5,0,0,0,10.475-1.692,97.725,97.725,0,0,0,6.888-11.025,7.5,7.5,0,0,0-13.231-7.082,82.519,82.519,0,0,1-5.825,9.324,7.5,7.5,0,0,0,1.693,10.475Z" fill="var(--mainColor)"/>
      <path id="Path_43" data-name="Path 43" d="M181.078,317.683a7.5,7.5,0,0,0,11.58-9.544,82.812,82.812,0,0,1-6.41-8.927,7.5,7.5,0,0,0-12.746,7.92,97.826,97.826,0,0,0,7.576,10.551Z" fill="var(--mainColor)"/>
      <path id="Path_44" data-name="Path 44" d="M298.934,343.185a97.51,97.51,0,0,0,11.249-6.5,7.5,7.5,0,1,0-8.355-12.465,82.369,82.369,0,0,1-9.512,5.493,7.5,7.5,0,1,0,6.618,13.468Z" fill="var(--mainColor)"/>
      <path id="Path_45" data-name="Path 45" d="M227.624,162.934a7.5,7.5,0,1,0,4.395,14.349,81.958,81.958,0,0,1,10.693-2.5,7.5,7.5,0,0,0-2.427-14.809,97.185,97.185,0,0,0-12.661,2.961Z" fill="var(--mainColor)"/>
      <path id="Path_46" data-name="Path 46" d="M206.1,190.661a7.5,7.5,0,1,0-9.141-11.9,98.064,98.064,0,0,0-9.753,8.58,7.5,7.5,0,0,0,10.638,10.584A82.838,82.838,0,0,1,206.1,190.661Z" fill="var(--mainColor)"/>
      <path id="Path_47" data-name="Path 47" d="M282.523,178.025a7.5,7.5,0,0,0,4.816-14.212,96.907,96.907,0,0,0-12.578-3.337,7.5,7.5,0,0,0-2.863,14.731,81.724,81.724,0,0,1,10.625,2.818Z" fill="var(--mainColor)"/>
      <path id="Path_48" data-name="Path 48" d="M316.077,199.664A7.5,7.5,0,1,0,327.022,189.4a98.3,98.3,0,0,0-9.5-8.863,7.5,7.5,0,1,0-9.486,11.628,83.037,83.037,0,0,1,8.04,7.5Z" fill="var(--mainColor)"/>
      <path id="Path_49" data-name="Path 49" d="M265.046,110.059a145.694,145.694,0,0,1,97.605,45.85,23.536,23.536,0,0,0-15.72,31.326,23.766,23.766,0,0,0,13.049,13.281l46.608,19.173a22.583,22.583,0,0,0,8.938,1.834,23.885,23.885,0,0,0,11.022-2.735,23.324,23.324,0,0,0,12.226-15.847l11.689-48.663a23.677,23.677,0,0,0-42.779-18.572,195.176,195.176,0,0,0-60.919-50.638,7.5,7.5,0,0,0-7.041,13.253A179.873,179.873,0,0,1,403.9,155.865a7.5,7.5,0,0,0,13.5-2.466l1.6-6.666a8.671,8.671,0,0,1,16.864,4.044l-11.715,48.77c-.02.083-.039.166-.055.249a8.385,8.385,0,0,1-4.476,5.678,8.283,8.283,0,0,1-7.131.419l-.137-.058-46.674-19.2a8.665,8.665,0,0,1-4.548-11.7,9.014,9.014,0,0,1,11.569-4.156l5.082,2.091a7.5,7.5,0,0,0,8.929-11.343A160.848,160.848,0,0,0,265.955,95.08a2.545,2.545,0,0,1-2.334-2.585V80.35a2.539,2.539,0,0,1,.813-1.884,2.619,2.619,0,0,1,1.994-.72,177.646,177.646,0,0,1,42.3,7.669,7.5,7.5,0,0,0,4.446-14.332A192.615,192.615,0,0,0,267.3,62.765,17.633,17.633,0,0,0,248.614,80.35V92.495a17.575,17.575,0,0,0,16.432,17.564Z" fill="var(--mainColor)"/>
      <path id="Path_50" data-name="Path 50" d="M62.993,244.716A17.63,17.63,0,0,0,80.574,263.4H92.718a17.581,17.581,0,0,0,17.569-16.432,145.691,145.691,0,0,1,45.848-97.6,23.544,23.544,0,0,0,31.315,15.723,23.781,23.781,0,0,0,13.3-13.053L219.92,105.42a23.762,23.762,0,0,0-16.752-32.184L154.507,61.553a23.683,23.683,0,0,0-18.582,42.779A195.009,195.009,0,0,0,62.993,244.716Zm93.1-136.613a7.5,7.5,0,0,0-2.464-13.5L146.955,93a8.665,8.665,0,0,1-6.4-10.449h0a8.673,8.673,0,0,1,8.409-6.646,8.763,8.763,0,0,1,2.04.243l48.773,11.71c.083.02.166.038.25.055a8.383,8.383,0,0,1,5.68,4.476,8.282,8.282,0,0,1,.421,7.127c-.02.045-.039.091-.058.136l-19.2,46.674a8.667,8.667,0,0,1-11.7,4.546,9,9,0,0,1-4.153-11.562l2.092-5.086a7.5,7.5,0,0,0-11.343-8.929A160.831,160.831,0,0,0,95.309,246.046a2.554,2.554,0,0,1-2.591,2.342H80.574a2.528,2.528,0,0,1-1.879-.811,2.653,2.653,0,0,1-.721-2A179.824,179.824,0,0,1,156.093,108.1Z" fill="var(--mainColor)"/>
      <path id="Path_51" data-name="Path 51" d="M263.624,431.437V419.292a17.57,17.57,0,0,0-16.432-17.564,145.82,145.82,0,0,1-24.839-3.691,7.5,7.5,0,1,0-3.473,14.6,160.913,160.913,0,0,0,27.4,4.072,2.545,2.545,0,0,1,2.334,2.585v12.145a2.539,2.539,0,0,1-.813,1.884,2.692,2.692,0,0,1-1.994.72,179.843,179.843,0,0,1-137.477-78.119,7.5,7.5,0,0,0-13.5,2.466l-1.6,6.666a8.671,8.671,0,0,1-16.864-4.044l11.715-48.77c.02-.083.039-.166.055-.249a8.385,8.385,0,0,1,4.476-5.678,8.283,8.283,0,0,1,7.131-.419l.137.058,46.674,19.2a8.665,8.665,0,0,1,4.548,11.7A9.014,9.014,0,0,1,139.536,341l-5.082-2.091a7.5,7.5,0,0,0-8.929,11.343,162.585,162.585,0,0,0,58.891,49.861,7.5,7.5,0,0,0,6.692-13.432,147.679,147.679,0,0,1-41.484-30.816,23.537,23.537,0,0,0,15.686-31.317,23.766,23.766,0,0,0-13.049-13.281L105.653,292.1a23.762,23.762,0,0,0-32.186,16.747L61.778,357.509a23.677,23.677,0,0,0,42.78,18.57,195.033,195.033,0,0,0,140.383,72.943q.51.03,1.02.03a17.628,17.628,0,0,0,17.663-17.615Z" fill="var(--mainColor)"/>
      <path id="Path_52" data-name="Path 52" d="M386.279,432.743a23.717,23.717,0,0,0-9.963-25.29,195,195,0,0,0,72.931-140.382,17.63,17.63,0,0,0-17.581-18.68H419.522a17.581,17.581,0,0,0-17.569,16.432,145.691,145.691,0,0,1-45.848,97.6A23.544,23.544,0,0,0,324.79,346.7a23.781,23.781,0,0,0-13.3,13.053L292.32,406.367a23.762,23.762,0,0,0,16.752,32.184l48.661,11.683a23.8,23.8,0,0,0,5.572.664,23.7,23.7,0,0,0,22.974-18.155Zm-33.3-21.506a7.5,7.5,0,0,0,5.63,5.949l6.674,1.6a8.665,8.665,0,0,1,6.4,10.449h0a8.664,8.664,0,0,1-10.449,6.4l-48.773-11.71c-.083-.02-.166-.038-.25-.055a8.386,8.386,0,0,1-5.68-4.476,8.284,8.284,0,0,1-.421-7.128c.02-.045.039-.091.058-.136l19.2-46.674a8.69,8.69,0,0,1,8.014-5.375,8.693,8.693,0,0,1,3.689.829,9,9,0,0,1,4.153,11.562l-2.092,5.086a7.5,7.5,0,0,0,11.343,8.929,160.831,160.831,0,0,0,66.454-120.754,2.554,2.554,0,0,1,2.591-2.342h12.144a2.528,2.528,0,0,1,1.879.811,2.653,2.653,0,0,1,.721,2,179.82,179.82,0,0,1-78.119,137.48,7.5,7.5,0,0,0-3.166,7.553Z" fill="var(--mainColor)"/>
      <path id="Path_53" data-name="Path 53" d="M312.134,255.893A56.027,56.027,0,0,0,233.37,204.7a7.5,7.5,0,0,0,6.1,13.709,40.984,40.984,0,1,1-20.837,20.837,7.5,7.5,0,0,0-13.709-6.1,56.017,56.017,0,1,0,107.207,22.75Z" fill="var(--mainColor)"/>
    </g>
  </g>
</svg>
