<?xml version="1.0" encoding="UTF-8"?>
<svg width="75.422" height="75.422" 
viewBox="0 0 75.422 75.422" 
preserveAspectRatio="xMinYMin"
xmlns:xlink="http://www.w3.org/1999/xlink"
xmlns="http://www.w3.org/2000/svg">
<!-- Generated by PQINA - https://pqina.nl/ -->
<title></title>
<g transform="rotate(0 37.711 37.711) translate(37.711 37.711) scale(1) translate(-37.711 -37.711) translate(0 0)">
<g transform="scale(1 1) translate(0 0)">
<svg width="75.422" height="75.422" viewBox="0 0 75.422 75.422" preserveAspectRatio="xMinYMin" xmlns:xlink="http://www.w3.org/1999/xlink" xmlns="http://www.w3.org/2000/svg" style="overflow: visible;">
<!-- Generated by PQINA - https://pqina.nl/ -->
<title></title>
<g transform="rotate(0 37.711 37.711) translate(37.711 37.711) scale(1.000026518164943) translate(-37.711 -37.711) translate(0 0.0009999999999976694)">
<g transform="scale(1 1) translate(0 0)">
<svg id="_020---Teamwork" data-name="020---Teamwork" xmlns="http://www.w3.org/2000/svg" width="75.422" height="75.42" viewBox="0 0 75.422 75.42" style="overflow: visible;">
  <defs>
    <style>
      .cls-1 {
        fill: #fff;
      }
    </style>
  </defs>
  <path id="Shape" class="cls-1" d="M72.472,6.051a4.423,4.423,0,0,0-2.588.53,4.35,4.35,0,0,0-6.247-2.534A4.349,4.349,0,0,0,55.759,3.1a4.315,4.315,0,0,0-6.49,1.669H36.89a1.268,1.268,0,0,1-.65-.185L31.158,1.546A3.785,3.785,0,0,0,29.222,1H10.607A4.534,4.534,0,0,0,6.051,4.947a4.43,4.43,0,0,0,.53,2.589,4.348,4.348,0,0,0-2.533,6.247,4.351,4.351,0,0,0-.947,7.88,4.433,4.433,0,0,0-.822,3.044,4.387,4.387,0,0,0,2.491,3.45V40.533a1.257,1.257,0,0,1-.186.646L1.518,46.287A3.912,3.912,0,0,0,1,48.2V66.814a4.536,4.536,0,0,0,3.948,4.555,4.462,4.462,0,0,0,2.588-.53,4.349,4.349,0,0,0,6.249,2.533A4.386,4.386,0,0,0,17.97,76.42a4.3,4.3,0,0,0,3.693-2.1,4.32,4.32,0,0,0,6.495-1.671H40.53a1.268,1.268,0,0,1,.65.185l5.082,3.043a3.785,3.785,0,0,0,1.936.542H66.813a4.534,4.534,0,0,0,4.557-3.947,4.43,4.43,0,0,0-.53-2.588,4.348,4.348,0,0,0,2.533-6.247,4.349,4.349,0,0,0,.947-7.878,4.433,4.433,0,0,0,.822-3.044,4.386,4.386,0,0,0-2.491-3.445V36.887a1.283,1.283,0,0,1,.185-.649l3.044-5.081a3.79,3.79,0,0,0,.542-1.937V10.606a4.536,4.536,0,0,0-3.948-4.555ZM3.524,18.174A1.885,1.885,0,0,1,5.4,16.084h8.17a1.257,1.257,0,0,0,0-2.514H7.914a1.885,1.885,0,0,1-1.879-2.087A2,2,0,0,1,8.094,9.8h7.991a1.257,1.257,0,0,0,0-2.514H10.428A1.885,1.885,0,0,1,8.549,5.2a2,2,0,0,1,2.059-1.684H29.222a1.257,1.257,0,0,1,.649.186l5.083,3.044a3.8,3.8,0,0,0,1.936.541H48.766V18.459l-2.177-1.782a4.178,4.178,0,0,0-5.419.3,3.958,3.958,0,0,0-.984,4.138H35.971a3.771,3.771,0,0,0-2.64,1.094L21.5,33.938l-.025.025-.523.518a1.559,1.559,0,0,1-2.325-2.065l3.457-4.224a1.257,1.257,0,0,0-.973-2.053H6.837a2,2,0,0,1-2.055-1.683,1.885,1.885,0,0,1,1.875-2.088H13.57a1.257,1.257,0,0,0,0-2.514H5.58a2,2,0,0,1-2.055-1.681ZM53.794,42.05,42.318,53.431a1.237,1.237,0,0,1-.87.362H35.369L23.989,42.321a1.238,1.238,0,0,1-.363-.871V35.366L35.1,23.989a1.237,1.237,0,0,1,.872-.363h6.084L53.435,35.1a1.246,1.246,0,0,1,.359.872ZM24.446,72.639a1.863,1.863,0,0,1-1.452-.473,1.9,1.9,0,0,1-.625-1.4V63.85a1.257,1.257,0,1,0-2.514,0v7.993a2.011,2.011,0,0,1-1.7,2.055,1.852,1.852,0,0,1-1.448-.473,1.9,1.9,0,0,1-.625-1.405V63.85a1.257,1.257,0,1,0-2.514,0v5.672a1.885,1.885,0,0,1-2.087,1.863A2,2,0,0,1,9.8,69.327V61.336a1.257,1.257,0,1,0-2.514,0V67A1.885,1.885,0,0,1,5.2,68.87a2,2,0,0,1-1.686-2.056V48.2a1.341,1.341,0,0,1,.172-.646l3.058-5.086a3.809,3.809,0,0,0,.541-1.935V28.654H18.457l-1.784,2.178a4.05,4.05,0,0,0,4.438,6.4V41.45a3.771,3.771,0,0,0,1.094,2.64L33.929,55.906c.014.015.028.029.043.043l.512.515a1.559,1.559,0,0,1-1.115,2.651,1.508,1.508,0,0,1-.943-.326L28.2,55.334a1.257,1.257,0,0,0-2.063.974V70.584a2.011,2.011,0,0,1-1.694,2.055ZM73.9,59.245a1.885,1.885,0,0,1-1.875,2.09H63.85a1.257,1.257,0,1,0,0,2.514h5.656a1.885,1.885,0,0,1,1.879,2.087,2,2,0,0,1-2.059,1.684H61.336a1.257,1.257,0,1,0,0,2.514h5.656a1.885,1.885,0,0,1,1.879,2.087,2,2,0,0,1-2.059,1.684H48.2a1.257,1.257,0,0,1-.649-.186l-5.083-3.044a3.8,3.8,0,0,0-1.936-.541H28.654V58.959l2.177,1.782a4.167,4.167,0,0,0,5.419-.3,3.958,3.958,0,0,0,.988-4.136h4.211a3.771,3.771,0,0,0,2.64-1.094L55.915,43.487l.044-.043.512-.5A1.559,1.559,0,0,1,58.8,45.006L55.339,49.23a1.257,1.257,0,0,0,.969,2.05H70.584a2,2,0,0,1,2.055,1.683,1.885,1.885,0,0,1-1.875,2.088H63.85a1.257,1.257,0,1,0,0,2.514h7.994A2,2,0,0,1,73.9,59.246Zm.01-30.025a1.268,1.268,0,0,1-.185.649l-3.046,5.083a3.8,3.8,0,0,0-.541,1.935V48.766H58.959l1.784-2.178a4.066,4.066,0,0,0-.3-5.416,4.138,4.138,0,0,0-4.134-.953V35.97a3.771,3.771,0,0,0-1.094-2.64L43.487,21.5l-.024-.024-.519-.523a1.535,1.535,0,0,1,.015-2.2,1.594,1.594,0,0,1,2.051-.126l4.222,3.455a1.257,1.257,0,0,0,2.048-.969V6.836a2,2,0,0,1,1.684-2.055,1.885,1.885,0,0,1,2.087,1.875V13.57a1.257,1.257,0,0,0,2.514,0V5.579a2,2,0,0,1,1.684-2.055A1.885,1.885,0,0,1,61.336,5.4v8.17a1.257,1.257,0,1,0,2.514,0V7.914a1.885,1.885,0,0,1,2.087-1.878,2,2,0,0,1,1.684,2.058v7.991a1.257,1.257,0,0,0,2.514,0V10.428A1.885,1.885,0,0,1,72.222,8.55a2,2,0,0,1,1.684,2.056Z" transform="translate(-0.999 -0.999)"></path>
</svg>
</g>
</g>
</svg>
</g>
</g>
</svg>