<svg xmlns="http://www.w3.org/2000/svg" width="62" height="61.977" viewBox="0 0 62 61.977">
  <g id="seo" transform="translate(-1 -1.023)">
    <path id="Path_38411" data-name="Path 38411" d="M24,13.023H22a1,1,0,0,1-1-1H19a3,3,0,0,0,3,3h2a3,3,0,0,0,0-6H22a1,1,0,0,1,0-2h2a1,1,0,0,1,1,1h2a3,3,0,0,0-3-3H22a3,3,0,0,0,0,6h2a1,1,0,0,1,0,2Z" fill="var(--mainColor)"/>
    <path id="Path_38412" data-name="Path 38412" d="M32,15.023h3v-2H32a1,1,0,0,1-1-1v-1h4v-2H31v-1a1,1,0,0,1,1-1h3v-2H32a3,3,0,0,0-3,3v4A3,3,0,0,0,32,15.023Z" fill="var(--mainColor)"/>
    <path id="Path_38413" data-name="Path 38413" d="M40,15.023h2a3,3,0,0,0,3-3v-4a3,3,0,0,0-3-3H40a3,3,0,0,0-3,3v4A3,3,0,0,0,40,15.023Zm-1-7a1,1,0,0,1,1-1h2a1,1,0,0,1,1,1v4a1,1,0,0,1-1,1H40a1,1,0,0,1-1-1Z" fill="var(--mainColor)"/>
    <path id="Path_38414" data-name="Path 38414" d="M63,23H59V20a5.006,5.006,0,0,0-5-5H49V4.023a3,3,0,0,0-3-3H18a3,3,0,0,0-3,3V15H10a5.006,5.006,0,0,0-5,5v6.082A7.982,7.982,0,0,0,5,39.918V48a5.006,5.006,0,0,0,5,5H22v4H21a5.006,5.006,0,0,0-5,5v1H48V62a5.006,5.006,0,0,0-5-5H42V53H54a5.006,5.006,0,0,0,5-5V41h4ZM17,4.023a1,1,0,0,1,1-1H46a1,1,0,0,1,1,1v12a1,1,0,0,1-1,1H35.7l-5.865,3.888A.554.554,0,0,1,29,20.463v-3.44H18a1,1,0,0,1-1-1ZM7,20a3,3,0,0,1,3-3h5.177A3,3,0,0,0,18,19.023h9v1.44a2.537,2.537,0,0,0,3.938,2.115L36.3,19.023H46A3,3,0,0,0,48.823,17H54a3,3,0,0,1,3,3v3H49v9H43V27H37V39H35V25H29V39H27V29H21v3H16.931A7.96,7.96,0,0,0,7,25.263ZM39,39V29h2V39Zm-6,0H31V27h2Zm-8,0H23V31h2ZM3,33a6,6,0,1,1,6,6A6.006,6.006,0,0,1,3,33ZM45.829,61H18.171A3.006,3.006,0,0,1,21,59H43A3.006,3.006,0,0,1,45.829,61ZM40,57H24V53H40Zm14-6H10a3,3,0,0,1-3-3V45H57v3A3,3,0,0,1,54,51Zm3-8H7V40.737A7.96,7.96,0,0,0,16.931,34H21v5H19v2H45V39H43V34h6v7h8Zm4-4H51V25H61Z" fill="var(--mainColor)"/>
    <circle id="Ellipse_89" data-name="Ellipse 89" cx="1" cy="1" r="1" transform="translate(27 47)" fill="var(--mainColor)"/>
    <circle id="Ellipse_90" data-name="Ellipse 90" cx="1" cy="1" r="1" transform="translate(31 47)" fill="var(--mainColor)"/>
    <circle id="Ellipse_91" data-name="Ellipse 91" cx="1" cy="1" r="1" transform="translate(35 47)" fill="var(--mainColor)"/>
    <path id="Path_38415" data-name="Path 38415" d="M13,33a4,4,0,1,0-4,4A4,4,0,0,0,13,33ZM7,33a2,2,0,1,1,2,2A2,2,0,0,1,7,33Z" fill="var(--mainColor)"/>
    <path id="Path_38416" data-name="Path 38416" d="M53,27h6v2H53Z" fill="var(--mainColor)"/>
    <path id="Path_38417" data-name="Path 38417" d="M53,31h6v2H53Z" fill="var(--mainColor)"/>
    <path id="Path_38418" data-name="Path 38418" d="M53,35h6v2H53Z" fill="var(--mainColor)"/>
  </g>
</svg>
