<svg xmlns="http://www.w3.org/2000/svg" width="64.968" height="64.764" viewBox="0 0 64.968 64.764">
  <g id="_003-creative-idea" data-name="003-creative-idea" transform="translate(-0.536 -0.536)">
    <g id="Group_2" data-name="Group 2">
      <path id="Path_54" data-name="Path 54" d="M34.2,13.2h-.4c-4,0-16.3-.1-20.7,16.9-.1.3-.9,2.8.3,4.4a2.551,2.551,0,0,0,1.4,1L9.7,44.7a.908.908,0,0,0,0,1,1.05,1.05,0,0,0,.9.5h4.8l-.7,8.1A4.529,4.529,0,0,0,18,58.6a6.538,6.538,0,0,0,6-1.4v7.1a.945.945,0,0,0,1,1H43.8a1,1,0,0,0,1-1c.1-1.7,0-3.1,0-4.4-.1-3-.1-5,1.3-7.3,3.3-5.4,10.5-19,5.8-28.2C45.8,13.2,37.1,13.2,34.2,13.2Zm10,38.6c-1.7,2.8-1.7,5.3-1.6,8.4,0,1,.1,2.1,0,3.3H25.8V54.7a1.2,1.2,0,0,0-.7-1,.949.949,0,0,0-1.1.4c-1.6,2.3-3.6,3.4-5.5,2.7a2.388,2.388,0,0,1-1.9-2.3l.8-9.1a1.136,1.136,0,0,0-.3-.8,1.08,1.08,0,0,0-.7-.3H12.2l5-9a.908.908,0,0,0,0-1,1.05,1.05,0,0,0-.9-.5c-.7,0-1.1-.1-1.3-.4-.5-.6-.2-2,0-2.7,4.1-15.6,14.8-15.6,18.8-15.5h.4c2.6,0,10.4,0,15.7,10.3C54.2,33.8,47.4,46.7,44.2,51.8Z" fill="var(--mainColor)"/>
    </g>
    <g id="Group_3" data-name="Group 3">
      <path id="Path_55" data-name="Path 55" d="M30.6,5.5l1.7-1.6v6.6a1,1,0,0,0,2,0V3.9l1.6,1.6a1.08,1.08,0,0,0,.7.3.908.908,0,0,0,.7-.3.967.967,0,0,0,0-1.4L34,.8a1.063,1.063,0,0,0-1.4,0L29.2,4.1a.99.99,0,0,0,1.4,1.4Z" fill="var(--mainColor)"/>
    </g>
    <g id="Group_4" data-name="Group 4">
      <path id="Path_56" data-name="Path 56" d="M65.2,32.3l-3.3-3.4a.99.99,0,0,0-1.4,1.4L62.1,32H55.5a1,1,0,0,0,0,2h6.6l-1.6,1.6A.99.99,0,0,0,61.9,37l3.3-3.3A.967.967,0,0,0,65.2,32.3Z" fill="var(--mainColor)"/>
    </g>
    <g id="Group_5" data-name="Group 5">
      <path id="Path_57" data-name="Path 57" d="M3.9,34h6.6a1,1,0,0,0,0-2H3.9l1.6-1.7a.99.99,0,0,0-1.4-1.4L.8,32.3a1.063,1.063,0,0,0,0,1.4L4.1,37a.99.99,0,1,0,1.4-1.4Z" fill="var(--mainColor)"/>
    </g>
    <g id="Group_6" data-name="Group 6">
      <path id="Path_58" data-name="Path 58" d="M49.2,18.1a.908.908,0,0,0,.7-.3l4.7-4.6v2.2a1,1,0,1,0,2,0V10.7a.908.908,0,0,0-.3-.7,1.143,1.143,0,0,0-.7-.3H50.9a1,1,0,0,0-1,1,.945.945,0,0,0,1,1h2.3l-4.7,4.7a.967.967,0,0,0,0,1.4A.908.908,0,0,0,49.2,18.1Z" fill="var(--mainColor)"/>
    </g>
    <g id="Group_7" data-name="Group 7">
      <path id="Path_59" data-name="Path 59" d="M11,16.4a.945.945,0,0,0,1-1V13.2l4.7,4.6a.99.99,0,0,0,1.4-1.4l-4.7-4.7h2.3a1,1,0,0,0,1-1,1.075,1.075,0,0,0-1-1H11a1.143,1.143,0,0,0-.7.3.908.908,0,0,0-.3.7v4.7a1,1,0,0,0,1,1Z" fill="var(--mainColor)"/>
    </g>
    <g id="Group_8" data-name="Group 8">
      <path id="Path_60" data-name="Path 60" d="M33.7,22.5a.945.945,0,0,0,1-1V19.2a1,1,0,0,0-2,0v2.3A.945.945,0,0,0,33.7,22.5Z" fill="var(--mainColor)"/>
    </g>
    <g id="Group_9" data-name="Group 9">
      <path id="Path_61" data-name="Path 61" d="M47.5,32H45.2a1,1,0,0,0,0,2h2.3a.945.945,0,0,0,1-1A1,1,0,0,0,47.5,32Z" fill="var(--mainColor)"/>
    </g>
    <g id="Group_10" data-name="Group 10">
      <path id="Path_62" data-name="Path 62" d="M23.2,33a.945.945,0,0,0-1-1H19.9a1,1,0,1,0,0,2h2.3A1,1,0,0,0,23.2,33Z" fill="var(--mainColor)"/>
    </g>
    <g id="Group_11" data-name="Group 11">
      <path id="Path_63" data-name="Path 63" d="M42.5,25.6l1.6-1.7a.99.99,0,1,0-1.4-1.4l-1.6,1.7a.99.99,0,0,0,1.4,1.4Z" fill="var(--mainColor)"/>
    </g>
    <g id="Group_12" data-name="Group 12">
      <path id="Path_64" data-name="Path 64" d="M24.8,25.6a.99.99,0,0,0,1.4-1.4l-1.6-1.7a.99.99,0,0,0-1.4,1.4Z" fill="var(--mainColor)"/>
    </g>
    <g id="Group_13" data-name="Group 13">
      <path id="Path_65" data-name="Path 65" d="M46.8,37.3l-2.2-.9a.985.985,0,1,0-.8,1.8l2.2.9a.992.992,0,0,0,1.3-.5C47.6,38.1,47.4,37.6,46.8,37.3Z" fill="var(--mainColor)"/>
    </g>
    <g id="Group_14" data-name="Group 14">
      <path id="Path_66" data-name="Path 66" d="M20.5,28.7l2.2.9a.985.985,0,0,0,.8-1.8l-2.2-.9a.992.992,0,0,0-1.3.5A.917.917,0,0,0,20.5,28.7Z" fill="var(--mainColor)"/>
    </g>
    <g id="Group_15" data-name="Group 15">
      <path id="Path_67" data-name="Path 67" d="M37.6,23.3a.992.992,0,0,0,1.3-.5l.9-2.2a.985.985,0,0,0-1.8-.8L37.1,22A.992.992,0,0,0,37.6,23.3Z" fill="var(--mainColor)"/>
    </g>
    <g id="Group_16" data-name="Group 16">
      <path id="Path_68" data-name="Path 68" d="M28.3,22.8a.985.985,0,0,0,1.8-.8l-.9-2.2a.917.917,0,0,0-1.3-.5.992.992,0,0,0-.5,1.3Z" fill="var(--mainColor)"/>
    </g>
    <g id="Group_17" data-name="Group 17">
      <path id="Path_69" data-name="Path 69" d="M22.7,36.6l-2.1.9a.985.985,0,1,0,.8,1.8l2.1-.9a.985.985,0,0,0-.8-1.8Z" fill="var(--mainColor)"/>
    </g>
    <g id="Group_18" data-name="Group 18">
      <path id="Path_70" data-name="Path 70" d="M43.3,29a.992.992,0,0,0,1.3.5l2.1-.9a.985.985,0,1,0-.8-1.8l-2.1.9A1.046,1.046,0,0,0,43.3,29Z" fill="var(--mainColor)"/>
    </g>
    <g id="Group_19" data-name="Group 19">
      <path id="Path_71" data-name="Path 71" d="M40.5,25.3a10.01,10.01,0,0,0-7.4-2.7,10.178,10.178,0,0,0-9.4,9.3c-.4,4.1,1.3,6.3,2.8,8.2a10.733,10.733,0,0,1,2.6,5.1h-.4a1.43,1.43,0,0,0-1.4,1.4v3.5a1.777,1.777,0,0,0,.4,1,1.284,1.284,0,0,0,1,.4h1.8V52h-.7a1,1,0,0,0-1,1,.945.945,0,0,0,1,1h.8a2.384,2.384,0,0,0,.6,1.1,2.5,2.5,0,0,0,1.8.8h1.3A2.58,2.58,0,0,0,36.8,54h.8a1,1,0,0,0,0-2H37v-.5h1.8a1.777,1.777,0,0,0,1-.4,1.284,1.284,0,0,0,.4-1V46.6a1.43,1.43,0,0,0-1.4-1.4h-.4a9.453,9.453,0,0,1,2.5-5.1c1.4-1.8,2.8-3.6,2.8-7.2a10.406,10.406,0,0,0-3.2-7.6ZM35,53.3a.669.669,0,0,1-.6.7H33.1a.52.52,0,0,1-.4-.2.764.764,0,0,1-.2-.5V51.6H35Zm-5.8-3.7V47.2h9v2.4Zm4.5-13.9A1.3,1.3,0,1,1,35,34.4,1.324,1.324,0,0,1,33.7,35.7Zm5.6,3.1a11.248,11.248,0,0,0-2.9,6.3H34.7V37.5A3.243,3.243,0,0,0,37,34.3a3.3,3.3,0,1,0-6.6,0,3.465,3.465,0,0,0,2.3,3.2v7.6H31.1a11.993,11.993,0,0,0-3-6.3c-1.4-1.8-2.7-3.4-2.4-6.7a8.14,8.14,0,0,1,8-7.5,8.3,8.3,0,0,1,8.1,8.3,8.735,8.735,0,0,1-2.5,5.9Z" fill="var(--mainColor)"/>
    </g>
  </g>
</svg>
