<svg id="Outline" xmlns="http://www.w3.org/2000/svg" width="36.712" height="36.712" viewBox="0 0 36.712 36.712">
  <defs>
    <style>
      .cls-1 {
        fill: #f5b525;
      }

      .cls-2 {
        fill: #bc8200;
      }
    </style>
  </defs>
  <path id="Path_38194" data-name="Path 38194" class="cls-1" d="M37.488,15.461a1.836,1.836,0,0,0-1.836-1.836h-.612V11.459a3.661,3.661,0,0,0,1.224-2.729V8.586L32.972,2H7.741L4.447,8.586v.144a3.661,3.661,0,0,0,1.224,2.729v2.166H5.059a1.836,1.836,0,0,0-1.836,1.836v19.58H2v1.836a1.836,1.836,0,0,0,1.836,1.836H36.877a1.836,1.836,0,0,0,1.836-1.836V35.041H37.488ZM28.521,3.224h3.694l2.822,5.644a2.447,2.447,0,0,1-4.891-.137Zm-1.278,0,1.679,5.592a2.449,2.449,0,0,1-4.895-.146l-.551-5.446Zm-8.781,0h3.791L22.8,8.759a2.448,2.448,0,1,1-4.895.032Zm-1.227,0-.551,5.507a2.448,2.448,0,0,1-4.895.085l1.679-5.592Zm-8.739,0h3.694l-1.6,5.331-.026.176a2.447,2.447,0,0,1-4.891.137ZM8.119,12.4a3.668,3.668,0,0,0,3.059-1.648,3.674,3.674,0,0,0,6.124.009,3.666,3.666,0,0,0,6.113-.007,3.666,3.666,0,0,0,6.119,0,3.647,3.647,0,0,0,4.283,1.434v20.4H6.895V12.188a3.656,3.656,0,0,0,1.224.214ZM4.447,15.461a.612.612,0,0,1,.612-.612h.612V33.817h29.37V14.849h.612a.612.612,0,0,1,.612.612v19.58H4.447ZM37.488,36.877a.612.612,0,0,1-.612.612H3.836a.612.612,0,0,1-.612-.612v-.612H37.488Z" transform="translate(-2 -2)"/>
  <path id="Path_38195" data-name="Path 38195" class="cls-2" d="M19.393,35.461H34.506l1.387-10.4H18.561L17.949,22H15v1.224h1.946Zm15.1-9.178-1.06,7.954H20.4l-1.591-7.954Z" transform="translate(-7.046 -9.763)"/>
  <path id="Path_38196" data-name="Path 38196" class="cls-2" d="M24,45.836A1.836,1.836,0,1,0,25.836,44,1.836,1.836,0,0,0,24,45.836Zm1.836-.612a.612.612,0,1,1-.612.612A.612.612,0,0,1,25.836,45.224Z" transform="translate(-10.539 -18.302)"/>
  <path id="Path_38197" data-name="Path 38197" class="cls-2" d="M39,45.836A1.836,1.836,0,1,0,40.836,44,1.836,1.836,0,0,0,39,45.836Zm1.836-.612a.612.612,0,1,1-.612.612A.612.612,0,0,1,40.836,45.224Z" transform="translate(-16.361 -18.302)"/>
</svg>
